<svg width="186" height="130" viewBox="0 0 186 130" fill="none" xmlns="http://www.w3.org/2000/svg">
<g clip-path="url(#clip0_1681_4038)">
<path d="M209.367 109.438H-24.3015V109.554H209.367V109.438Z" fill="#EBEBEB"/>
<path d="M209.367 109.438H-24.3015V109.554H209.367V109.438Z" fill="#EBEBEB"/>
<path d="M185.953 116.939H170.475V117.056H185.953V116.939Z" fill="#EBEBEB"/>
<path d="M130.49 118.202H126.429V118.319H130.49V118.202Z" fill="#EBEBEB"/>
<path d="M170.008 112.611H161.04V112.727H170.008V112.611Z" fill="#EBEBEB"/>
<path d="M20.3992 113.394H0.214966V113.51H20.3992V113.394Z" fill="#EBEBEB"/>
<path d="M80.9194 115.36H37.1393V115.476H80.9194V115.36Z" fill="#EBEBEB"/>
<path d="M27.5215 113.394H24.5632V113.51H27.5215V113.394Z" fill="#EBEBEB"/>
<path d="M93.5328 130.228C143.576 130.228 184.145 127.867 184.145 124.954C184.145 122.041 143.576 119.679 93.5328 119.679C43.4892 119.679 2.9209 122.041 2.9209 124.954C2.9209 127.867 43.4892 130.228 93.5328 130.228Z" fill="#F5F5F5"/>
<path d="M105.413 124.572H10.2815C8.33127 123.204 6.95517 121.167 6.41631 118.852C5.87745 116.536 6.21365 114.103 7.36062 112.019C7.79192 111.176 8.43623 110.46 9.22996 109.941C8.16607 107.941 7.84813 105.629 8.33268 103.418C8.82806 101.335 10.5572 99.9229 12.3424 98.786C11.0209 91.1621 12.5151 83.319 16.5485 76.7093C20.5582 70.214 27.171 65.9925 34.4428 63.9376C34.1104 61.1569 34.3681 58.3376 35.1992 55.6626C36.0303 52.9876 37.4163 50.5167 39.2672 48.4104C41.1181 46.304 43.3925 44.6092 45.9428 43.4359C48.4932 42.2626 51.2624 41.6371 54.0709 41.6C54.2798 39.626 54.9168 37.721 55.9376 36.0169C56.9584 34.3129 58.3387 32.8505 59.9827 31.7312C61.6006 30.6338 63.4448 29.9123 65.3794 29.6195C67.314 29.3268 69.2898 29.4704 71.1614 30.0398C71.4512 28.6419 72.0563 27.3281 72.9307 26.1979C73.8052 25.0678 74.9261 24.1508 76.2087 23.5165C77.4923 22.9128 78.8993 22.6158 80.3182 22.649C81.737 22.6821 83.1285 23.0446 84.3824 23.7075C88.2052 22.6265 92.4112 24.6627 94.145 28.2878C95.8789 31.9129 94.7199 36.7215 91.5186 39.1118C95.1311 44.4796 94.9722 52.8853 91.1354 58.09C93.2477 58.6584 94.1637 61.6778 94.4768 63.877C95.3812 70.2695 94.2913 76.7846 91.355 82.5383C95.2526 82.352 99.024 85.2502 101.347 88.4373C102.499 90.0551 103.25 91.9228 103.536 93.8864C103.823 95.85 103.638 97.8535 102.996 99.7319C105.258 99.5921 107.179 101.377 108.291 103.376C109.126 105.035 109.66 106.829 109.871 108.673C109.96 108.858 110.027 109.052 110.072 109.251C111.282 114.554 109.418 120.858 105.413 124.572Z" fill="#407BFF"/>
<g opacity="0.6">
<path d="M105.413 124.572H10.2815C8.33127 123.204 6.95517 121.167 6.41631 118.852C5.87745 116.536 6.21365 114.103 7.36062 112.019C7.79192 111.176 8.43623 110.46 9.22996 109.941C8.16607 107.941 7.84813 105.629 8.33268 103.418C8.82806 101.335 10.5572 99.9229 12.3424 98.786C11.0209 91.1621 12.5151 83.319 16.5485 76.7093C20.5582 70.214 27.171 65.9925 34.4428 63.9376C34.1104 61.1569 34.3681 58.3376 35.1992 55.6626C36.0303 52.9876 37.4163 50.5167 39.2672 48.4104C41.1181 46.304 43.3925 44.6092 45.9428 43.4359C48.4932 42.2626 51.2624 41.6371 54.0709 41.6C54.2798 39.626 54.9168 37.721 55.9376 36.0169C56.9584 34.3129 58.3387 32.8505 59.9827 31.7312C61.6006 30.6338 63.4448 29.9123 65.3794 29.6195C67.314 29.3268 69.2898 29.4704 71.1614 30.0398C71.4512 28.6419 72.0563 27.3281 72.9307 26.1979C73.8052 25.0678 74.9261 24.1508 76.2087 23.5165C77.4923 22.9128 78.8993 22.6158 80.3182 22.649C81.737 22.6821 83.1285 23.0446 84.3824 23.7075C88.2052 22.6265 92.4112 24.6627 94.145 28.2878C95.8789 31.9129 94.7199 36.7215 91.5186 39.1118C95.1311 44.4796 94.9722 52.8853 91.1354 58.09C93.2477 58.6584 94.1637 61.6778 94.4768 63.877C95.3812 70.2695 94.2913 76.7846 91.355 82.5383C95.2526 82.352 99.024 85.2502 101.347 88.4373C102.499 90.0551 103.25 91.9228 103.536 93.8864C103.823 95.85 103.638 97.8535 102.996 99.7319C105.258 99.5921 107.179 101.377 108.291 103.376C109.126 105.035 109.66 106.829 109.871 108.673C109.96 108.858 110.027 109.052 110.072 109.251C111.282 114.554 109.418 120.858 105.413 124.572Z" fill="white"/>
</g>
<path d="M82.5879 15.8842L111.988 11.1269C112.091 11.1115 112.196 11.1234 112.293 11.1615C112.39 11.1995 112.475 11.2622 112.54 11.3434C112.605 11.4246 112.647 11.5214 112.663 11.6241C112.678 11.7267 112.666 11.8317 112.628 11.9283L101.445 39.452C101.407 39.5476 101.345 39.6316 101.264 39.6955C101.183 39.7593 101.087 39.8006 100.985 39.8153C100.883 39.83 100.778 39.8174 100.683 39.779C100.587 39.7405 100.503 39.6775 100.44 39.5964L82.214 16.8301C82.1497 16.7494 82.1079 16.6533 82.0926 16.5514C82.0774 16.4495 82.0893 16.3454 82.1272 16.2496C82.1651 16.1537 82.2276 16.0695 82.3084 16.0054C82.3893 15.9412 82.4857 15.8995 82.5879 15.8842Z" fill="#407BFF"/>
<path opacity="0.2" d="M82.5879 15.8842L111.988 11.1269C112.091 11.1115 112.196 11.1234 112.293 11.1615C112.39 11.1995 112.475 11.2622 112.54 11.3434C112.605 11.4246 112.647 11.5214 112.663 11.6241C112.678 11.7267 112.666 11.8317 112.628 11.9283L101.445 39.452C101.407 39.5476 101.345 39.6316 101.264 39.6955C101.183 39.7593 101.087 39.8006 100.985 39.8153C100.883 39.83 100.778 39.8174 100.683 39.779C100.587 39.7405 100.503 39.6775 100.44 39.5964L82.214 16.8301C82.1497 16.7494 82.1079 16.6533 82.0926 16.5514C82.0774 16.4495 82.0893 16.3454 82.1272 16.2496C82.1651 16.1537 82.2276 16.0695 82.3084 16.0054C82.3893 15.9412 82.4857 15.8995 82.5879 15.8842Z" fill="white"/>
<path d="M84.6862 26.9878L86.5181 24.6254L84.9245 22.6312L82.2046 23.8892C82.393 24.5433 82.7092 25.1537 83.1351 25.6855C83.561 26.2173 84.0881 26.6599 84.6862 26.9878Z" fill="#263238"/>
<path opacity="0.2" d="M84.9244 22.6312L84.2842 22.9247C84.6593 23.8315 85.2848 24.6136 86.0881 25.1799L86.518 24.6254L84.9244 22.6312Z" fill="white"/>
<path opacity="0.4" d="M83.6019 23.2416L83.0925 23.4792C83.5295 24.5906 84.2936 25.5441 85.2843 26.2143L85.6255 25.7717C84.7932 25.0667 84.106 24.2075 83.6019 23.2416Z" fill="white"/>
<path d="M87.5651 25.604C86.7537 25.1612 86.0383 24.5627 85.46 23.8429C84.8817 23.1232 84.4519 22.2965 84.1956 21.4104L101.099 7.96311C102.044 7.20823 103.13 6.64747 104.294 6.31318C105.458 5.9789 106.677 5.8777 107.88 6.01544C107.747 7.21523 107.378 8.37691 106.792 9.43339C106.207 10.4899 105.417 11.4202 104.469 12.1706L87.5651 25.604Z" fill="#407BFF"/>
<path d="M101.099 7.94911L85.1675 20.6276C85.7855 22.3622 86.9707 23.8392 88.5323 24.8212L104.468 12.1427C105.417 11.3922 106.206 10.4619 106.792 9.40541C107.378 8.34893 107.747 7.18725 107.88 5.98746C106.676 5.85165 105.457 5.95509 104.293 6.29178C103.129 6.62848 102.043 7.19176 101.099 7.94911Z" fill="#407BFF"/>
<path opacity="0.5" d="M101.099 7.94911L85.1675 20.6276C85.7855 22.3622 86.9707 23.8392 88.5323 24.8212L104.468 12.1427C105.417 11.3922 106.206 10.4619 106.792 9.40541C107.378 8.34893 107.747 7.18725 107.88 5.98746C106.676 5.85165 105.457 5.95509 104.293 6.29178C103.129 6.62848 102.043 7.19176 101.099 7.94911Z" fill="white"/>
<path d="M101.099 7.94911L100.37 8.53154C101.077 10.2149 102.243 11.6675 103.735 12.7251L104.468 12.1427C105.417 11.3922 106.206 10.4619 106.792 9.40541C107.377 8.34893 107.747 7.18725 107.88 5.98746C106.676 5.85165 105.456 5.95509 104.293 6.29178C103.129 6.62848 102.043 7.19176 101.099 7.94911Z" fill="#407BFF"/>
<path opacity="0.2" d="M101.099 7.94911L100.37 8.53154C101.077 10.2149 102.243 11.6675 103.735 12.7251L104.468 12.1427C105.417 11.3922 106.206 10.4619 106.792 9.40541C107.377 8.34893 107.747 7.18725 107.88 5.98746C106.676 5.85165 105.456 5.95509 104.293 6.29178C103.129 6.62848 102.043 7.19176 101.099 7.94911Z" fill="white"/>
<path d="M93.5701 37.3878L95.4021 35.0208L93.8085 33.0312L91.0933 34.2893C91.2806 34.9431 91.596 35.5536 92.0211 36.0854C92.4462 36.6172 92.9727 37.0598 93.5701 37.3878Z" fill="#263238"/>
<path opacity="0.2" d="M93.8084 33.0312L93.1729 33.3247C93.546 34.2314 94.172 35.0125 94.9768 35.5753L95.4021 35.0208L93.8084 33.0312Z" fill="white"/>
<path opacity="0.4" d="M92.4906 33.6416L91.9812 33.8746C92.4148 34.9878 93.1776 35.9433 94.1683 36.6144L94.5142 36.1484C93.683 35.4515 92.9957 34.6001 92.4906 33.6416Z" fill="white"/>
<path d="M96.4537 36.004C94.8174 35.1068 93.6053 33.5984 93.0842 31.8104L109.988 18.3631C110.933 17.6085 112.019 17.0476 113.183 16.7126C114.347 16.3775 115.565 16.275 116.769 16.4108C116.634 17.6106 116.263 18.7721 115.678 19.829C115.092 20.8859 114.304 21.8175 113.357 22.5706L96.4537 36.004Z" fill="#407BFF"/>
<path d="M109.988 18.3491L94.0515 31.0229C94.6717 32.7577 95.8583 34.2345 97.421 35.2165L113.357 22.5427C114.304 21.7896 115.092 20.858 115.677 19.801C116.263 18.7441 116.634 17.5826 116.769 16.3828C115.564 16.2489 114.345 16.3537 113.181 16.6912C112.018 17.0286 110.932 17.5921 109.988 18.3491Z" fill="#407BFF"/>
<path opacity="0.5" d="M109.988 18.3491L94.0515 31.0229C94.6717 32.7577 95.8583 34.2345 97.421 35.2165L113.357 22.5427C114.304 21.7896 115.092 20.858 115.677 19.801C116.263 18.7441 116.634 17.5826 116.769 16.3828C115.564 16.2489 114.345 16.3537 113.181 16.6912C112.018 17.0286 110.932 17.5921 109.988 18.3491Z" fill="white"/>
<path d="M109.988 18.3491L109.259 18.9269C109.966 20.6103 111.132 22.0628 112.624 23.1204L113.357 22.538C114.304 21.7849 115.092 20.8533 115.678 19.7964C116.263 18.7395 116.634 17.578 116.769 16.3781C115.564 16.2449 114.345 16.3505 113.181 16.6887C112.017 17.027 110.932 17.5913 109.988 18.3491Z" fill="#407BFF"/>
<path opacity="0.2" d="M109.988 18.3491L109.259 18.9269C109.966 20.6103 111.132 22.0628 112.624 23.1204L113.357 22.538C114.304 21.7849 115.092 20.8533 115.678 19.7964C116.263 18.7395 116.634 17.578 116.769 16.3781C115.564 16.2449 114.345 16.3505 113.181 16.6887C112.017 17.027 110.932 17.5913 109.988 18.3491Z" fill="white"/>
<path d="M88.8361 33.9724L91.799 30.1609L89.224 26.9412L84.8357 28.9728C85.1384 30.0282 85.6477 31.0134 86.3343 31.8715C87.0209 32.7297 87.8712 33.4437 88.8361 33.9724Z" fill="#263238"/>
<path opacity="0.2" d="M89.2239 26.9412L88.1958 27.4072C88.7981 28.8697 89.8066 30.1306 91.1026 31.0416L91.799 30.1516L89.2239 26.9412Z" fill="white"/>
<path opacity="0.4" d="M87.0928 27.929L86.2656 28.3111C86.9704 30.1059 88.2037 31.6459 89.8034 32.7283L90.3595 32.0107C89.0148 30.8749 87.9052 29.4884 87.0928 27.929Z" fill="white"/>
<path d="M93.4674 31.7405C92.1573 31.0208 91.0028 30.0501 90.0701 28.8843C89.1374 27.7185 88.4448 26.3804 88.0322 24.947L115.32 3.23835C116.847 2.02158 118.6 1.11739 120.478 0.577664C122.356 0.0379375 124.323 -0.126705 126.265 0.093186C126.05 2.02977 125.452 3.90479 124.507 5.61044C123.563 7.31608 122.289 8.81869 120.76 10.0319L93.4674 31.7405Z" fill="#407BFF"/>
<path d="M115.339 3.23837L89.6353 23.7029C90.6232 26.5126 92.5312 28.909 95.0517 30.5058L120.779 10.0412C122.308 8.82804 123.581 7.32542 124.526 5.61978C125.471 3.91414 126.068 2.03912 126.284 0.102528C124.342 -0.118654 122.376 0.0444928 120.498 0.582613C118.62 1.12073 116.866 2.02324 115.339 3.23837Z" fill="#407BFF"/>
<path opacity="0.6" d="M115.339 3.23837L89.6353 23.7029C90.6232 26.5126 92.5312 28.909 95.0517 30.5058L120.779 10.0412C122.308 8.82804 123.581 7.32542 124.526 5.61978C125.471 3.91414 126.068 2.03912 126.284 0.102528C124.342 -0.118654 122.376 0.0444928 120.498 0.582613C118.62 1.12073 116.866 2.02324 115.339 3.23837Z" fill="white"/>
<path d="M115.339 3.23835L114.161 4.17025C115.3 6.89675 117.183 9.25029 119.596 10.9638L120.779 10.0319C122.308 8.81869 123.581 7.31608 124.526 5.61044C125.471 3.90479 126.068 2.02977 126.284 0.093186C124.342 -0.126705 122.375 0.0379375 120.497 0.577664C118.619 1.11739 116.866 2.02158 115.339 3.23835Z" fill="#407BFF"/>
<path opacity="0.2" d="M115.339 3.23835L114.161 4.17025C115.3 6.89675 117.183 9.25029 119.596 10.9638L120.779 10.0319C122.308 8.81869 123.581 7.31608 124.526 5.61044C125.471 3.90479 126.068 2.02977 126.284 0.093186C124.342 -0.126705 122.375 0.0379375 120.497 0.577664C118.619 1.11739 116.866 2.02158 115.339 3.23835Z" fill="white"/>
<path d="M114.184 12.958C113.792 13.2695 113.316 13.4579 112.816 13.4995C112.316 13.5412 111.815 13.4342 111.376 13.192C110.937 12.9499 110.58 12.5835 110.35 12.1391C110.119 11.6947 110.026 11.1922 110.083 10.6952C110.139 10.1982 110.341 9.72892 110.665 9.34665C110.988 8.96438 111.418 8.68629 111.9 8.54749C112.382 8.4087 112.894 8.41543 113.373 8.56684C113.851 8.71826 114.273 9.00755 114.586 9.39818C115.006 9.92356 115.199 10.5936 115.124 11.261C115.049 11.9285 114.711 12.5388 114.184 12.958Z" fill="#407BFF"/>
<path d="M110.614 12.5573C110.215 12.0586 110.021 11.4282 110.068 10.7924C110.116 10.1565 110.403 9.56208 110.871 9.12793C110.817 9.16212 110.766 9.19947 110.717 9.23976C110.456 9.44719 110.239 9.70375 110.078 9.9948C109.917 10.2858 109.815 10.6057 109.778 10.936C109.741 11.2664 109.769 11.6008 109.862 11.9201C109.954 12.2395 110.109 12.5375 110.317 12.7973C110.525 13.057 110.783 13.2734 111.074 13.434C111.366 13.5946 111.687 13.6963 112.018 13.7333C112.35 13.7703 112.685 13.7418 113.006 13.6496C113.326 13.5573 113.625 13.4031 113.885 13.1957L114.025 13.0699C113.497 13.4289 112.851 13.5756 112.219 13.4806C111.586 13.3855 111.013 13.0558 110.614 12.5573Z" fill="#407BFF"/>
<path opacity="0.3" d="M110.614 12.5573C110.215 12.0586 110.021 11.4282 110.068 10.7924C110.116 10.1565 110.403 9.56208 110.871 9.12793C110.817 9.16212 110.766 9.19947 110.717 9.23976C110.456 9.44719 110.239 9.70375 110.078 9.9948C109.917 10.2858 109.815 10.6057 109.778 10.936C109.741 11.2664 109.769 11.6008 109.862 11.9201C109.954 12.2395 110.109 12.5375 110.317 12.7973C110.525 13.057 110.783 13.2734 111.074 13.434C111.366 13.5946 111.687 13.6963 112.018 13.7333C112.35 13.7703 112.685 13.7418 113.006 13.6496C113.326 13.5573 113.625 13.4031 113.885 13.1957L114.025 13.0699C113.497 13.4289 112.851 13.5756 112.219 13.4806C111.586 13.3855 111.013 13.0558 110.614 12.5573Z" fill="black"/>
<path d="M113.717 12.3757C113.44 12.5966 113.103 12.7305 112.749 12.7603C112.395 12.7902 112.04 12.7148 111.729 12.5435C111.419 12.3723 111.166 12.113 111.003 11.7984C110.84 11.4838 110.774 11.1281 110.814 10.7763C110.854 10.4245 110.998 10.0924 111.227 9.82205C111.456 9.55172 111.761 9.35529 112.102 9.25764C112.444 9.15998 112.806 9.16549 113.145 9.27346C113.483 9.38143 113.781 9.58701 114.002 9.86418C114.15 10.0474 114.26 10.2579 114.325 10.4836C114.391 10.7092 114.411 10.9456 114.384 11.1791C114.358 11.4126 114.285 11.6385 114.171 11.8439C114.056 12.0493 113.902 12.23 113.717 12.3757Z" fill="white"/>
<path d="M111.147 12.0168L114.306 10.4373C114.244 10.2441 114.149 10.0629 114.026 9.90143L110.876 11.4717C110.936 11.667 111.027 11.8512 111.147 12.0168Z" fill="#407BFF"/>
<path d="M111.637 12.4781L114.385 11.1083C114.397 10.9967 114.397 10.8843 114.385 10.7728L111.38 12.2731C111.46 12.3489 111.546 12.4175 111.637 12.4781Z" fill="#407BFF"/>
<g opacity="0.7">
<path d="M111.147 12.0168L114.306 10.4373C114.244 10.2441 114.149 10.0629 114.026 9.90143L110.876 11.4717C110.936 11.667 111.027 11.8512 111.147 12.0168Z" fill="white"/>
<path d="M111.637 12.4781L114.385 11.1083C114.397 10.9967 114.397 10.8843 114.385 10.7728L111.38 12.2731C111.46 12.3489 111.546 12.4175 111.637 12.4781Z" fill="white"/>
</g>
<path d="M144.996 40.4491H119.881V124.506H144.996V40.4491Z" fill="#407BFF"/>
<path opacity="0.2" d="M126.914 40.4445H119.82V124.465H126.914V40.4445Z" fill="black"/>
<path d="M31.1386 101.13H6.02393V124.511H31.1386V101.13Z" fill="#407BFF"/>
<path opacity="0.2" d="M12.8845 101.106H5.79028V124.465H12.8845V101.106Z" fill="black"/>
<path d="M67.6003 80.9029H42.4856V124.506H67.6003V80.9029Z" fill="#407BFF"/>
<path opacity="0.2" d="M49.4068 80.8842H42.3126V124.465H49.4068V80.8842Z" fill="black"/>
<path d="M106.66 60.676H81.5457V124.506H106.66V60.676Z" fill="#407BFF"/>
<path opacity="0.2" d="M88.5229 60.6667H81.4287V124.469H88.5229V60.6667Z" fill="black"/>
<path d="M181.457 20.2222H156.343V124.506H181.457V20.2222Z" fill="#407BFF"/>
<path opacity="0.2" d="M163.437 20.2222H156.343V124.465H163.437V20.2222Z" fill="black"/>
</g>
<defs>
<clipPath id="clip0_1681_4038">
<rect width="186" height="130" fill="white"/>
</clipPath>
</defs>
</svg>
