<svg width="185" height="133" viewBox="0 0 185 133" fill="none" xmlns="http://www.w3.org/2000/svg">
<path d="M104.8 71.3359L127.553 96.0603L160.338 65.5655V65.5647L174.152 52.7157L151.401 27.9929L125.607 51.9841L104.8 71.3359Z" fill="#CFE7FF"/>
<path d="M110.009 71.623L127.672 90.818L169.558 51.8585L151.894 32.6643L110.009 71.623ZM126.087 87.9211L112.766 73.4458C112.551 73.2122 112.384 72.9383 112.274 72.6397C112.164 72.3411 112.114 72.0238 112.127 71.7057C112.139 71.3877 112.213 71.0752 112.346 70.7861C112.478 70.497 112.666 70.237 112.899 70.0208L150.049 35.4668C150.285 35.2468 150.563 35.0757 150.865 34.9633C151.167 34.851 151.489 34.7996 151.811 34.8122C152.133 34.8247 152.449 34.9009 152.742 35.0364C153.035 35.1719 153.298 35.364 153.517 35.6018L166.782 50.0185C167.22 50.4948 167.452 51.1267 167.427 51.7752C167.402 52.4236 167.122 53.0355 166.648 53.4763L129.473 88.0529C129.006 88.4863 128.388 88.7158 127.753 88.6911C127.118 88.6664 126.519 88.3894 126.087 87.9211Z" fill="#C0D8FB"/>
<path d="M139.645 68.7735C135.782 68.6976 132.711 65.487 132.786 61.6025C132.862 57.718 136.055 54.6306 139.919 54.7065C143.783 54.7825 146.854 57.993 146.778 61.8775C146.703 65.762 143.509 68.8494 139.645 68.7735Z" fill="#C0D8FB"/>
<path d="M95.8748 66.7269L128.554 74.1549L138.402 30.3555V30.3548L142.552 11.9007L109.874 4.47437L102.125 38.9316L95.8748 66.7269Z" fill="#DCEAFF"/>
<path d="M100.329 63.9984L125.699 69.7642L138.281 13.8093L112.91 8.04358L100.329 63.9984ZM122.761 68.2799L103.627 63.9314C103.318 63.8612 103.026 63.7306 102.768 63.547C102.509 63.3634 102.289 63.1303 102.12 62.8612C101.951 62.592 101.836 62.292 101.782 61.9783C101.729 61.6646 101.737 61.3433 101.807 61.0329L112.968 11.403C113.112 10.7651 113.502 10.2107 114.053 9.86176C114.603 9.51279 115.269 9.39776 115.903 9.54196L134.959 13.8733C135.588 14.0163 136.135 14.4044 136.479 14.9524C136.824 15.5004 136.938 16.1635 136.796 16.796L125.63 66.4578C125.56 66.7668 125.431 67.059 125.249 67.3178C125.068 67.5766 124.837 67.7969 124.571 67.9661C124.304 68.1353 124.008 68.2501 123.697 68.304C123.387 68.3578 123.069 68.3496 122.761 68.2799Z" fill="#C0D8FB"/>
<path d="M114.357 43.8787C111.625 41.1314 111.625 36.6772 114.357 33.9299C117.09 31.1827 121.52 31.1827 124.253 33.9299C126.986 36.6772 126.986 41.1314 124.253 43.8787C121.52 46.6259 117.09 46.6259 114.357 43.8787Z" fill="#C0D8FB"/>
<path d="M30.8287 102.993L65.6747 90.7065L49.381 44.0032L49.3802 44.0024L42.5154 24.3238L7.67099 36.6104L20.4889 73.3538L30.8287 102.993Z" fill="#DCEAFF"/>
<path d="M33.4006 97.8239L60.4531 88.2845L39.6377 28.6192L12.5852 38.1586L33.4006 97.8239ZM56.8431 88.6262L36.442 95.8201C36.1126 95.9362 35.7638 95.986 35.4153 95.9665C35.0668 95.947 34.7256 95.8587 34.4111 95.7066C34.0966 95.5544 33.8149 95.3415 33.5823 95.0799C33.3497 94.8184 33.1706 94.5133 33.0553 94.1821L14.59 41.2607C14.3526 40.5801 14.3939 39.8325 14.7047 39.1825C15.0154 38.5325 15.5703 38.0332 16.2472 37.7943L36.5669 30.63C36.8993 30.5128 37.2514 30.4625 37.6032 30.482C37.9549 30.5016 38.2993 30.5906 38.6169 30.744C38.9344 30.8974 39.2187 31.1122 39.4536 31.3761C39.6886 31.64 39.8695 31.9479 39.9861 32.2821L58.4646 85.2386C58.5795 85.5681 58.6287 85.9171 58.6094 86.2656C58.59 86.6142 58.5026 86.9556 58.352 87.2702C58.2014 87.5847 57.9907 87.8664 57.7317 88.0991C57.4728 88.3318 57.1709 88.5109 56.8431 88.6262Z" fill="#C0D8FB"/>
<path d="M43.7978 60.6547C43.2927 59.2075 42.372 57.9434 41.1522 57.0224C39.9325 56.1013 38.4684 55.5645 36.9452 55.48C35.422 55.3955 33.908 55.767 32.5949 56.5475C31.2817 57.328 30.2282 58.4826 29.5677 59.865C28.9072 61.2475 28.6694 62.7959 28.8842 64.3143C29.0991 65.8327 29.757 67.2529 30.7748 68.3953C31.7926 69.5378 33.1245 70.3512 34.6021 70.7326C36.0797 71.114 37.6366 71.0463 39.076 70.5381C41.0056 69.8567 42.587 68.4327 43.4725 66.5793C44.358 64.7259 44.475 62.5948 43.7978 60.6547Z" fill="#C0D8FB"/>
<path d="M130.462 75.959V85.9594C130.465 86.8817 130.831 87.7654 131.48 88.4175C132.129 89.0696 133.008 89.4371 133.925 89.4397H141.053C141.97 89.4367 142.849 89.069 143.497 88.417C144.146 87.7649 144.512 86.8815 144.515 85.9594V75.959C144.512 75.0368 144.146 74.1532 143.497 73.5011C142.848 72.8491 141.969 72.4815 141.052 72.4786H133.924C133.007 72.4815 132.128 72.8491 131.479 73.5012C130.831 74.1533 130.465 75.0368 130.462 75.959Z" fill="#ED7D2B"/>
<path d="M130.462 75.959V81.5305C130.465 82.4528 130.831 83.3363 131.48 83.9884C132.129 84.6404 133.008 85.008 133.925 85.0109H141.053C141.97 85.0078 142.849 84.6401 143.497 83.9881C144.146 83.3361 144.512 82.4526 144.515 81.5305V75.959C144.512 75.0368 144.146 74.1532 143.497 73.5011C142.848 72.8491 141.969 72.4815 141.052 72.4786H133.924C133.007 72.4815 132.128 72.8491 131.479 73.5012C130.831 74.1533 130.465 75.0368 130.462 75.959Z" fill="#F99746"/>
<path d="M51.4896 80.9587C51.4855 85.9239 52.4791 90.8386 54.4107 95.4082C60.0504 108.753 73.2368 118.173 88.5056 118.173H99.0883C112.598 118.173 124.478 110.798 130.943 99.8558C133.892 94.8638 135.631 89.2442 136.021 83.4513C136.41 77.6584 135.438 71.8546 133.183 66.5092C127.544 53.165 114.357 43.7457 99.0883 43.7457H88.5056C74.6178 43.7457 62.4571 51.5348 56.1269 62.9821C53.0813 68.4786 51.4849 74.667 51.4896 80.9587Z" fill="#ED7D2B"/>
<path d="M56.1262 62.9821C55.2479 67.2721 55.9384 73.4092 57.0619 76.6579C64.5318 98.2576 82.0909 102.158 100.04 103.802C112.802 104.972 130.942 99.8582 130.942 99.8582C133.891 94.8662 135.631 89.2466 136.02 83.4537C136.409 77.6608 135.437 71.857 133.183 66.5116C127.544 53.1674 114.356 43.7481 99.0876 43.7481H88.5049C74.6202 43.7458 62.4564 51.5349 56.1262 62.9821Z" fill="#F99746"/>
<path d="M103.452 53.066H118.011C119.479 53.066 120.669 52.1698 120.669 51.0645V31.0817C120.668 30.7523 120.567 30.431 120.379 30.1613C119.666 29.1231 117.795 28.6941 116.402 29.4874C110.874 32.637 101.816 39.4838 100.8 50.9303C100.696 52.0871 101.913 53.066 103.452 53.066Z" fill="#F99746"/>
<path d="M117.419 53.066H118.011C119.479 53.066 120.669 52.1698 120.669 51.0645V31.0817C120.668 30.7523 120.567 30.431 120.379 30.1613C120.315 30.2161 120.255 30.2749 120.199 30.3376C117.036 33.8772 112.478 40.8309 113.759 50.5724C113.946 51.9881 115.529 53.066 117.419 53.066Z" fill="#ED7D2B"/>
<path d="M125.093 66.4282C125.093 65.9962 124.965 65.574 124.727 65.2148C124.488 64.8557 124.149 64.5757 123.752 64.4104C123.355 64.2451 122.918 64.2019 122.497 64.2862C122.075 64.3704 121.688 64.5784 121.384 64.8839C121.08 65.1893 120.874 65.5785 120.79 66.0021C120.706 66.4258 120.749 66.8649 120.913 67.264C121.078 67.6631 121.356 68.0042 121.713 68.2441C122.071 68.4841 122.491 68.6122 122.92 68.6122C123.497 68.6122 124.049 68.3821 124.456 67.9725C124.864 67.5629 125.093 67.0074 125.093 66.4282Z" fill="#2B478B"/>
<path d="M82.2415 102.374L85.694 124.916C85.8011 125.323 85.8136 125.75 85.7307 126.163C85.6478 126.576 85.4717 126.964 85.216 127.298C84.9602 127.632 84.6316 127.902 84.2556 128.088C83.8795 128.274 83.466 128.371 83.0468 128.371H73.9693C73.0152 128.371 72.0796 128.107 71.2649 127.607C70.4503 127.108 69.788 126.393 69.3507 125.54L55.2487 97.2608L82.2415 102.374Z" fill="#ED7D2B"/>
<path d="M102.902 102.761L100.132 124.913C100.025 125.321 100.012 125.748 100.095 126.161C100.178 126.574 100.354 126.962 100.61 127.296C100.866 127.63 101.195 127.9 101.571 128.086C101.947 128.272 102.361 128.369 102.78 128.369H111.851C112.805 128.369 113.741 128.105 114.556 127.605C115.37 127.106 116.032 126.391 116.469 125.538L130.94 99.8558L102.902 102.761Z" fill="#ED7D2B"/>
<path d="M42.6713 91.0739C42.8807 91.0746 43.0893 91.0484 43.292 90.9959C44.9011 90.57 45.8213 88.6387 45.6972 85.9555C45.573 83.3253 44.4783 80.5478 42.6923 78.3357C41.9062 77.3614 40.9909 76.5001 39.9721 75.7757C40.491 74.9138 41.1704 74.1606 41.9731 73.5574C43.4557 72.4397 44.988 72.1175 46.6569 72.5723C51.1429 73.7969 54.9446 80.2428 55.2526 80.9674C55.3222 81.1537 55.4615 81.3053 55.6408 81.3898C55.82 81.4743 56.025 81.485 56.212 81.4197C56.399 81.3543 56.5532 81.2181 56.6417 81.04C56.7302 80.862 56.7459 80.6562 56.6856 80.4666C56.5521 80.0642 55.4442 78.1399 53.8925 76.2344C51.1918 72.9131 48.8386 71.6542 47.3396 71.1839C45.1168 70.4819 43.0049 70.8719 41.0645 72.3375C40.1131 73.0519 39.3063 73.9425 38.6873 74.9614C37.0825 74.075 35.3367 73.4756 33.5279 73.19C33.3294 73.1572 33.1261 73.205 32.9627 73.3229C32.7993 73.4408 32.6892 73.6192 32.6566 73.8187C32.624 74.0182 32.6715 74.2226 32.7888 74.3869C32.9061 74.5511 33.0835 74.6619 33.2819 74.6946C34.9371 74.9554 36.5338 75.5067 37.9991 76.3233C37.5559 77.4188 37.2827 78.5763 37.1891 79.7553C36.9816 82.384 37.4632 85.0214 38.5857 87.4047C39.7184 89.7525 41.2073 91.0739 42.6713 91.0739ZM39.301 77.168C40.1258 77.7797 40.8701 78.4942 41.5161 79.2943C43.1019 81.2599 44.0764 83.713 44.1835 86.0249C44.2696 87.8603 43.7466 89.3009 42.9095 89.5185C42.0723 89.7362 40.8488 88.5997 39.9543 86.7394C38.9744 84.7028 38.5057 82.1374 38.7005 79.8863C38.7762 78.9569 38.9783 78.0423 39.301 77.168ZM55.2479 80.9463L55.2526 80.9596C55.2504 80.9552 55.2488 80.9504 55.2479 80.9456V80.9463Z" fill="#ED7D2B"/>
<path d="M90.7751 50.9553C91.0113 51.1386 91.2573 51.3086 91.5122 51.4646C91.6123 51.5262 91.7139 51.5847 91.8171 51.6425C92.0761 51.7872 92.3429 51.9174 92.6162 52.0325L92.849 51.9927C93.3409 51.91 93.8273 51.8367 94.3045 51.7649C94.5411 51.7306 94.7762 51.6978 95.0082 51.6674C95.9865 51.5364 96.9277 51.4334 97.8207 51.3507C98.0612 51.3273 98.2978 51.3071 98.5321 51.2876L99.0799 51.2447C99.5213 51.2119 99.9488 51.1846 100.359 51.1612C100.945 50.7445 101.473 50.2502 101.927 49.6917C102.676 48.7729 103.215 47.6998 103.505 46.5485C103.795 45.3971 103.831 44.1957 103.608 43.0292C103.385 41.8627 102.91 40.7597 102.216 39.7984C101.522 38.837 100.627 38.0407 99.5927 37.466C99.4903 37.409 99.3871 37.3536 99.2824 37.3029C97.4928 36.4101 95.4369 36.2181 93.5143 36.7641C91.5917 37.3101 89.9396 38.5553 88.8792 40.2575C87.8188 41.9598 87.4258 43.9976 87.7764 45.9749C88.1271 47.9522 89.1964 49.7279 90.7767 50.9568L90.7751 50.9553Z" fill="#FFB93E"/>
<path d="M89.339 41.1359C89.8921 40.1247 90.6772 39.2607 91.6291 38.6157C92.581 37.9707 93.6722 37.5634 94.8121 37.4275C95.952 37.2916 97.1077 37.4311 98.1833 37.8344C99.2588 38.2377 100.223 38.8931 100.996 39.7463C101.769 40.5994 102.328 41.6257 102.628 42.7398C102.927 43.854 102.957 45.0238 102.717 46.1522C102.476 47.2806 101.971 48.3349 101.244 49.2277C100.516 50.1204 99.5875 50.8258 98.5345 51.2853C98.3017 51.3048 98.0635 51.3251 97.823 51.3485C99.3494 50.8503 100.66 49.8413 101.536 48.4896C102.412 47.1379 102.801 45.5251 102.638 43.9201C102.475 42.3151 101.77 40.8147 100.64 39.6691C99.5095 38.5235 98.0231 37.8018 96.428 37.6243C94.833 37.4468 93.2256 37.8243 91.8737 38.6937C90.5219 39.5632 89.5073 40.8722 88.999 42.4025C88.4907 43.9328 88.5194 45.5921 89.0803 47.1037C89.6413 48.6153 90.7006 49.888 92.0817 50.7097C92.1437 50.7463 92.2066 50.7822 92.2694 50.8181C93.1155 51.2863 94.0487 51.5736 95.0105 51.662C94.7778 51.6925 94.545 51.7252 94.3068 51.7595C93.56 51.6167 92.8404 51.3558 92.1748 50.9866C92.0437 50.914 91.9164 50.8376 91.7915 50.7588C90.2438 49.7677 89.1292 48.2217 88.6737 46.4346C88.2183 44.6475 88.4561 42.7532 89.339 41.1359Z" fill="#FFA412"/>
<path d="M92.1096 45.344C92.2168 45.0458 92.3902 44.7761 92.6168 44.5555C92.8433 44.3349 93.117 44.1692 93.4169 44.0711C93.7328 43.9647 94.0617 43.9023 94.3945 43.8854C94.7545 43.8628 95.1447 43.8573 95.5676 43.8698C95.7911 43.8785 96.0149 43.8738 96.2379 43.8558C96.399 43.8444 96.5576 43.8098 96.7088 43.7528C96.829 43.7065 96.9368 43.6329 97.0238 43.5375C97.1092 43.4396 97.177 43.3274 97.224 43.206C97.2757 43.082 97.3063 42.9502 97.3148 42.816C97.3234 42.6913 97.3037 42.5662 97.2574 42.4502C97.2071 42.3282 97.1305 42.219 97.0331 42.1304C96.913 42.0219 96.7738 41.9367 96.6227 41.8793C96.4844 41.8157 96.3339 41.7836 96.1819 41.785C96.0298 41.7865 95.8799 41.8216 95.7429 41.8878C95.4713 42.021 95.2495 42.2997 95.0772 42.724L93.4371 42.0548C93.5643 41.7277 93.7461 41.4248 93.9747 41.1593C94.1761 40.9252 94.4221 40.734 94.6982 40.5971C94.9743 40.4602 95.275 40.3803 95.5823 40.3622C95.9159 40.341 96.2506 40.3753 96.5731 40.4636L97.0386 39.3138L97.9463 39.6843L97.4886 40.8177C97.7946 40.9736 98.0755 41.175 98.3218 41.4152C98.539 41.6273 98.7168 41.8767 98.8471 42.1515C98.969 42.4119 99.0348 42.6952 99.0403 42.983C99.0358 43.625 98.7793 44.2392 98.3265 44.6919C98.1047 44.8951 97.8431 45.0492 97.5584 45.1443C97.2425 45.2484 96.9138 45.3082 96.5816 45.3222C96.1898 45.3428 95.7972 45.3428 95.4054 45.3222C95.1922 45.3082 94.9783 45.3098 94.7653 45.3269C94.6061 45.3399 94.4494 45.3751 94.2998 45.4314C94.1748 45.4802 94.0626 45.557 93.9716 45.656C93.8772 45.7642 93.8026 45.8883 93.7513 46.0226C93.7001 46.1462 93.6737 46.2787 93.6737 46.4126C93.6742 46.5418 93.7045 46.6692 93.7621 46.7847C93.8259 46.9108 93.9143 47.0228 94.022 47.1138C94.1537 47.2243 94.3026 47.3121 94.4627 47.3736C94.617 47.437 94.7791 47.4793 94.9445 47.4992C95.108 47.5205 95.2742 47.5036 95.4302 47.45C95.5986 47.391 95.7505 47.2923 95.8732 47.1622C96.0302 46.9931 96.1521 46.7942 96.2317 46.5772L97.8726 47.2464C97.7309 47.625 97.5108 47.969 97.2271 48.2558C96.9846 48.4936 96.6933 48.6751 96.3737 48.7877C96.0622 48.8972 95.7328 48.9462 95.4031 48.932C95.066 48.918 94.732 48.8625 94.4084 48.7667L93.9856 49.8158L93.0825 49.4476L93.5084 48.3938C93.2016 48.237 92.9181 48.038 92.6659 47.8026C92.4447 47.5954 92.263 47.3493 92.1297 47.0764C92.0059 46.8179 91.9385 46.5357 91.9319 46.2488C91.9272 45.938 91.9878 45.6297 92.1096 45.344Z" fill="#FFA412"/>
<path d="M130.027 123.111C124.766 117.822 124.766 109.247 130.027 103.958C135.288 98.6691 143.817 98.6691 149.078 103.958C154.339 109.247 154.339 117.822 149.078 123.111C143.817 128.4 135.288 128.4 130.027 123.111Z" fill="#E2810E"/>
<path d="M133.575 125.67C133.741 125.774 133.91 125.872 134.081 125.966C134.139 125.998 134.197 126.03 134.256 126.06C134.388 126.132 134.521 126.2 134.655 126.267C137.687 127.761 141.167 128.057 144.405 127.095C147.644 126.133 150.405 123.984 152.141 121.072C153.878 118.161 154.464 114.7 153.784 111.375C153.103 108.05 151.205 105.103 148.465 103.118C148.025 102.799 147.566 102.508 147.091 102.244C146.917 102.148 146.743 102.056 146.568 101.97C146.398 101.885 146.227 101.804 146.056 101.727C145.534 101.493 144.998 101.294 144.451 101.129C143.655 100.887 142.839 100.722 142.012 100.634C138.968 100.309 135.904 101.035 133.325 102.693C130.747 104.352 128.807 106.844 127.825 109.759C126.843 112.674 126.877 115.838 127.923 118.731C128.969 121.623 130.963 124.071 133.577 125.672L133.575 125.67Z" fill="#FFB93E"/>
<path d="M140.487 126.386C141.628 126.385 142.763 126.222 143.859 125.902C146.152 125.235 148.197 123.9 149.736 122.064C151.274 120.229 152.236 117.976 152.501 115.591C152.765 113.205 152.321 110.795 151.223 108.664C150.124 106.532 148.422 104.776 146.332 103.618C140.503 100.388 133.147 102.526 129.934 108.387C126.721 114.248 128.848 121.642 134.678 124.872C136.455 125.863 138.454 126.384 140.487 126.386ZM140.525 102.44C142.315 102.443 144.082 102.858 145.688 103.653C147.295 104.447 148.7 105.601 149.795 107.025C150.891 108.449 151.648 110.107 152.008 111.87C152.369 113.634 152.323 115.457 151.875 117.2C151.427 118.943 150.589 120.56 149.424 121.927C148.259 123.295 146.799 124.376 145.154 125.089C143.51 125.802 141.725 126.127 139.936 126.04C138.148 125.953 136.403 125.456 134.834 124.587C129.163 121.443 127.093 114.248 130.219 108.546C131.236 106.694 132.729 105.151 134.541 104.077C136.354 103.003 138.42 102.437 140.525 102.44Z" fill="#FFA412"/>
<path d="M134.568 115.424C134.595 115.357 134.623 115.293 134.652 115.229C134.843 114.787 135.121 114.389 135.469 114.059C135.841 113.719 136.279 113.46 136.755 113.298C137.283 113.12 137.833 113.015 138.389 112.986C138.99 112.949 139.645 112.94 140.352 112.961C140.726 112.975 141.1 112.968 141.473 112.938C141.743 112.918 142.008 112.86 142.262 112.764C142.463 112.687 142.643 112.565 142.788 112.405C142.931 112.241 143.044 112.054 143.124 111.851C143.21 111.644 143.263 111.424 143.279 111.199C143.292 110.991 143.26 110.781 143.183 110.587C143.098 110.383 142.97 110.2 142.807 110.052C142.606 109.871 142.373 109.728 142.12 109.632C141.594 109.417 141.103 109.422 140.646 109.646C140.19 109.869 139.819 110.336 139.534 111.046L136.789 109.926C137.001 109.379 137.305 108.872 137.687 108.428C138.024 108.036 138.436 107.716 138.898 107.486C139.36 107.257 139.863 107.124 140.378 107.094C140.935 107.058 141.495 107.116 142.034 107.264L142.81 105.339L144.329 105.959L143.563 107.857C144.075 108.117 144.546 108.453 144.959 108.855C145.321 109.209 145.617 109.626 145.834 110.084C146.037 110.52 146.147 110.994 146.156 111.476C146.162 111.984 146.064 112.489 145.867 112.958C145.634 113.537 145.332 113.996 144.962 114.334C144.592 114.674 144.154 114.932 143.678 115.091C143.149 115.265 142.599 115.365 142.043 115.389C141.387 115.422 140.731 115.422 140.075 115.389C139.719 115.365 139.361 115.367 139.005 115.396C138.736 115.416 138.472 115.475 138.22 115.571C138.011 115.653 137.823 115.781 137.671 115.947C137.513 116.127 137.387 116.335 137.301 116.56C137.215 116.767 137.17 116.989 137.17 117.214C137.17 117.431 137.22 117.644 137.316 117.838C137.424 118.047 137.572 118.233 137.752 118.384C137.973 118.569 138.222 118.716 138.489 118.819C138.747 118.925 139.018 118.995 139.295 119.03C139.568 119.065 139.846 119.038 140.108 118.952C140.389 118.852 140.643 118.687 140.85 118.47C141.112 118.186 141.316 117.854 141.45 117.491L144.193 118.611C143.908 119.32 143.548 119.882 143.114 120.297C142.711 120.695 142.226 120.999 141.693 121.189C141.174 121.369 140.626 121.448 140.078 121.423C139.514 121.4 138.955 121.307 138.413 121.146L137.704 122.902L136.194 122.286L136.907 120.522C136.394 120.26 135.92 119.927 135.498 119.533C135.153 119.212 134.865 118.835 134.645 118.417C134.628 118.384 134.612 118.352 134.597 118.319C134.39 117.886 134.277 117.414 134.266 116.934C134.261 116.415 134.364 115.901 134.568 115.424Z" fill="#FFA412"/>
<path d="M81.938 53.7071C81.9927 53.8834 82.1148 54.0308 82.2774 54.1166C82.4401 54.2025 82.63 54.2199 82.8055 54.165C86.3015 53.0683 90.0046 52.3429 93.6581 51.9209C97.667 51.4576 101.76 51.3671 103.687 51.5028C103.779 51.5109 103.872 51.5004 103.96 51.4718C104.048 51.4433 104.129 51.3974 104.199 51.3368C104.269 51.2761 104.326 51.202 104.367 51.1188C104.409 51.0356 104.433 50.945 104.438 50.8522C104.444 50.7595 104.431 50.6665 104.401 50.5788C104.37 50.4911 104.323 50.4104 104.261 50.3415C104.199 50.2726 104.124 50.2169 104.04 50.1777C103.956 50.1384 103.865 50.1164 103.773 50.1129C100.777 49.9335 96.5645 50.1698 93.3827 50.5466C89.7362 50.9787 85.9609 51.7165 82.3935 52.8351C82.2181 52.89 82.0716 53.0127 81.9862 53.1763C81.9007 53.3398 81.8834 53.5308 81.938 53.7071Z" fill="#2B478B"/>
<path d="M38.754 109.913C38.8137 109.784 38.8896 109.663 38.9798 109.553C39.0462 109.472 39.1197 109.397 39.1994 109.33L39.5307 108.992L39.6183 109.056C41.3143 108.221 44.8165 109.107 48.3614 111.433C52.6442 114.241 55.3938 118.114 54.6009 120.169L54.7219 120.258L54.2455 120.735C54.223 120.759 54.199 120.782 54.1749 120.806L54.1617 120.819H54.1571C54.0327 120.933 53.8942 121.029 53.7451 121.107C52.07 121.989 48.5298 121.107 44.9469 118.76C40.5827 115.902 37.8106 111.939 38.754 109.913Z" fill="#FFA412"/>
<path d="M48.872 110.919C44.5086 108.055 40.2072 107.375 39.263 109.401C38.3188 111.426 41.0917 115.39 45.4551 118.254C49.8185 121.118 54.1198 121.796 55.0633 119.772C56.0067 117.747 53.2346 113.782 48.872 110.919Z" fill="#FFB93E"/>
<path d="M52.004 120.074C52.3283 120.079 52.6515 120.038 52.9645 119.953C53.5076 119.797 53.8862 119.492 54.0864 119.052C54.4798 118.19 54.1159 116.91 53.0607 115.447C52.0296 114.018 50.4562 112.568 48.6298 111.366C45.8251 109.52 42.9723 108.628 41.3624 109.094C40.8193 109.25 40.4407 109.554 40.2397 109.994C39.8464 110.856 40.211 112.137 41.2662 113.599C42.2973 115.028 43.8707 116.478 45.6971 117.68C48.0068 119.201 50.3499 120.074 52.004 120.074ZM42.312 109.295C43.894 109.295 46.2177 110.163 48.4545 111.635C50.249 112.816 51.7907 114.237 52.7993 115.635C53.7691 116.98 54.1314 118.177 53.7931 118.918C53.6333 119.268 53.3276 119.512 52.8738 119.642C52.5931 119.718 52.3032 119.755 52.0126 119.751C50.4298 119.751 48.1061 118.882 45.8701 117.411C44.0756 116.229 42.5339 114.808 41.5253 113.41C40.5547 112.065 40.1924 110.869 40.5307 110.128C40.6905 109.777 41.0001 109.533 41.4509 109.402C41.7316 109.327 42.0214 109.29 42.312 109.295Z" fill="#FFA412"/>
<path d="M48.9207 115.63C48.7956 115.575 48.6754 115.51 48.5615 115.435C48.4555 115.363 48.3579 115.28 48.2706 115.186C48.1768 115.085 48.0921 114.975 48.0176 114.859C47.9299 114.721 47.8501 114.579 47.7787 114.432C47.638 114.152 47.4939 113.892 47.3465 113.652C47.2012 113.412 47.0353 113.186 46.8508 112.975C46.6625 112.763 46.4526 112.572 46.2246 112.404C45.9679 112.218 45.6916 112.061 45.4007 111.936C45.1663 111.826 44.9188 111.747 44.6644 111.702C44.4788 111.667 44.2878 111.673 44.105 111.721C43.9585 111.762 43.8301 111.852 43.7404 111.975C43.6459 112.117 43.5954 112.283 43.5953 112.454L42.5657 111.999L42.6192 112.556L43.6628 113.017C43.7265 113.246 43.8237 113.464 43.9514 113.664C44.0939 113.889 44.2621 114.097 44.4526 114.283C44.6671 114.491 44.9009 114.678 45.1509 114.842C45.4292 115.025 45.7225 115.184 46.0276 115.318L45.9306 114.311C45.6069 114.18 45.309 113.993 45.0508 113.757C44.8491 113.558 44.7389 113.363 44.7203 113.17C44.7063 113.087 44.72 113.002 44.7591 112.929C44.7768 112.9 44.8002 112.876 44.8277 112.858C44.8552 112.839 44.8863 112.826 44.9189 112.82C45.0043 112.806 45.0917 112.809 45.1757 112.83C45.2887 112.857 45.3989 112.895 45.5047 112.943C45.6179 112.992 45.7267 113.051 45.8297 113.12C45.9314 113.187 46.0248 113.265 46.1083 113.354C46.2024 113.455 46.2871 113.565 46.3612 113.682C46.4388 113.808 46.528 113.957 46.6188 114.131C46.7657 114.411 46.9136 114.673 47.0626 114.915C47.2094 115.155 47.3768 115.381 47.563 115.592C47.7518 115.804 47.9625 115.996 48.1914 116.164C48.4463 116.35 48.7208 116.507 49.01 116.632C49.2488 116.743 49.501 116.821 49.7602 116.866C49.9448 116.901 50.1347 116.893 50.3157 116.843C50.4603 116.8 50.5851 116.707 50.668 116.58C50.7569 116.434 50.8044 116.266 50.8053 116.095L51.7627 116.518L51.7092 115.964L50.7564 115.544C50.7024 115.321 50.6213 115.105 50.5151 114.902C50.3887 114.662 50.2323 114.44 50.0496 114.24C49.8341 114.002 49.5935 113.788 49.3319 113.603C49.0183 113.38 48.6823 113.191 48.3295 113.039L48.4265 114.046C48.6282 114.133 48.821 114.238 49.0022 114.362C49.1424 114.458 49.2708 114.57 49.3847 114.696C49.474 114.794 49.547 114.906 49.6012 115.027C49.6439 115.123 49.6716 115.226 49.6834 115.331C49.6966 115.419 49.6845 115.509 49.6485 115.591C49.616 115.653 49.5602 115.7 49.4933 115.722C49.4121 115.746 49.3262 115.749 49.2435 115.731C49.1321 115.711 49.0237 115.677 48.9207 115.63Z" fill="#FFA412"/>
<path d="M98.972 16.016C98.9338 15.934 98.8859 15.857 98.8292 15.7867C98.7873 15.7352 98.7408 15.6877 98.6903 15.6447L98.4793 15.4302L98.4242 15.4708C97.3481 14.9412 95.1253 15.5028 92.8761 16.9785C90.1606 18.7624 88.4141 21.2186 88.9192 22.5243L88.8416 22.5813L89.1442 22.8839C89.159 22.8995 89.1737 22.9143 89.1892 22.9284L89.1978 22.9369C89.2768 23.0088 89.3646 23.0702 89.4592 23.1195C90.5221 23.6795 92.769 23.1195 95.0454 21.6304C97.8082 19.8138 99.5694 17.2991 98.972 16.016Z" fill="#FFA412"/>
<path d="M92.551 16.6516C95.3192 14.8342 98.0487 14.4029 98.6477 15.6883C99.2466 16.9738 97.4839 19.4885 94.7187 21.3043C91.9536 23.1202 89.2203 23.5523 88.6221 22.2669C88.0239 20.9814 89.782 18.4683 92.551 16.6516Z" fill="#FFB93E"/>
<path d="M94.5651 20.9417C95.7243 20.1789 96.7228 19.2592 97.3768 18.3529C98.0464 17.4247 98.2776 16.6119 98.0278 16.0644C97.9005 15.7859 97.6608 15.5964 97.3156 15.4934C96.2938 15.1978 94.4837 15.7641 92.7039 16.9356C91.5455 17.6985 90.547 18.6181 89.8929 19.5244C89.2234 20.4526 88.9922 21.2654 89.2412 21.813C89.3685 22.0914 89.6082 22.281 89.9535 22.3839C90.1521 22.4384 90.3574 22.4647 90.5633 22.4619C91.6122 22.4611 93.0996 21.9073 94.5651 20.9417ZM97.2597 15.69C97.5452 15.7726 97.7415 15.9279 97.8431 16.1502C98.058 16.6182 97.8276 17.3794 97.2124 18.2328C96.5723 19.1196 95.5924 20.0213 94.4542 20.7709C93.0344 21.7069 91.5603 22.2568 90.5563 22.2529C90.373 22.2556 90.1902 22.2325 90.0132 22.1842C89.7269 22.1016 89.5306 21.9502 89.429 21.7248C89.2149 21.2568 89.4445 20.4948 90.0605 19.6414C90.6998 18.7546 91.6797 17.8529 92.8187 17.1033C94.2377 16.1673 95.7119 15.6213 96.7158 15.6213C96.8994 15.619 97.0824 15.6421 97.2597 15.69Z" fill="#FFA412"/>
<path d="M92.3128 19.7069C92.2601 19.7182 92.2054 19.7161 92.1538 19.7007C92.1118 19.6871 92.077 19.6574 92.0568 19.618C92.0335 19.5663 92.0259 19.5087 92.0351 19.4527C92.042 19.3861 92.0595 19.321 92.087 19.26C92.1211 19.183 92.1675 19.1121 92.2244 19.0502C92.2963 18.97 92.3776 18.8987 92.4664 18.838C92.5815 18.7594 92.7038 18.6923 92.8319 18.6376L92.8939 17.9987C92.67 18.095 92.4567 18.2148 92.2577 18.356C92.0917 18.4735 91.9389 18.609 91.8023 18.76C91.6869 18.8868 91.5883 19.0281 91.509 19.1804C91.4409 19.3093 91.3888 19.446 91.3539 19.5876L90.7495 19.8551L90.7161 20.2061L91.3228 19.9378C91.324 20.0463 91.3543 20.1525 91.4105 20.2451C91.463 20.3256 91.5422 20.3847 91.6339 20.4121C91.7487 20.4441 91.8692 20.4492 91.9862 20.4269C92.1507 20.3977 92.3108 20.3474 92.4626 20.2771C92.6459 20.1979 92.82 20.0985 92.9816 19.9807C93.1271 19.8743 93.2608 19.7524 93.3804 19.6172C93.4986 19.484 93.6048 19.3404 93.6977 19.1882C93.7924 19.0322 93.887 18.8684 93.9801 18.6906C94.0368 18.5806 94.0919 18.4855 94.1431 18.4059C94.1901 18.3317 94.2439 18.262 94.3037 18.1976C94.3566 18.1405 94.4159 18.0897 94.4806 18.0463C94.5461 18.0032 94.6151 17.9656 94.6869 17.934C94.7539 17.9033 94.8239 17.8795 94.8956 17.863C94.9486 17.8495 95.0039 17.8473 95.0578 17.8568C95.0785 17.8607 95.0981 17.8688 95.1156 17.8806C95.1331 17.8924 95.148 17.9076 95.1594 17.9254C95.1854 17.973 95.1942 18.0281 95.1843 18.0814C95.1604 18.2267 95.0862 18.3587 94.9748 18.4543C94.8106 18.6037 94.6215 18.7228 94.4162 18.806L94.3549 19.4441C94.5485 19.3596 94.7346 19.2586 94.9112 19.1422C95.0697 19.0386 95.2178 18.9198 95.3534 18.7873C95.4741 18.6702 95.5809 18.5393 95.6715 18.3973C95.7526 18.2706 95.8141 18.1323 95.8538 17.987L96.5164 17.6945L96.5505 17.3404L95.8973 17.629C95.8969 17.5212 95.8648 17.4159 95.8049 17.3264C95.748 17.2474 95.6658 17.1905 95.5722 17.1649C95.4561 17.1342 95.3347 17.13 95.2168 17.1524C95.0561 17.1816 94.8997 17.2311 94.7513 17.2999C94.567 17.3795 94.3919 17.4791 94.2292 17.597C94.0842 17.7033 93.951 17.8249 93.8319 17.9597C93.7145 18.0931 93.6091 18.2366 93.5169 18.3887C93.4228 18.5447 93.3313 18.7106 93.2423 18.8864C93.196 18.9799 93.1441 19.0705 93.0871 19.1578C93.04 19.2315 92.9862 19.3007 92.9265 19.3645C92.871 19.4234 92.8091 19.4757 92.7419 19.5205C92.6696 19.5687 92.5932 19.6104 92.5138 19.6453C92.4493 19.6734 92.3819 19.6941 92.3128 19.7069Z" fill="#FFA412"/>
</svg>
