<svg width="570" height="600" viewBox="0 0 570 600" fill="none" xmlns="http://www.w3.org/2000/svg">
<rect width="570" height="600" fill="#F5F5F5"/>
<g id="Final L.p">
<rect width="1440" height="3614" transform="translate(-730 -156)" fill="white"/>
<g id="5760649-02 1">
<g clip-path="url(#clip0_1592_1518)">
<rect id="Rectangle 1" width="570" height="600" rx="20" fill="url(#paint0_linear_1592_1518)"/>
<path id="Vector" opacity="0.3" d="M373.29 71.26C373.29 71.26 364.49 56.86 350.89 57.66C337.29 58.46 332.49 67.26 328.49 73.66C324.49 80.06 322.89 76.06 312.49 72.86C302.09 69.66 297.29 75.26 294.89 80.86C292.49 86.46 293.29 82.46 283.69 80.86C274.09 79.26 273.85 84.98 267.69 88.06C262.69 90.57 261.6 90.68 256.06 89.17C249.15 87.3 246.89 88.86 245.29 92.06H407.57C407.57 92.06 404.49 79.26 397.29 76.06C390.09 72.86 380.49 79.26 373.29 71.26Z" stroke="white" stroke-width="2" stroke-miterlimit="10"/>
<path id="Vector_2" opacity="0.3" d="M87.11 103.33C87.11 103.33 82.21 95.33 74.64 95.76C67.07 96.19 64.4 101.11 62.17 104.67C59.94 108.23 59.06 106 53.27 104.22C47.48 102.44 44.81 105.56 43.47 108.67C42.13 111.78 42.58 109.56 37.24 108.67C31.9 107.78 31.76 110.97 28.33 112.67C25.55 114.07 24.95 114.13 21.86 113.29C18.02 112.29 16.76 113.12 15.86 114.9H106.17C106.17 114.9 104.46 107.77 100.45 105.99C96.44 104.21 91.11 107.78 87.11 103.33Z" stroke="white" stroke-width="2" stroke-miterlimit="10"/>
<path id="Vector_3" opacity="0.3" d="M398.64 108C398.64 108 396.09 103.82 392.14 104C388.19 104.18 386.81 106.79 385.65 108.64C384.49 110.49 384.03 109.34 381.01 108.41C377.99 107.48 376.6 109.11 375.91 110.73C375.22 112.35 375.44 111.19 372.66 110.73C369.88 110.27 369.81 111.93 368.02 112.82C367.532 113.156 366.966 113.361 366.377 113.417C365.787 113.473 365.193 113.378 364.65 113.14C362.65 112.6 361.99 113.05 361.53 113.98H408.58C408.58 113.98 407.68 110.27 405.58 109.34C403.48 108.41 400.73 110.3 398.64 108Z" stroke="white" stroke-width="2" stroke-miterlimit="10"/>
<g id="bg" opacity="0.3">
<path id="Vector_4" d="M-135 574.32H-98.11V240.73H-1.08V399.51H19.77V596.77H43.82V302.31H88.73V183H160.9V402.71H188.16V315.31H249.1V334.55H301.23V594.36H322.08V547.05H379.01V593.56H406.27V359.41H498.49V579.13H524.95V272.81H557.03V216.68H573.06V184.6H598.72V392.29H640.42V590.35H672.5" stroke="white" stroke-width="2" stroke-miterlimit="10"/>
<path id="Vector_5" d="M88.73 302.31H43.55V307.59H88.73V302.31Z" stroke="white" stroke-width="2" stroke-miterlimit="10"/>
<path id="Vector_6" d="M160.89 183H88.51V188.13H160.89V183Z" stroke="white" stroke-width="2" stroke-miterlimit="10"/>
<path id="Vector_7" d="M204.44 304.41H193.9V315.3H204.44V304.41Z" stroke="white" stroke-width="2" stroke-miterlimit="10"/>
<path id="Vector_8" d="M231.84 308.98H226.57V315.3H231.84V308.98Z" stroke="white" stroke-width="2" stroke-miterlimit="10"/>
<path id="Vector_9" d="M301.39 334.55H249.1V340.94H301.39V334.55Z" stroke="white" stroke-width="2" stroke-miterlimit="10"/>
<path id="Vector_10" d="M498.47 354.65H406.27V359.42H498.47V354.65Z" stroke="white" stroke-width="2" stroke-miterlimit="10"/>
<path id="Vector_11" d="M466.5 345.16H429.97V354.64H466.5V345.16Z" stroke="white" stroke-width="2" stroke-miterlimit="10"/>
<path id="Vector_12" d="M458.78 345.51V336.73H485.48V354.29" stroke="white" stroke-width="2" stroke-miterlimit="10"/>
<path id="Vector_13" d="M282.81 331.93V260.94H367.32V319.76H396.39V219.7H489.68V340.72H518.75" stroke="white" stroke-width="2" stroke-miterlimit="10"/>
<path id="Vector_14" d="M221.96 296.77V218.35H164.5" stroke="white" stroke-width="2" stroke-miterlimit="10"/>
<path id="Vector_15" d="M40.78 316.38H21.85V261.62H3.59998" stroke="white" stroke-width="2" stroke-miterlimit="10"/>
<path id="Vector_16" d="M547.15 262.29V236.61H555.26" stroke="white" stroke-width="2" stroke-miterlimit="10"/>
<path id="Vector_17" d="M101.45 198.07H94.1899V212.27H101.45V198.07Z" stroke="white" stroke-width="2" stroke-miterlimit="10"/>
<path id="Vector_18" d="M114.51 198.07H107.25V212.27H114.51V198.07Z" stroke="white" stroke-width="2" stroke-miterlimit="10"/>
<path id="Vector_19" d="M127.57 198.07H120.31V212.27H127.57V198.07Z" stroke="white" stroke-width="2" stroke-miterlimit="10"/>
<path id="Vector_20" d="M140.63 198.07H133.37V212.27H140.63V198.07Z" stroke="white" stroke-width="2" stroke-miterlimit="10"/>
<path id="Vector_21" d="M153.69 198.07H146.43V212.27H153.69V198.07Z" stroke="white" stroke-width="2" stroke-miterlimit="10"/>
<path id="Vector_22" d="M101.45 222.07H94.1899V236.27H101.45V222.07Z" stroke="white" stroke-width="2" stroke-miterlimit="10"/>
<path id="Vector_23" d="M114.51 222.07H107.25V236.27H114.51V222.07Z" stroke="white" stroke-width="2" stroke-miterlimit="10"/>
<path id="Vector_24" d="M127.57 222.07H120.31V236.27H127.57V222.07Z" stroke="white" stroke-width="2" stroke-miterlimit="10"/>
<path id="Vector_25" d="M140.63 222.07H133.37V236.27H140.63V222.07Z" stroke="white" stroke-width="2" stroke-miterlimit="10"/>
<path id="Vector_26" d="M153.69 222.07H146.43V236.27H153.69V222.07Z" stroke="white" stroke-width="2" stroke-miterlimit="10"/>
<path id="Vector_27" d="M101.45 246.07H94.1899V260.27H101.45V246.07Z" stroke="white" stroke-width="2" stroke-miterlimit="10"/>
<path id="Vector_28" d="M114.51 246.07H107.25V260.27H114.51V246.07Z" stroke="white" stroke-width="2" stroke-miterlimit="10"/>
<path id="Vector_29" d="M127.57 246.07H120.31V260.27H127.57V246.07Z" stroke="white" stroke-width="2" stroke-miterlimit="10"/>
<path id="Vector_30" d="M140.63 246.07H133.37V260.27H140.63V246.07Z" stroke="white" stroke-width="2" stroke-miterlimit="10"/>
<path id="Vector_31" d="M153.69 246.07H146.43V260.27H153.69V246.07Z" stroke="white" stroke-width="2" stroke-miterlimit="10"/>
<path id="Vector_32" d="M101.45 270.07H94.1899V284.27H101.45V270.07Z" stroke="white" stroke-width="2" stroke-miterlimit="10"/>
<path id="Vector_33" d="M114.51 270.07H107.25V284.27H114.51V270.07Z" stroke="white" stroke-width="2" stroke-miterlimit="10"/>
<path id="Vector_34" d="M127.57 270.07H120.31V284.27H127.57V270.07Z" stroke="white" stroke-width="2" stroke-miterlimit="10"/>
<path id="Vector_35" d="M140.63 270.07H133.37V284.27H140.63V270.07Z" stroke="white" stroke-width="2" stroke-miterlimit="10"/>
<path id="Vector_36" d="M153.69 270.07H146.43V284.27H153.69V270.07Z" stroke="white" stroke-width="2" stroke-miterlimit="10"/>
<path id="Vector_37" d="M101.45 294.07H94.1899V308.27H101.45V294.07Z" stroke="white" stroke-width="2" stroke-miterlimit="10"/>
<path id="Vector_38" d="M114.51 294.07H107.25V308.27H114.51V294.07Z" stroke="white" stroke-width="2" stroke-miterlimit="10"/>
<path id="Vector_39" d="M127.57 294.07H120.31V308.27H127.57V294.07Z" stroke="white" stroke-width="2" stroke-miterlimit="10"/>
<path id="Vector_40" d="M140.63 294.07H133.37V308.27H140.63V294.07Z" stroke="white" stroke-width="2" stroke-miterlimit="10"/>
<path id="Vector_41" d="M153.69 294.07H146.43V308.27H153.69V294.07Z" stroke="white" stroke-width="2" stroke-miterlimit="10"/>
<path id="Vector_42" d="M101.45 318.07H94.1899V332.27H101.45V318.07Z" stroke="white" stroke-width="2" stroke-miterlimit="10"/>
<path id="Vector_43" d="M114.51 318.07H107.25V332.27H114.51V318.07Z" stroke="white" stroke-width="2" stroke-miterlimit="10"/>
<path id="Vector_44" d="M127.57 318.07H120.31V332.27H127.57V318.07Z" stroke="white" stroke-width="2" stroke-miterlimit="10"/>
<path id="Vector_45" d="M140.63 318.07H133.37V332.27H140.63V318.07Z" stroke="white" stroke-width="2" stroke-miterlimit="10"/>
<path id="Vector_46" d="M153.69 318.07H146.43V332.27H153.69V318.07Z" stroke="white" stroke-width="2" stroke-miterlimit="10"/>
<path id="Vector_47" d="M56.93 318.07H49.67V332.27H56.93V318.07Z" stroke="white" stroke-width="2" stroke-miterlimit="10"/>
<path id="Vector_48" d="M69.98 318.07H62.72V332.27H69.98V318.07Z" stroke="white" stroke-width="2" stroke-miterlimit="10"/>
<path id="Vector_49" d="M83.04 318.07H75.78V332.27H83.04V318.07Z" stroke="white" stroke-width="2" stroke-miterlimit="10"/>
<path id="Vector_50" d="M56.93 341.39H49.67V355.59H56.93V341.39Z" stroke="white" stroke-width="2" stroke-miterlimit="10"/>
<path id="Vector_51" d="M69.98 341.39H62.72V355.59H69.98V341.39Z" stroke="white" stroke-width="2" stroke-miterlimit="10"/>
<path id="Vector_52" d="M83.04 341.39H75.78V355.59H83.04V341.39Z" stroke="white" stroke-width="2" stroke-miterlimit="10"/>
<path id="Vector_53" d="M56.93 364.72H49.67V378.92H56.93V364.72Z" stroke="white" stroke-width="2" stroke-miterlimit="10"/>
<path id="Vector_54" d="M69.98 364.72H62.72V378.92H69.98V364.72Z" stroke="white" stroke-width="2" stroke-miterlimit="10"/>
<path id="Vector_55" d="M83.04 364.72H75.78V378.92H83.04V364.72Z" stroke="white" stroke-width="2" stroke-miterlimit="10"/>
<path id="Vector_56" d="M56.93 388.04H49.67V402.24H56.93V388.04Z" stroke="white" stroke-width="2" stroke-miterlimit="10"/>
<path id="Vector_57" d="M69.98 388.04H62.72V402.24H69.98V388.04Z" stroke="white" stroke-width="2" stroke-miterlimit="10"/>
<path id="Vector_58" d="M83.04 388.04H75.78V402.24H83.04V388.04Z" stroke="white" stroke-width="2" stroke-miterlimit="10"/>
<path id="Vector_59" d="M56.93 411.37H49.67V425.57H56.93V411.37Z" stroke="white" stroke-width="2" stroke-miterlimit="10"/>
<path id="Vector_60" d="M69.98 411.37H62.72V425.57H69.98V411.37Z" stroke="white" stroke-width="2" stroke-miterlimit="10"/>
<path id="Vector_61" d="M83.04 411.37H75.78V425.57H83.04V411.37Z" stroke="white" stroke-width="2" stroke-miterlimit="10"/>
<path id="Vector_62" d="M56.93 434.69H49.67V448.89H56.93V434.69Z" stroke="white" stroke-width="2" stroke-miterlimit="10"/>
<path id="Vector_63" d="M69.98 434.69H62.72V448.89H69.98V434.69Z" stroke="white" stroke-width="2" stroke-miterlimit="10"/>
<path id="Vector_64" d="M83.04 434.69H75.78V448.89H83.04V434.69Z" stroke="white" stroke-width="2" stroke-miterlimit="10"/>
<path id="Vector_65" d="M56.93 458.01H49.67V472.21H56.93V458.01Z" stroke="white" stroke-width="2" stroke-miterlimit="10"/>
<path id="Vector_66" d="M69.98 458.01H62.72V472.21H69.98V458.01Z" stroke="white" stroke-width="2" stroke-miterlimit="10"/>
<path id="Vector_67" d="M83.04 458.01H75.78V472.21H83.04V458.01Z" stroke="white" stroke-width="2" stroke-miterlimit="10"/>
<path id="Vector_68" d="M56.93 481.34H49.67V495.54H56.93V481.34Z" stroke="white" stroke-width="2" stroke-miterlimit="10"/>
<path id="Vector_69" d="M69.98 481.34H62.72V495.54H69.98V481.34Z" stroke="white" stroke-width="2" stroke-miterlimit="10"/>
<path id="Vector_70" d="M83.04 481.34H75.78V495.54H83.04V481.34Z" stroke="white" stroke-width="2" stroke-miterlimit="10"/>
<path id="Vector_71" d="M56.93 504.66H49.67V518.86H56.93V504.66Z" stroke="white" stroke-width="2" stroke-miterlimit="10"/>
<path id="Vector_72" d="M69.98 504.66H62.72V518.86H69.98V504.66Z" stroke="white" stroke-width="2" stroke-miterlimit="10"/>
<path id="Vector_73" d="M83.04 504.66H75.78V518.86H83.04V504.66Z" stroke="white" stroke-width="2" stroke-miterlimit="10"/>
<path id="Vector_74" d="M56.93 527.99H49.67V542.19H56.93V527.99Z" stroke="white" stroke-width="2" stroke-miterlimit="10"/>
<path id="Vector_75" d="M69.98 527.99H62.72V542.19H69.98V527.99Z" stroke="white" stroke-width="2" stroke-miterlimit="10"/>
<path id="Vector_76" d="M83.04 527.99H75.78V542.19H83.04V527.99Z" stroke="white" stroke-width="2" stroke-miterlimit="10"/>
<path id="Vector_77" d="M56.93 551.31H49.67V565.51H56.93V551.31Z" stroke="white" stroke-width="2" stroke-miterlimit="10"/>
<path id="Vector_78" d="M69.98 551.31H62.72V565.51H69.98V551.31Z" stroke="white" stroke-width="2" stroke-miterlimit="10"/>
<path id="Vector_79" d="M83.04 551.31H75.78V565.51H83.04V551.31Z" stroke="white" stroke-width="2" stroke-miterlimit="10"/>
<path id="Vector_80" d="M173.37 414.07H166.11V428.27H173.37V414.07Z" stroke="white" stroke-width="2" stroke-miterlimit="10"/>
<path id="Vector_81" d="M186.43 414.07H179.17V428.27H186.43V414.07Z" stroke="white" stroke-width="2" stroke-miterlimit="10"/>
<path id="Vector_82" d="M173.37 437.39H166.11V451.59H173.37V437.39Z" stroke="white" stroke-width="2" stroke-miterlimit="10"/>
<path id="Vector_83" d="M186.43 437.39H179.17V451.59H186.43V437.39Z" stroke="white" stroke-width="2" stroke-miterlimit="10"/>
<path id="Vector_84" d="M173.37 460.72H166.11V474.92H173.37V460.72Z" stroke="white" stroke-width="2" stroke-miterlimit="10"/>
<path id="Vector_85" d="M186.43 460.72H179.17V474.92H186.43V460.72Z" stroke="white" stroke-width="2" stroke-miterlimit="10"/>
<path id="Vector_86" d="M173.37 484.04H166.11V498.24H173.37V484.04Z" stroke="white" stroke-width="2" stroke-miterlimit="10"/>
<path id="Vector_87" d="M186.43 484.04H179.17V498.24H186.43V484.04Z" stroke="white" stroke-width="2" stroke-miterlimit="10"/>
<path id="Vector_88" d="M173.37 507.37H166.11V521.57H173.37V507.37Z" stroke="white" stroke-width="2" stroke-miterlimit="10"/>
<path id="Vector_89" d="M186.43 507.37H179.17V521.57H186.43V507.37Z" stroke="white" stroke-width="2" stroke-miterlimit="10"/>
<path id="Vector_90" d="M173.37 530.69H166.11V544.89H173.37V530.69Z" stroke="white" stroke-width="2" stroke-miterlimit="10"/>
<path id="Vector_91" d="M186.43 530.69H179.17V544.89H186.43V530.69Z" stroke="white" stroke-width="2" stroke-miterlimit="10"/>
<path id="Vector_92" d="M173.37 554.01H166.11V568.21H173.37V554.01Z" stroke="white" stroke-width="2" stroke-miterlimit="10"/>
<path id="Vector_93" d="M186.43 554.01H179.17V568.21H186.43V554.01Z" stroke="white" stroke-width="2" stroke-miterlimit="10"/>
<path id="Vector_94" d="M101.45 342.07H94.1899V356.27H101.45V342.07Z" stroke="white" stroke-width="2" stroke-miterlimit="10"/>
<path id="Vector_95" d="M114.51 342.07H107.25V356.27H114.51V342.07Z" stroke="white" stroke-width="2" stroke-miterlimit="10"/>
<path id="Vector_96" d="M127.57 342.07H120.31V356.27H127.57V342.07Z" stroke="white" stroke-width="2" stroke-miterlimit="10"/>
<path id="Vector_97" d="M140.63 342.07H133.37V356.27H140.63V342.07Z" stroke="white" stroke-width="2" stroke-miterlimit="10"/>
<path id="Vector_98" d="M153.69 342.07H146.43V356.27H153.69V342.07Z" stroke="white" stroke-width="2" stroke-miterlimit="10"/>
<path id="Vector_99" d="M101.45 366.07H94.1899V380.27H101.45V366.07Z" stroke="white" stroke-width="2" stroke-miterlimit="10"/>
<path id="Vector_100" d="M114.51 366.07H107.25V380.27H114.51V366.07Z" stroke="white" stroke-width="2" stroke-miterlimit="10"/>
<path id="Vector_101" d="M127.57 366.07H120.31V380.27H127.57V366.07Z" stroke="white" stroke-width="2" stroke-miterlimit="10"/>
<path id="Vector_102" d="M140.63 366.07H133.37V380.27H140.63V366.07Z" stroke="white" stroke-width="2" stroke-miterlimit="10"/>
<path id="Vector_103" d="M153.69 366.07H146.43V380.27H153.69V366.07Z" stroke="white" stroke-width="2" stroke-miterlimit="10"/>
<path id="Vector_104" d="M101.45 390.07H94.1899V404.27H101.45V390.07Z" stroke="white" stroke-width="2" stroke-miterlimit="10"/>
<path id="Vector_105" d="M114.51 390.07H107.25V404.27H114.51V390.07Z" stroke="white" stroke-width="2" stroke-miterlimit="10"/>
<path id="Vector_106" d="M127.57 390.07H120.31V404.27H127.57V390.07Z" stroke="white" stroke-width="2" stroke-miterlimit="10"/>
<path id="Vector_107" d="M140.63 390.07H133.37V404.27H140.63V390.07Z" stroke="white" stroke-width="2" stroke-miterlimit="10"/>
<path id="Vector_108" d="M153.69 390.07H146.43V404.27H153.69V390.07Z" stroke="white" stroke-width="2" stroke-miterlimit="10"/>
<path id="Vector_109" d="M101.45 414.07H94.1899V428.27H101.45V414.07Z" stroke="white" stroke-width="2" stroke-miterlimit="10"/>
<path id="Vector_110" d="M114.51 414.07H107.25V428.27H114.51V414.07Z" stroke="white" stroke-width="2" stroke-miterlimit="10"/>
<path id="Vector_111" d="M127.57 414.07H120.31V428.27H127.57V414.07Z" stroke="white" stroke-width="2" stroke-miterlimit="10"/>
<path id="Vector_112" d="M140.63 414.07H133.37V428.27H140.63V414.07Z" stroke="white" stroke-width="2" stroke-miterlimit="10"/>
<path id="Vector_113" d="M153.69 414.07H146.43V428.27H153.69V414.07Z" stroke="white" stroke-width="2" stroke-miterlimit="10"/>
<path id="Vector_114" d="M101.45 438.07H94.1899V452.27H101.45V438.07Z" stroke="white" stroke-width="2" stroke-miterlimit="10"/>
<path id="Vector_115" d="M114.51 438.07H107.25V452.27H114.51V438.07Z" stroke="white" stroke-width="2" stroke-miterlimit="10"/>
<path id="Vector_116" d="M127.57 438.07H120.31V452.27H127.57V438.07Z" stroke="white" stroke-width="2" stroke-miterlimit="10"/>
<path id="Vector_117" d="M140.63 438.07H133.37V452.27H140.63V438.07Z" stroke="white" stroke-width="2" stroke-miterlimit="10"/>
<path id="Vector_118" d="M153.69 438.07H146.43V452.27H153.69V438.07Z" stroke="white" stroke-width="2" stroke-miterlimit="10"/>
<path id="Vector_119" d="M101.45 462.07H94.1899V476.27H101.45V462.07Z" stroke="white" stroke-width="2" stroke-miterlimit="10"/>
<path id="Vector_120" d="M114.51 462.07H107.25V476.27H114.51V462.07Z" stroke="white" stroke-width="2" stroke-miterlimit="10"/>
<path id="Vector_121" d="M127.57 462.07H120.31V476.27H127.57V462.07Z" stroke="white" stroke-width="2" stroke-miterlimit="10"/>
<path id="Vector_122" d="M140.63 462.07H133.37V476.27H140.63V462.07Z" stroke="white" stroke-width="2" stroke-miterlimit="10"/>
<path id="Vector_123" d="M153.69 462.07H146.43V476.27H153.69V462.07Z" stroke="white" stroke-width="2" stroke-miterlimit="10"/>
<path id="Vector_124" d="M101.45 486.07H94.1899V500.27H101.45V486.07Z" stroke="white" stroke-width="2" stroke-miterlimit="10"/>
<path id="Vector_125" d="M114.51 486.07H107.25V500.27H114.51V486.07Z" stroke="white" stroke-width="2" stroke-miterlimit="10"/>
<path id="Vector_126" d="M127.57 486.07H120.31V500.27H127.57V486.07Z" stroke="white" stroke-width="2" stroke-miterlimit="10"/>
<path id="Vector_127" d="M140.63 486.07H133.37V500.27H140.63V486.07Z" stroke="white" stroke-width="2" stroke-miterlimit="10"/>
<path id="Vector_128" d="M153.69 486.07H146.43V500.27H153.69V486.07Z" stroke="white" stroke-width="2" stroke-miterlimit="10"/>
<path id="Vector_129" d="M101.45 510.07H94.1899V524.27H101.45V510.07Z" stroke="white" stroke-width="2" stroke-miterlimit="10"/>
<path id="Vector_130" d="M114.51 510.07H107.25V524.27H114.51V510.07Z" stroke="white" stroke-width="2" stroke-miterlimit="10"/>
<path id="Vector_131" d="M127.57 510.07H120.31V524.27H127.57V510.07Z" stroke="white" stroke-width="2" stroke-miterlimit="10"/>
<path id="Vector_132" d="M140.63 510.07H133.37V524.27H140.63V510.07Z" stroke="white" stroke-width="2" stroke-miterlimit="10"/>
<path id="Vector_133" d="M153.69 510.07H146.43V524.27H153.69V510.07Z" stroke="white" stroke-width="2" stroke-miterlimit="10"/>
<path id="Vector_134" d="M101.45 534.07H94.1899V548.27H101.45V534.07Z" stroke="white" stroke-width="2" stroke-miterlimit="10"/>
<path id="Vector_135" d="M114.51 534.07H107.25V548.27H114.51V534.07Z" stroke="white" stroke-width="2" stroke-miterlimit="10"/>
<path id="Vector_136" d="M127.57 534.07H120.31V548.27H127.57V534.07Z" stroke="white" stroke-width="2" stroke-miterlimit="10"/>
<path id="Vector_137" d="M140.63 534.07H133.37V548.27H140.63V534.07Z" stroke="white" stroke-width="2" stroke-miterlimit="10"/>
<path id="Vector_138" d="M153.69 534.07H146.43V548.27H153.69V534.07Z" stroke="white" stroke-width="2" stroke-miterlimit="10"/>
<path id="Vector_139" d="M101.45 558.75H94.1899V572.95H101.45V558.75Z" stroke="white" stroke-width="2" stroke-miterlimit="10"/>
<path id="Vector_140" d="M114.51 558.75H107.25V572.95H114.51V558.75Z" stroke="white" stroke-width="2" stroke-miterlimit="10"/>
<path id="Vector_141" d="M127.57 558.75H120.31V572.95H127.57V558.75Z" stroke="white" stroke-width="2" stroke-miterlimit="10"/>
<path id="Vector_142" d="M140.63 558.75H133.37V572.95H140.63V558.75Z" stroke="white" stroke-width="2" stroke-miterlimit="10"/>
<path id="Vector_143" d="M153.69 558.75H146.43V572.95H153.69V558.75Z" stroke="white" stroke-width="2" stroke-miterlimit="10"/>
<path id="Vector_144" d="M88.73 307.59V596.94" stroke="white" stroke-width="2" stroke-miterlimit="10"/>
<path id="Vector_145" d="M199.65 321.11V592.89" stroke="white" stroke-width="2" stroke-miterlimit="10"/>
<path id="Vector_146" d="M213.85 321.11V592.89" stroke="white" stroke-width="2" stroke-miterlimit="10"/>
<path id="Vector_147" d="M228.05 321.11V592.89" stroke="white" stroke-width="2" stroke-miterlimit="10"/>
<path id="Vector_148" d="M242.25 321.11V592.89" stroke="white" stroke-width="2" stroke-miterlimit="10"/>
<path id="Vector_149" d="M256.44 348.15V592.89" stroke="white" stroke-width="2" stroke-miterlimit="10"/>
<path id="Vector_150" d="M270.64 348.15V592.89" stroke="white" stroke-width="2" stroke-miterlimit="10"/>
<path id="Vector_151" d="M284.84 348.15V592.89" stroke="white" stroke-width="2" stroke-miterlimit="10"/>
<path id="Vector_152" d="M525.51 304.89H545.12V314.35H525.51" stroke="white" stroke-width="2" stroke-miterlimit="10"/>
<path id="Vector_153" d="M525.51 330.58H545.12V340.04H525.51" stroke="white" stroke-width="2" stroke-miterlimit="10"/>
<path id="Vector_154" d="M525.51 356.27H545.12V365.73H525.51" stroke="white" stroke-width="2" stroke-miterlimit="10"/>
<path id="Vector_155" d="M525.51 381.96H545.12V391.42H525.51" stroke="white" stroke-width="2" stroke-miterlimit="10"/>
<path id="Vector_156" d="M525.51 407.65H545.12V417.11H525.51" stroke="white" stroke-width="2" stroke-miterlimit="10"/>
<path id="Vector_157" d="M525.51 433.34H545.12V442.8H525.51" stroke="white" stroke-width="2" stroke-miterlimit="10"/>
<path id="Vector_158" d="M525.51 459.03H545.12V468.49H525.51" stroke="white" stroke-width="2" stroke-miterlimit="10"/>
<path id="Vector_159" d="M525.51 484.72H545.12V494.18H525.51" stroke="white" stroke-width="2" stroke-miterlimit="10"/>
<path id="Vector_160" d="M525.51 510.41H545.12V519.87H525.51" stroke="white" stroke-width="2" stroke-miterlimit="10"/>
<path id="Vector_161" d="M525.51 536.1H545.12V545.56H525.51" stroke="white" stroke-width="2" stroke-miterlimit="10"/>
<path id="Vector_162" d="M494.41 366.41H409.23V374.52H494.41V366.41Z" stroke="white" stroke-width="2" stroke-miterlimit="10"/>
<path id="Vector_163" d="M494.41 380.61H409.23V388.72H494.41V380.61Z" stroke="white" stroke-width="2" stroke-miterlimit="10"/>
<path id="Vector_164" d="M494.41 394.8H409.23V402.91H494.41V394.8Z" stroke="white" stroke-width="2" stroke-miterlimit="10"/>
<path id="Vector_165" d="M494.41 409H409.23V417.11H494.41V409Z" stroke="white" stroke-width="2" stroke-miterlimit="10"/>
<path id="Vector_166" d="M494.41 423.2H409.23V431.31H494.41V423.2Z" stroke="white" stroke-width="2" stroke-miterlimit="10"/>
<path id="Vector_167" d="M494.41 437.39H409.23V445.5H494.41V437.39Z" stroke="white" stroke-width="2" stroke-miterlimit="10"/>
<path id="Vector_168" d="M494.41 451.59H409.23V459.7H494.41V451.59Z" stroke="white" stroke-width="2" stroke-miterlimit="10"/>
<path id="Vector_169" d="M494.41 465.79H409.23V473.9H494.41V465.79Z" stroke="white" stroke-width="2" stroke-miterlimit="10"/>
<path id="Vector_170" d="M494.41 479.99H409.23V488.1H494.41V479.99Z" stroke="white" stroke-width="2" stroke-miterlimit="10"/>
<path id="Vector_171" d="M494.41 494.18H409.23V502.29H494.41V494.18Z" stroke="white" stroke-width="2" stroke-miterlimit="10"/>
<path id="Vector_172" d="M494.41 508.38H409.23V516.49H494.41V508.38Z" stroke="white" stroke-width="2" stroke-miterlimit="10"/>
<path id="Vector_173" d="M494.41 522.58H409.23V530.69H494.41V522.58Z" stroke="white" stroke-width="2" stroke-miterlimit="10"/>
<path id="Vector_174" d="M494.41 536.78H409.23V544.89H494.41V536.78Z" stroke="white" stroke-width="2" stroke-miterlimit="10"/>
<path id="Vector_175" d="M494.41 550.97H409.23V559.08H494.41V550.97Z" stroke="white" stroke-width="2" stroke-miterlimit="10"/>
<path id="Vector_176" d="M494.41 565.17H409.23V573.28H494.41V565.17Z" stroke="white" stroke-width="2" stroke-miterlimit="10"/>
<path id="Vector_177" d="M494.41 579.37H409.23V587.48H494.41V579.37Z" stroke="white" stroke-width="2" stroke-miterlimit="10"/>
<path id="Vector_178" d="M557.29 282.58V596.27" stroke="white" stroke-width="2" stroke-miterlimit="10"/>
<path id="Vector_179" d="M372.72 524.61H330.13V546.92H372.72V524.61Z" stroke="white" stroke-width="2" stroke-miterlimit="10"/>
<path id="Vector_180" d="M362.58 485.39H340.27V524.6H362.58V485.39Z" stroke="white" stroke-width="2" stroke-miterlimit="10"/>
<path id="Vector_181" d="M160.9 402.71V596.41" stroke="white" stroke-width="2" stroke-miterlimit="10"/>
<path id="Vector_182" d="M405.53 381.48H302.11" stroke="white" stroke-width="2" stroke-miterlimit="10"/>
<path id="Vector_183" d="M405.53 393.04H302.11" stroke="white" stroke-width="2" stroke-miterlimit="10"/>
<path id="Vector_184" d="M322.51 401.71H306.73V413.27H322.51V401.71Z" stroke="white" stroke-width="2" stroke-miterlimit="10"/>
<path id="Vector_185" d="M341.97 401.71H326.19V413.27H341.97V401.71Z" stroke="white" stroke-width="2" stroke-miterlimit="10"/>
<path id="Vector_186" d="M361.42 401.71H345.64V413.27H361.42V401.71Z" stroke="white" stroke-width="2" stroke-miterlimit="10"/>
<path id="Vector_187" d="M380.88 401.71H365.1V413.27H380.88V401.71Z" stroke="white" stroke-width="2" stroke-miterlimit="10"/>
<path id="Vector_188" d="M400.34 401.71H384.56V413.27H400.34V401.71Z" stroke="white" stroke-width="2" stroke-miterlimit="10"/>
<path id="Vector_189" d="M322.51 419.62H306.73V431.18H322.51V419.62Z" stroke="white" stroke-width="2" stroke-miterlimit="10"/>
<path id="Vector_190" d="M341.97 419.62H326.19V431.18H341.97V419.62Z" stroke="white" stroke-width="2" stroke-miterlimit="10"/>
<path id="Vector_191" d="M361.42 419.62H345.64V431.18H361.42V419.62Z" stroke="white" stroke-width="2" stroke-miterlimit="10"/>
<path id="Vector_192" d="M380.88 419.62H365.1V431.18H380.88V419.62Z" stroke="white" stroke-width="2" stroke-miterlimit="10"/>
<path id="Vector_193" d="M400.34 419.62H384.56V431.18H400.34V419.62Z" stroke="white" stroke-width="2" stroke-miterlimit="10"/>
<path id="Vector_194" d="M322.51 437.53H306.73V449.09H322.51V437.53Z" stroke="white" stroke-width="2" stroke-miterlimit="10"/>
<path id="Vector_195" d="M341.97 437.53H326.19V449.09H341.97V437.53Z" stroke="white" stroke-width="2" stroke-miterlimit="10"/>
<path id="Vector_196" d="M361.42 437.53H345.64V449.09H361.42V437.53Z" stroke="white" stroke-width="2" stroke-miterlimit="10"/>
<path id="Vector_197" d="M380.88 437.53H365.1V449.09H380.88V437.53Z" stroke="white" stroke-width="2" stroke-miterlimit="10"/>
<path id="Vector_198" d="M400.34 437.53H384.56V449.09H400.34V437.53Z" stroke="white" stroke-width="2" stroke-miterlimit="10"/>
<path id="Vector_199" d="M322.51 469.88H306.73V481.44H322.51V469.88Z" stroke="white" stroke-width="2" stroke-miterlimit="10"/>
<path id="Vector_200" d="M341.97 469.88H326.19V481.44H341.97V469.88Z" stroke="white" stroke-width="2" stroke-miterlimit="10"/>
<path id="Vector_201" d="M361.42 469.88H345.64V481.44H361.42V469.88Z" stroke="white" stroke-width="2" stroke-miterlimit="10"/>
<path id="Vector_202" d="M380.88 469.88H365.1V481.44H380.88V469.88Z" stroke="white" stroke-width="2" stroke-miterlimit="10"/>
<path id="Vector_203" d="M400.34 469.88H384.56V481.44H400.34V469.88Z" stroke="white" stroke-width="2" stroke-miterlimit="10"/>
</g>
<g id="Group 3">
<path id="Vector_204" d="M447.823 603.08C445.293 603.85 373.823 602.08 371.143 600.31C370.143 599.64 369.783 589.21 369.713 576.6C369.713 573.88 369.713 571.08 369.713 568.21C369.713 564.83 372.183 531.93 372.183 531.93L418.013 532.93L416.213 569.22L415.793 577.6C415.793 577.6 442.853 590.52 445.583 592.8C448.313 595.08 450.333 602.31 447.823 603.08Z" fill="#AD6359"/>
<path id="Vector_205" d="M447.823 603.08C445.303 603.85 373.823 602.08 371.143 600.31C370.143 599.64 369.783 589.21 369.713 576.6C369.713 573.88 369.713 571.08 369.713 568.21C369.713 567.61 369.803 566.02 369.933 563.83L416.473 563.97L416.203 569.22L415.783 577.61C415.783 577.61 442.843 590.52 445.573 592.8C448.303 595.08 450.333 602.31 447.823 603.08Z" fill="#EBEBEB"/>
<path id="Vector_206" d="M448.033 603.19C446.393 603.69 415.943 603.14 393.793 602.19C388.663 601.97 383.983 601.72 380.203 601.48C374.983 601.13 371.493 600.76 370.933 600.39C369.693 599.55 369.423 584.26 369.493 568.12L416.243 569.12L415.823 577.55C415.823 577.55 443.033 590.55 445.823 592.83C448.613 595.11 450.553 602.4 448.033 603.19Z" fill="#263238"/>
<path id="Vector_207" d="M448.033 603.19C446.393 603.69 415.943 603.14 393.793 602.19C388.663 601.97 383.983 601.72 380.203 601.48C374.983 601.13 371.493 600.76 370.933 600.39C369.693 599.55 369.423 584.26 369.493 568.12L416.243 569.12L415.823 577.55C415.823 577.55 443.033 590.55 445.823 592.83C448.613 595.11 450.553 602.4 448.033 603.19Z" fill="#455A64"/>
<path id="Vector_208" opacity="0.3" d="M448.033 603.19C446.393 603.69 415.943 603.14 393.793 602.19C388.663 601.97 383.983 601.72 380.203 601.48C374.983 601.13 371.493 600.76 370.933 600.39C369.693 599.55 369.423 584.26 369.493 568.12L416.243 569.12L415.823 577.55C415.823 577.55 443.033 590.55 445.823 592.83C448.613 595.11 450.553 602.4 448.033 603.19Z" fill="black"/>
<path id="Vector_209" d="M447.073 600.29C435.073 599.7 386.423 598.45 374.473 598.78C374.373 598.78 374.373 598.84 374.473 598.85C386.393 599.7 435.013 600.56 447.063 600.49C447.323 600.49 447.323 600.3 447.073 600.29Z" fill="#263238"/>
<path id="Vector_210" d="M417.593 574.94C412.873 573.94 407.053 574.52 403.353 577.81C403.203 577.94 403.353 578.14 403.543 578.09C408.106 576.748 412.799 575.893 417.543 575.54C417.622 575.547 417.701 575.521 417.762 575.47C417.823 575.418 417.861 575.345 417.868 575.265C417.875 575.185 417.849 575.106 417.798 575.045C417.746 574.985 417.672 574.947 417.593 574.94Z" fill="#263238"/>
<path id="Vector_211" d="M420.963 577.08C416.243 576.08 410.423 576.67 406.723 579.96C406.583 580.08 406.723 580.29 406.913 580.24C411.475 578.89 416.168 578.032 420.913 577.68C420.992 577.687 421.071 577.661 421.132 577.61C421.193 577.558 421.231 577.485 421.238 577.405C421.244 577.325 421.219 577.247 421.168 577.186C421.116 577.125 421.042 577.087 420.963 577.08Z" fill="#263238"/>
<path id="Vector_212" d="M424.333 579.23C419.613 578.23 413.803 578.81 410.093 582.1C409.953 582.23 410.093 582.43 410.293 582.39C414.855 581.038 419.548 580.18 424.293 579.83C424.373 579.835 424.451 579.809 424.511 579.756C424.571 579.704 424.608 579.63 424.613 579.55C424.618 579.47 424.592 579.392 424.539 579.332C424.487 579.272 424.413 579.235 424.333 579.23Z" fill="#263238"/>
<path id="Vector_213" d="M427.703 581.38C422.983 580.38 417.173 580.96 413.463 584.25C413.323 584.38 413.463 584.58 413.663 584.53C418.226 583.183 422.919 582.325 427.663 581.97C427.733 581.963 427.799 581.931 427.848 581.88C427.897 581.829 427.927 581.762 427.932 581.692C427.936 581.621 427.916 581.551 427.874 581.494C427.832 581.437 427.772 581.397 427.703 581.38Z" fill="#263238"/>
<path id="Vector_214" d="M426.613 564.19C424.813 561.58 421.323 562.65 419.303 564.26C415.888 567.096 413.278 570.779 411.733 574.94C411.724 574.958 411.721 574.978 411.722 574.999C411.724 575.019 411.73 575.038 411.741 575.055C411.752 575.072 411.767 575.086 411.785 575.096C411.803 575.105 411.823 575.11 411.843 575.11C411.837 575.202 411.853 575.295 411.89 575.38C411.926 575.465 411.982 575.54 412.053 575.6C412.124 575.659 412.208 575.701 412.299 575.722C412.389 575.743 412.483 575.742 412.573 575.72C416.523 574.37 420.913 573.41 424.323 570.89C426.323 569.41 428.323 566.66 426.613 564.19ZM418.133 572.45C416.213 573.16 414.263 573.77 412.363 574.56C413.775 572.438 415.293 570.388 416.913 568.42C417.714 567.481 418.576 566.596 419.493 565.77C420.943 564.52 426.593 561.92 425.623 567.1C425.093 570 420.433 571.6 418.133 572.45Z" fill="#263238"/>
<path id="Vector_215" d="M399.713 573.41C403.583 575.17 408.073 575.19 412.223 575.7C412.653 575.7 412.873 575.3 412.803 574.95C412.821 574.944 412.838 574.934 412.852 574.92C412.866 574.906 412.877 574.89 412.883 574.872C412.89 574.854 412.893 574.834 412.891 574.815C412.889 574.795 412.883 574.777 412.873 574.76C410.504 571.004 407.186 567.941 403.253 565.88C400.943 564.72 397.253 564.4 396.083 567.33C394.933 570.1 397.453 572.38 399.713 573.41ZM397.653 570C395.653 565.14 401.703 566.5 403.373 567.42C404.441 568.043 405.47 568.73 406.453 569.48C408.503 571.02 410.303 572.82 412.183 574.55C410.183 574.17 408.123 573.98 406.093 573.68C403.673 573.29 398.773 572.66 397.653 570Z" fill="#263238"/>
<path id="Vector_216" opacity="0.1" d="M403.293 602.56C400.033 602.44 396.833 602.33 393.793 602.19C388.673 601.98 383.973 601.73 380.203 601.48C374.993 601.14 371.503 600.77 370.943 600.4C369.943 599.72 369.553 589.4 369.493 576.77C379.213 584.14 392.413 594.16 403.293 602.56Z" fill="black"/>
<path id="Vector_217" d="M419.503 569.56L368.503 569.45C368.503 569.45 371.813 455.76 371.213 452.9C369.833 446.08 339.213 338.03 339.213 338.03L392.013 339.26C392.292 343.163 392.779 347.049 393.473 350.9C399.873 376.26 417.793 426.68 419.783 446.66C421.573 464.07 419.503 569.56 419.503 569.56Z" fill="#37474F"/>
<path id="Vector_218" d="M416.643 560.46C408.163 560.21 382.593 559.23 371.273 560.04C371.183 560.04 371.183 560.19 371.273 560.21C375.143 560.85 408.163 560.78 416.643 560.69C416.661 560.695 416.68 560.697 416.698 560.693C416.716 560.69 416.734 560.682 416.749 560.671C416.764 560.66 416.776 560.646 416.784 560.629C416.793 560.612 416.797 560.594 416.797 560.575C416.797 560.556 416.793 560.538 416.784 560.521C416.776 560.505 416.764 560.49 416.749 560.479C416.734 560.468 416.716 560.46 416.698 560.457C416.68 560.454 416.661 560.455 416.643 560.46Z" fill="#263238"/>
<path id="Vector_219" d="M377.593 450.21C375.993 443.58 353.243 363.15 350.083 349.99C349.683 348.32 349.283 346.66 348.843 344.99C348.833 344.965 348.813 344.945 348.789 344.934C348.765 344.922 348.737 344.92 348.711 344.927C348.686 344.934 348.663 344.951 348.649 344.974C348.634 344.996 348.629 345.023 348.633 345.05C349.833 351.67 351.423 358.24 352.963 364.8C354.503 371.36 365.113 410.5 369.213 423.39C371.263 429.82 374.643 443.02 376.443 449.52C378.243 456.02 374.983 553.9 375.213 555.63C375.228 555.721 375.275 555.805 375.345 555.865C375.416 555.925 375.505 555.958 375.598 555.958C375.691 555.958 375.78 555.925 375.851 555.865C375.921 555.805 375.968 555.721 375.983 555.63C376.213 543.07 379.213 456.75 377.593 450.21Z" fill="#263238"/>
<path id="Vector_220" opacity="0.1" d="M379.143 338.89L367.713 439.53C367.713 439.53 341.153 344.69 339.343 338.34C339.283 338.14 339.263 338.03 339.263 338.03L379.143 338.89Z" fill="black"/>
<path id="Vector_221" d="M390.053 602.89C387.533 603.67 316.053 601.89 313.383 600.13C312.383 599.46 312.013 589.02 311.953 576.42C311.953 573.7 311.953 570.9 311.953 568.03C311.953 564.65 314.413 531.74 314.413 531.74L360.253 532.74L358.453 569L358.033 577.38C358.033 577.38 385.093 590.3 387.823 592.58C390.553 594.86 392.563 602.13 390.053 602.89Z" fill="#AD6359"/>
<path id="Vector_222" d="M390.063 602.9C387.533 603.67 316.063 601.9 313.383 600.13C312.383 599.46 312.013 589.02 311.953 576.42C311.953 573.7 311.953 570.9 311.953 568.03C311.953 567.42 312.043 565.83 312.173 563.64L358.713 563.79L358.443 569.04L358.023 577.42C358.023 577.42 385.083 590.33 387.813 592.62C390.543 594.91 392.563 602.12 390.063 602.9Z" fill="#EBEBEB"/>
<path id="Vector_223" d="M390.273 603C388.633 603.5 358.183 603 336.033 602C330.903 601.77 326.213 601.53 322.433 601.28C317.223 600.93 313.733 600.57 313.173 600.2C311.933 599.36 311.663 584.06 311.723 567.93L358.483 568.93L358.063 577.36C358.063 577.36 385.273 590.36 388.063 592.63C390.853 594.9 392.793 602.22 390.273 603Z" fill="#263238"/>
<path id="Vector_224" d="M390.273 603C388.633 603.5 358.183 603 336.033 602C330.903 601.77 326.213 601.53 322.433 601.28C317.223 600.93 313.733 600.57 313.173 600.2C311.933 599.36 311.663 584.06 311.723 567.93L358.483 568.93L358.063 577.36C358.063 577.36 385.273 590.36 388.063 592.63C390.853 594.9 392.793 602.22 390.273 603Z" fill="#455A64"/>
<path id="Vector_225" opacity="0.3" d="M390.273 603C388.633 603.5 358.183 603 336.033 602C330.903 601.77 326.213 601.53 322.433 601.28C317.223 600.93 313.733 600.57 313.173 600.2C311.933 599.36 311.663 584.06 311.723 567.93L358.483 568.93L358.063 577.36C358.063 577.36 385.273 590.36 388.063 592.63C390.853 594.9 392.793 602.22 390.273 603Z" fill="black"/>
<path id="Vector_226" d="M389.313 600.11C377.313 599.51 328.653 598.26 316.713 598.59C316.613 598.59 316.613 598.66 316.713 598.67C328.633 599.52 377.263 600.37 389.313 600.3C389.563 600.3 389.563 600.12 389.313 600.11Z" fill="#263238"/>
<path id="Vector_227" d="M359.833 574.75C355.113 573.75 349.293 574.34 345.593 577.63C345.443 577.75 345.593 577.96 345.783 577.91C350.345 576.558 355.038 575.7 359.783 575.35C359.862 575.357 359.941 575.331 360.002 575.28C360.063 575.228 360.101 575.155 360.108 575.075C360.115 574.995 360.089 574.916 360.038 574.856C359.986 574.795 359.912 574.757 359.833 574.75Z" fill="#263238"/>
<path id="Vector_228" d="M363.213 576.9C358.493 575.9 352.673 576.48 348.973 579.77C348.823 579.9 348.973 580.1 349.163 580.06C353.725 578.709 358.418 577.851 363.163 577.5C363.242 577.507 363.321 577.481 363.382 577.43C363.443 577.378 363.481 577.305 363.488 577.225C363.494 577.145 363.469 577.067 363.418 577.006C363.366 576.945 363.292 576.907 363.213 576.9Z" fill="#263238"/>
<path id="Vector_229" d="M366.573 579.05C361.853 578.05 356.033 578.63 352.333 581.92C352.183 582.05 352.333 582.25 352.523 582.2C357.086 580.855 361.779 579.997 366.523 579.64C366.594 579.635 366.661 579.604 366.711 579.554C366.761 579.504 366.793 579.437 366.799 579.366C366.805 579.295 366.785 579.225 366.744 579.167C366.702 579.109 366.642 579.067 366.573 579.05Z" fill="#263238"/>
<path id="Vector_230" d="M369.943 581.19C365.223 580.19 359.403 580.78 355.703 584.06C355.563 584.19 355.703 584.39 355.893 584.35C360.455 583 365.148 582.142 369.893 581.79C369.932 581.793 369.972 581.789 370.01 581.777C370.047 581.765 370.082 581.745 370.112 581.72C370.142 581.694 370.167 581.663 370.185 581.628C370.204 581.593 370.215 581.554 370.218 581.515C370.221 581.476 370.217 581.436 370.205 581.398C370.192 581.361 370.173 581.326 370.148 581.296C370.122 581.265 370.091 581.241 370.056 581.222C370.021 581.204 369.982 581.193 369.943 581.19Z" fill="#263238"/>
<path id="Vector_231" d="M368.853 564C367.053 561.38 363.553 562.45 361.533 564.07C358.116 566.902 355.508 570.586 353.973 574.75C353.973 574.84 353.973 574.9 354.073 574.92C354.073 575.28 354.393 575.67 354.803 575.53C358.803 574.18 363.143 573.22 366.563 570.7C368.563 569.23 370.553 566.48 368.853 564ZM360.373 572.25C358.443 572.97 356.503 573.58 354.603 574.36C356.083 572.29 357.463 570.15 359.153 568.22C359.956 567.283 360.818 566.398 361.733 565.57C363.173 564.32 368.823 561.73 367.863 566.91C367.333 569.78 362.673 571.41 360.373 572.26V572.25Z" fill="#263238"/>
<path id="Vector_232" d="M341.953 573.22C345.813 574.98 350.313 575.01 354.453 575.52C354.546 575.524 354.638 575.505 354.723 575.466C354.807 575.427 354.881 575.368 354.939 575.295C354.996 575.222 355.036 575.136 355.054 575.045C355.072 574.954 355.068 574.86 355.043 574.77C355.062 574.763 355.079 574.751 355.093 574.737C355.106 574.722 355.117 574.705 355.124 574.686C355.13 574.667 355.133 574.647 355.131 574.627C355.129 574.607 355.123 574.587 355.113 574.57C352.738 570.822 349.421 567.763 345.493 565.7C343.183 564.54 339.543 564.22 338.323 567.14C337.103 570.06 339.693 572.19 341.953 573.22ZM339.893 569.79C337.893 564.92 343.943 566.29 345.613 567.21C346.681 567.827 347.707 568.515 348.683 569.27C350.743 570.81 352.533 572.61 354.413 574.33C352.413 573.96 350.363 573.76 348.333 573.46C345.903 573.11 341.003 572.47 339.893 569.79Z" fill="#263238"/>
<path id="Vector_233" d="M361.923 569.48L310.263 568.34C310.263 568.34 322.673 392.2 320.973 382.09C320.713 380.55 319.173 375.09 319.793 369.46C321.193 356.85 324.883 339.04 325.793 337.81L383.783 339C383.783 339 379.013 363.59 377.033 369.18C377.033 369.18 370.343 372.18 367.963 373.5L361.923 569.48Z" fill="#37474F"/>
<path id="Vector_234" d="M360.493 560.11C352.493 559.73 355.913 559.73 347.913 559.43C343.993 559.29 318.243 558.37 314.573 558.88C314.552 558.88 314.531 558.888 314.516 558.903C314.501 558.918 314.493 558.939 314.493 558.96C314.493 558.981 314.501 559.002 314.516 559.017C314.531 559.032 314.552 559.04 314.573 559.04C318.223 559.75 343.973 560.22 347.893 560.28C355.893 560.42 352.483 560.28 360.493 560.34C360.511 560.345 360.53 560.346 360.548 560.343C360.567 560.34 360.584 560.332 360.599 560.321C360.614 560.31 360.626 560.296 360.634 560.279C360.643 560.262 360.647 560.244 360.647 560.225C360.647 560.206 360.643 560.188 360.634 560.171C360.626 560.155 360.614 560.14 360.599 560.129C360.584 560.118 360.567 560.11 360.548 560.107C360.53 560.104 360.511 560.105 360.493 560.11Z" fill="#263238"/>
<path id="Vector_235" d="M329.343 381.62C329.053 377.83 328.523 374.06 328.193 370.28C327.579 362.696 328.207 355.062 330.053 347.68C330.053 347.54 329.863 347.48 329.833 347.62C328.443 354.17 327.203 360.71 327.383 367.44C327.563 374.17 328.603 380.71 328.573 387.44C328.543 394.17 327.853 400.96 327.273 407.69C326.693 414.42 326.103 421.25 325.523 428.03C323.173 455.28 320.383 513.09 319.773 520.7C319.163 528.31 318.203 545.31 317.773 553.06C317.773 553.73 318.773 553.7 318.773 553.06C320.223 539.39 325.313 446.98 326.413 433.42C326.96 426.64 327.5 419.863 328.033 413.09C328.573 406.33 329.223 399.58 329.463 392.81C329.635 389.081 329.594 385.345 329.343 381.62Z" fill="#263238"/>
<path id="Vector_236" d="M376.793 368.58C372.049 370.29 367.462 372.408 363.083 374.91C362.903 375.01 363.023 375.28 363.203 375.2C367.823 373.2 372.533 371.35 377.033 369.13C377.106 369.098 377.163 369.039 377.192 368.965C377.221 368.891 377.22 368.808 377.188 368.735C377.156 368.662 377.097 368.605 377.023 368.576C376.948 368.547 376.866 368.548 376.793 368.58Z" fill="#263238"/>
<path id="Vector_237" d="M378.483 339.34C378.483 339.19 378.193 339.16 378.193 339.34C378.156 344.083 377.859 348.82 377.303 353.53C377.073 355.72 375.063 367.82 370.953 366.94C370.263 366.79 369.953 366.17 369.823 365.21C369.845 363.953 370.037 362.706 370.393 361.5C370.873 358.97 371.263 356.43 371.513 353.87C372.031 349.117 372.015 344.32 371.463 339.57C371.463 339.536 371.449 339.503 371.425 339.478C371.4 339.454 371.367 339.44 371.333 339.44C371.298 339.44 371.265 339.454 371.241 339.478C371.217 339.503 371.203 339.536 371.203 339.57C371.27 346.181 370.795 352.787 369.783 359.32C369.243 362.47 367.493 367.2 371.053 367.68C374.613 368.16 377.103 360.24 377.563 358.07C378.748 351.901 379.058 345.596 378.483 339.34Z" fill="#263238"/>
<path id="Vector_238" d="M371.063 367.21C370.69 368.092 370.376 368.997 370.123 369.92C369.856 370.636 369.723 371.396 369.733 372.16C369.733 372.3 369.943 372.32 370.013 372.22C370.457 371.553 370.794 370.821 371.013 370.05C371.323 369.21 371.663 368.37 371.953 367.52C371.994 367.402 371.987 367.272 371.932 367.16C371.878 367.047 371.781 366.961 371.663 366.92C371.545 366.879 371.415 366.886 371.303 366.941C371.19 366.995 371.104 367.092 371.063 367.21Z" fill="#263238"/>
<path id="Vector_239" d="M367.663 274.56C373.663 293.11 389.523 324.61 398.903 318.28C412.903 308.82 424.243 285.71 428.753 276.36C431.283 271.12 405.753 259.09 403.473 263.85C400.273 270.62 393.653 284.73 391.223 286.57C389.943 287.57 382.273 273.77 376.053 266.95C367.083 257.12 365.753 268.63 367.663 274.56Z" fill="#AD6359"/>
<path id="Vector_240" d="M436.343 264.4C434.403 269.95 426.013 279.75 423.083 281.33C420.153 282.91 402.883 269.73 402.943 266.33C403.003 262.93 411.093 244.19 416.213 241C421.333 237.81 438.343 258.66 436.343 264.4Z" fill="#AD6359"/>
<path id="Vector_241" d="M403.883 262.44C403.664 257.7 402.755 253.017 401.183 248.54C399.123 243.27 395.463 235.67 398.263 234.46C403.993 231.96 413.103 250.91 413.103 250.91C413.103 250.91 415.783 259.91 410.323 262.91C409.311 263.435 408.173 263.669 407.036 263.586C405.899 263.503 404.808 263.107 403.883 262.44Z" fill="#AD6359"/>
<path id="Vector_242" d="M409.343 247.47C409.983 250.47 413.203 248.01 413.203 248.01C413.203 248.01 409.443 252.73 411.313 255.61C413.183 258.49 416.913 255.23 417.193 255.01C416.993 255.26 413.643 259.68 415.833 262.39C418.023 265.1 421.353 261.39 421.563 261.12C421.453 261.42 420.043 265.35 422.173 267.03C425.833 269.91 429.713 259.94 433.223 258.57C433.223 258.57 436.223 264.26 436.343 264.4C436.463 264.54 440.233 255 438.123 250.4C437.825 249.722 437.306 249.165 436.649 248.821C435.993 248.478 435.24 248.368 434.513 248.51C434.513 248.51 436.103 245.62 434.443 243.44C433.593 242.32 431.053 242.69 431.053 242.69C431.376 242.016 431.508 241.265 431.434 240.521C431.36 239.777 431.083 239.067 430.633 238.47C429.363 236.99 427.013 237.59 427.013 237.59C427.013 237.59 427.083 234.79 425.303 233.7C421.703 231.46 407.973 241 409.343 247.47Z" fill="#AD6359"/>
<path id="Vector_243" d="M426.623 237.59C426.623 237.59 426.623 237.49 426.623 237.51C421.128 239.593 416.396 243.297 413.053 248.13C412.953 248.29 413.163 248.52 413.313 248.37C417.205 244.152 421.688 240.52 426.623 237.59Z" fill="#263238"/>
<path id="Vector_244" d="M431.093 242.58C431.153 242.58 431.093 242.46 431.033 242.48C424.995 244.839 420.001 249.28 416.953 255C416.853 255.2 416.953 255.49 417.103 255.26C419.353 251.46 426.413 245.26 431.093 242.58Z" fill="#263238"/>
<path id="Vector_245" d="M421.503 261.6C424.503 256.05 429.053 252.02 434.283 248.55C434.353 248.55 434.283 248.42 434.213 248.44C431.213 249.44 428.093 252 425.843 254.19C423.718 256.188 422.156 258.709 421.313 261.5C421.273 261.61 421.443 261.72 421.503 261.6Z" fill="#263238"/>
<path id="Vector_246" d="M413.103 248C412.973 248.19 413.383 248.16 413.273 248.35C412.783 249.15 410.273 254.25 411.723 255.65C412.903 256.77 415.223 255.96 415.993 255.3L417.933 253.64L416.693 255.87C416.128 256.857 415.732 257.932 415.523 259.05C415.391 259.559 415.37 260.09 415.462 260.608C415.553 261.125 415.755 261.617 416.053 262.05C416.329 262.452 416.735 262.747 417.203 262.885C417.671 263.023 418.172 262.997 418.623 262.81C419.625 262.369 420.499 261.681 421.163 260.81L423.063 258.46L422.063 261.29C421.776 262.077 421.588 262.897 421.503 263.73C421.403 264.521 421.535 265.323 421.883 266.04C422.05 266.355 422.304 266.616 422.613 266.793C422.923 266.97 423.276 267.055 423.633 267.04C424.43 266.893 425.169 266.522 425.763 265.97C427.06 264.796 428.264 263.522 429.363 262.16C429.943 261.5 430.523 260.82 431.133 260.16C431.712 259.476 432.432 258.923 433.243 258.54C432.493 259.003 431.841 259.608 431.323 260.32C430.763 261 430.233 261.71 429.713 262.42C428.686 263.892 427.521 265.261 426.233 266.51C425.549 267.196 424.68 267.668 423.733 267.87C423.203 267.922 422.67 267.819 422.198 267.574C421.726 267.329 421.335 266.953 421.073 266.49C420.619 265.613 420.434 264.622 420.543 263.64C420.613 262.709 420.805 261.791 421.113 260.91L421.993 261.39C421.222 262.441 420.187 263.268 418.993 263.79C418.329 264.068 417.59 264.103 416.903 263.89C416.233 263.672 415.644 263.257 415.213 262.7C414.838 262.148 414.584 261.524 414.467 260.867C414.35 260.211 414.372 259.537 414.533 258.89C414.791 257.668 415.247 256.496 415.883 255.42L416.573 256C415.573 256.8 413.073 258 411.023 256.48C408.673 254.12 412.363 248.92 413.103 248Z" fill="#263238"/>
<path id="Vector_247" d="M413.213 248C412.644 248.289 412.033 248.488 411.403 248.59C411.149 248.639 410.887 248.619 410.644 248.531C410.401 248.443 410.186 248.29 410.023 248.09C409.721 247.608 409.568 247.048 409.583 246.48C409.547 245.814 409.547 245.146 409.583 244.48C409.212 245.066 408.966 245.724 408.863 246.41C408.712 247.168 408.866 247.955 409.293 248.6C409.551 248.922 409.899 249.158 410.293 249.28C410.681 249.367 411.086 249.346 411.463 249.22C412.166 249.02 412.782 248.591 413.213 248Z" fill="#263238"/>
<path id="Vector_248" d="M401.213 263.8L426.533 287.73C426.533 287.73 402.053 321.93 395.113 321.1C384.113 319.78 371.173 290.25 366.963 277.64C362.753 265.03 367.193 255.22 377.123 267.4C387.053 279.58 390.553 284.51 390.933 284.4C391.313 284.29 397.933 270.54 398.483 269.33C398.893 268.39 401.213 263.8 401.213 263.8Z" fill="#C7C7C7"/>
<path id="Vector_249" d="M391.213 283.75C389.732 286.711 388.442 289.764 387.353 292.89C386.793 294.43 386.303 296 385.823 297.57C385.327 299.122 384.936 300.706 384.653 302.31C384.653 302.37 384.733 302.38 384.753 302.31C385.423 300.82 385.963 299.25 386.493 297.71C387.023 296.17 387.603 294.63 388.133 293.08C389.203 289.98 390.383 286.92 391.363 283.79C391.363 283.772 391.357 283.755 391.347 283.74C391.336 283.726 391.321 283.716 391.303 283.711C391.286 283.707 391.268 283.708 391.251 283.715C391.235 283.722 391.221 283.734 391.213 283.75Z" fill="#263238"/>
<path id="Vector_250" opacity="0.1" d="M408.213 310.8C402.853 316.74 397.733 321.42 395.123 321.1C392.513 320.78 389.853 318.93 387.193 316.1C386.833 315.72 386.483 315.32 386.133 314.92C385.783 314.52 385.433 314.07 385.073 313.64C384.713 313.21 384.373 312.74 384.073 312.27C383.773 311.8 383.383 311.32 383.073 310.83C382.406 309.843 381.74 308.813 381.073 307.74C379.393 305.07 377.783 302.18 376.273 299.23C375.663 298.05 375.073 296.87 374.503 295.68C374.223 295.09 373.943 294.5 373.673 293.91C371.189 288.605 368.993 283.171 367.093 277.63C366.11 274.801 365.577 271.835 365.513 268.84C365.513 268.57 365.513 268.32 365.513 268.07C365.513 267.82 365.513 267.57 365.563 267.33C365.623 266.462 365.795 265.605 366.073 264.78C366.133 264.59 366.203 264.41 366.273 264.24C366.351 264.061 366.441 263.887 366.543 263.72C366.611 263.58 366.691 263.446 366.783 263.32C366.871 263.187 366.968 263.06 367.073 262.94C367.175 262.823 367.286 262.712 367.403 262.61C367.476 262.535 367.556 262.468 367.643 262.41C367.699 262.373 367.752 262.333 367.803 262.29L408.213 310.8Z" fill="black"/>
<path id="Vector_251" d="M392.793 347.34L320.213 348.57C320.003 348.32 317.363 342.69 317.693 340.17C318.853 331.17 338.933 273.58 348.693 262.1C354.243 255.58 367.243 257.58 370.443 261.78C384.143 279.72 395.443 326.33 395.823 339.33C395.943 342.05 392.983 347.13 392.793 347.34Z" fill="#C7C7C7"/>
<path id="Vector_252" d="M366.733 263.25C370.783 284.91 377.563 328 370.973 348.3C372.973 341.44 373.113 334.2 373.123 327.1C373.133 320 372.633 312.85 372.003 305.74C370.773 291.52 368.893 277.36 366.733 263.25Z" fill="#263238"/>
<path id="Vector_253" opacity="0.1" d="M362.333 287.15L348.503 286.76L347.513 298.61L353.073 302.27L361.343 299.22L362.333 287.15Z" stroke="#000102" stroke-width="0.5" stroke-miterlimit="10"/>
<path id="Vector_254" opacity="0.1" d="M372.283 286.83L381.733 286.04L382.753 297.86L379.043 301.67L373.293 298.86L372.283 286.83Z" stroke="#000102" stroke-width="0.5" stroke-miterlimit="10"/>
<path id="Vector_255" d="M371.843 283.9L380.723 283.69L380.483 281.7L371.993 282L371.843 283.9Z" fill="white"/>
<path id="Vector_256" d="M319.579 354.361L394.548 353.092L394.45 347.323L319.481 348.592L319.579 354.361Z" fill="#FFC727"/>
<path id="Vector_257" opacity="0.5" d="M319.579 354.361L394.548 353.092L394.45 347.323L319.481 348.592L319.579 354.361Z" fill="black"/>
<path id="Vector_258" d="M364.82 354.137L378.948 353.897L378.832 347.058L364.704 347.298L364.82 354.137Z" stroke="#FFC727" stroke-width="2" stroke-miterlimit="10"/>
<path id="Vector_259" d="M365.813 277.22L369.063 271.28L373.413 275.62L372.593 280.86L367.903 281.26L365.813 277.22Z" fill="#263238"/>
<path id="Vector_260" d="M367.903 281.26L366.383 333.11L375.723 348.37L381.523 332.28L372.593 280.86L367.903 281.26Z" fill="#263238"/>
<path id="Vector_261" d="M322.932 450.967L344.269 327.822L337.411 326.634L316.074 449.779L322.932 450.967Z" fill="#263238"/>
<path id="Vector_262" d="M309.665 347.26L333.116 351.324L334.304 344.466L310.854 340.403L309.665 347.26Z" fill="#263238"/>
<path id="Vector_263" d="M327.463 308.59C334.463 298.42 342.663 288.39 350.073 278.52C343.663 289.31 335.653 299.1 327.463 308.59Z" fill="#263238"/>
<path id="Vector_264" d="M350.073 280.45C349.232 282.038 347.913 283.322 346.303 284.12C347.464 282.802 348.724 281.575 350.073 280.45Z" fill="#263238"/>
<path id="Vector_265" d="M347.573 281.85C342.523 288.91 323.053 313.41 322.573 316.23C322.313 317.82 324.703 319.35 324.733 320.46C324.843 325 317.673 358.56 313.433 355.96C307.853 352.55 286.103 326.52 287.743 313.75C289.383 300.98 339.023 266.26 347.283 262.84C355.213 259.59 352.363 275.16 347.573 281.85Z" fill="#C7C7C7"/>
<path id="Vector_266" d="M328.113 362.32C331.113 359.75 326.363 357.69 326.363 357.69C326.363 357.69 333.923 359.01 335.983 355.16C338.043 351.31 332.133 349.16 331.723 348.99C332.123 349.05 339.093 350.08 340.773 345.99C342.513 341.75 336.263 340.46 335.863 340.37C336.263 340.32 341.503 339.49 342.073 336.1C343.073 330.27 327.843 331.36 324.173 328.29C324.173 328.29 324.783 320.68 324.873 320.45C324.873 320.45 323.543 323.55 320.993 324.6C317.823 325.9 314.993 326.77 313.793 328.5C313.253 329.258 312.971 330.17 312.989 331.101C313.007 332.032 313.324 332.933 313.893 333.67C313.893 333.67 309.703 333.67 308.283 336.84C307.553 338.47 309.523 341.08 309.523 341.08C309.523 341.08 306.163 341.21 305.073 344.08C304.203 346.4 306.303 348.65 306.303 348.65C306.303 348.65 303.143 350.28 303.013 352.93C302.743 358.32 321.693 367.83 328.113 362.32Z" fill="#AD6359"/>
<path id="Vector_267" d="M306.583 349.1C306.523 349.1 306.453 349.1 306.513 349.19C312.181 354.043 319.191 357.057 326.613 357.83C326.843 357.83 326.983 357.47 326.723 357.4C319.642 355.627 312.857 352.831 306.583 349.1Z" fill="#263238"/>
<path id="Vector_268" d="M309.403 341.08C309.333 341.03 309.263 341.15 309.333 341.21C314.993 345.97 323.473 349.6 331.843 349.27C332.123 349.27 332.373 348.96 332.043 348.94C326.463 348.74 315.213 344.66 309.403 341.08Z" fill="#263238"/>
<path id="Vector_269" d="M336.443 340.16C328.443 340.16 321.163 337.6 314.113 333.89C314.023 333.84 313.963 333.98 314.033 334.04C316.983 336.79 321.723 338.69 325.543 339.85C329.063 340.993 332.82 341.196 336.443 340.44C336.583 340.41 336.613 340.16 336.443 340.16Z" fill="#263238"/>
<path id="Vector_270" d="M306.093 348.7C304.743 347.36 303.733 345.6 304.323 343.7C304.594 342.823 305.173 342.074 305.953 341.59C306.912 341.138 307.964 340.919 309.023 340.95C307.803 339.35 307.183 337.17 308.293 335.35C308.817 334.563 309.622 334.005 310.543 333.79C311.611 333.564 312.703 333.48 313.793 333.54C313.29 333.07 312.903 332.489 312.663 331.843C312.424 331.197 312.338 330.505 312.413 329.82C312.529 329.069 312.822 328.357 313.267 327.742C313.712 327.126 314.297 326.625 314.973 326.28C316.565 325.495 318.243 324.898 319.973 324.5C320.855 324.263 321.707 323.928 322.513 323.5C323.382 322.98 324.078 322.215 324.513 321.3C324.593 321.14 324.603 321.3 324.513 321.44C324.238 322.055 323.866 322.622 323.413 323.12C322.925 323.637 322.374 324.09 321.773 324.47C320.255 325.253 318.681 325.922 317.063 326.47C315.656 327.022 314.469 328.02 313.683 329.31C313.338 329.989 313.188 330.75 313.25 331.509C313.312 332.268 313.583 332.996 314.033 333.61C314.093 333.61 314.033 333.77 313.943 333.77C312.97 333.876 312.013 334.098 311.093 334.43C310.334 334.728 309.683 335.247 309.223 335.92C308.816 336.747 308.634 337.667 308.696 338.587C308.757 339.507 309.06 340.394 309.573 341.16C308.533 341.357 307.537 341.74 306.633 342.29C306.057 342.741 305.622 343.348 305.383 344.04C305.101 344.831 305.045 345.686 305.222 346.507C305.399 347.329 305.801 348.084 306.383 348.69C306.383 348.69 306.383 348.69 306.383 348.75C306.39 348.769 306.39 348.791 306.383 348.81C306.383 348.81 305.383 349.37 305.323 349.38C305.263 349.39 305.323 349.38 305.323 349.32C305.565 349.095 305.822 348.888 306.093 348.7Z" fill="#263238"/>
<path id="Vector_271" d="M366.763 270.47C363.523 270.97 356.093 265.62 352.893 260.78C352.683 260.45 352.893 256.78 352.973 252.22C352.973 249.47 352.973 246.42 352.733 243.63L370.563 246.42C369.857 249.987 369.589 253.628 369.763 257.26C369.797 257.643 369.87 258.022 369.983 258.39C369.983 258.45 369.983 258.51 369.983 258.58C370.553 260.72 371.843 269.69 366.763 270.47Z" fill="#AD6359"/>
<path id="Vector_272" d="M369.983 258.4C369.976 258.463 369.976 258.527 369.983 258.59C369.389 258.712 368.788 258.793 368.183 258.83C358.043 259.45 354.483 247.19 353.703 243.83L370.523 246.45C369.817 250.018 369.549 253.658 369.723 257.29C369.781 257.666 369.868 258.037 369.983 258.4Z" fill="#263238"/>
<path id="Vector_273" d="M350.453 220C348.323 226.14 350.923 244.22 355.193 248.39C361.373 254.39 371.843 255.39 377.063 247.87C382.123 240.59 378.323 217.09 373.523 213.27C366.453 207.68 353.603 211 350.453 220Z" fill="#AD6359"/>
<path id="Vector_274" d="M364.893 231.68C364.893 231.63 364.803 231.75 364.813 231.8C365.013 233.01 365.033 234.44 363.983 234.99C363.983 234.99 363.983 235.07 363.983 235.06C365.323 234.69 365.273 232.8 364.893 231.68Z" fill="#263238"/>
<path id="Vector_275" d="M363.633 230.55C361.633 230.66 362.013 234.61 363.853 234.55C365.693 234.49 365.293 230.46 363.633 230.55Z" fill="#263238"/>
<path id="Vector_276" d="M372.213 230.91C372.213 230.91 372.313 230.96 372.323 231.01C372.393 232.24 372.683 233.63 373.823 233.94V234.01C372.473 233.94 372.103 232.09 372.213 230.91Z" fill="#263238"/>
<path id="Vector_277" d="M373.213 229.53C375.163 229.2 375.683 233.14 373.873 233.44C372.063 233.74 371.573 229.81 373.213 229.53Z" fill="#263238"/>
<path id="Vector_278" d="M361.913 228.88C362.419 228.682 362.913 228.455 363.393 228.2C363.951 228.028 364.436 227.677 364.773 227.2C364.851 227.031 364.87 226.842 364.828 226.661C364.787 226.48 364.686 226.318 364.543 226.2C364.223 226.013 363.859 225.914 363.488 225.914C363.117 225.914 362.753 226.013 362.433 226.2C361.725 226.475 361.145 227.002 360.803 227.68C360.732 227.839 360.71 228.015 360.739 228.187C360.767 228.358 360.845 228.518 360.963 228.645C361.081 228.773 361.234 228.863 361.403 228.905C361.572 228.947 361.749 228.938 361.913 228.88Z" fill="#263238"/>
<path id="Vector_279" d="M374.463 229.12C373.903 229.12 373.393 228.95 372.853 228.86C372.273 228.846 371.715 228.643 371.263 228.28C371.151 228.139 371.086 227.967 371.077 227.788C371.068 227.609 371.116 227.431 371.213 227.28C371.466 227.017 371.784 226.825 372.135 226.723C372.486 226.621 372.858 226.613 373.213 226.7C373.982 226.769 374.696 227.126 375.213 227.7C375.313 227.835 375.373 227.995 375.386 228.163C375.399 228.33 375.364 228.498 375.285 228.646C375.207 228.795 375.088 228.918 374.942 229.002C374.797 229.086 374.631 229.127 374.463 229.12Z" fill="#263238"/>
<path id="Vector_280" d="M365.773 239.38C366.127 239.836 366.572 240.214 367.08 240.49C367.588 240.765 368.147 240.932 368.723 240.98C369.227 241.027 369.735 241.003 370.233 240.91C370.328 240.9 370.422 240.879 370.513 240.85L370.773 240.79C370.838 240.771 370.896 240.731 370.937 240.678C370.978 240.624 371.002 240.558 371.003 240.49C371.013 240.451 371.013 240.409 371.003 240.37V240.26C370.943 239.32 370.713 237.89 370.713 237.89C371.073 238.03 372.903 238.66 372.833 238.17C372.334 233.93 371.406 229.752 370.063 225.7C370.013 225.57 369.813 225.62 369.843 225.7C370.273 229.62 371.403 233.44 371.903 237.37C371.258 237.14 370.586 236.999 369.903 236.95C369.773 237 370.383 239.7 370.373 240.13C369.608 240.279 368.82 240.273 368.057 240.111C367.295 239.95 366.572 239.637 365.933 239.19C365.773 239.2 365.683 239.29 365.773 239.38Z" fill="#263238"/>
<path id="Vector_281" d="M350.803 237.14C353.683 237.48 355.163 233.74 355.603 231.91C356.043 230.08 354.203 222.42 355.153 219.63C356.103 216.84 358.743 214.98 361.153 215.3C363.563 215.62 366.923 218.15 368.573 217.74C370.223 217.33 370.063 213.64 371.233 213.46C373.793 213.06 376.623 218.77 377.513 221.46C377.513 221.46 377.463 209.61 364.133 210.4C351.973 211.12 349.593 218.77 349.133 222.54C348.133 229.83 350.803 237.14 350.803 237.14Z" fill="#263238"/>
<path id="Vector_282" d="M355.213 235.38C355.213 235.38 351.213 229.5 348.593 230.9C345.973 232.3 348.833 240.78 351.913 241.98C352.296 242.162 352.711 242.265 353.135 242.282C353.558 242.299 353.981 242.231 354.377 242.08C354.773 241.93 355.134 241.701 355.44 241.407C355.745 241.113 355.988 240.76 356.153 240.37L355.213 235.38Z" fill="#AD6359"/>
<path id="Vector_283" d="M349.493 233.31C349.493 233.31 349.433 233.38 349.493 233.39C351.653 234.31 352.753 236.39 353.493 238.44C353.37 238.221 353.202 238.031 352.999 237.884C352.796 237.736 352.564 237.634 352.318 237.585C352.072 237.535 351.818 237.54 351.574 237.598C351.329 237.655 351.101 237.765 350.903 237.92C350.843 237.92 350.903 238.05 350.953 238.04C351.336 237.924 351.746 237.93 352.126 238.057C352.506 238.184 352.837 238.426 353.073 238.75C353.47 239.291 353.805 239.875 354.073 240.49C354.173 240.69 354.523 240.59 354.453 240.37V240.32C354.543 237.55 352.463 233.64 349.493 233.31Z" fill="#263238"/>
<path id="Vector_284" d="M343.293 228.47C343.873 228.97 346.353 227.73 346.753 227.74L349.113 228.68C349.113 228.68 356.893 216.68 359.213 215.07C361.533 213.46 373.263 210.6 373.263 210.6L372.903 204.69C372.903 204.69 376.783 199.69 376.283 197.11C375.983 195.55 362.283 195.41 353.553 201.9C342.483 210.12 340.103 225.68 343.293 228.47Z" fill="#37474F"/>
<path id="Vector_285" d="M346.753 227.74L349.113 228.68C349.113 228.68 356.893 216.68 359.213 215.07C361.533 213.46 373.263 210.6 373.263 210.6C373.263 210.6 372.983 205.15 372.903 204.69C372.903 204.69 358.973 207.15 355.643 211.49C352.313 215.83 347.763 222.24 346.753 227.74Z" fill="#263238"/>
<path id="Vector_286" d="M368.603 205.09C368.806 206.337 368.926 207.597 368.963 208.86C368.883 209.71 367.103 210.72 367.103 210.72C367.103 210.72 365.033 210.72 364.683 210.17C364.281 208.863 363.99 207.525 363.813 206.17C364.317 206.069 364.791 205.851 365.197 205.536C365.603 205.22 365.931 204.814 366.153 204.35C366.445 204.699 366.832 204.955 367.267 205.086C367.703 205.218 368.167 205.219 368.603 205.09Z" fill="#FFC727"/>
<path id="Vector_287" d="M348.823 229C348.823 229 354.323 224.85 358.013 222.32C362.123 219.52 372.633 215.55 375.513 214.96C377.373 214.58 382.203 207.57 381.173 207.14C377.743 205.74 361.933 212.42 358.863 214.56C354.123 217.88 348.823 229 348.823 229Z" fill="#37474F"/>
<path id="Vector_288" d="M350.213 225.42C350.262 225.643 350.243 225.875 350.16 226.087C350.076 226.299 349.932 226.481 349.744 226.611C349.557 226.74 349.335 226.812 349.108 226.815C348.88 226.819 348.656 226.755 348.465 226.631C348.273 226.507 348.123 226.329 348.033 226.12C347.943 225.911 347.917 225.679 347.959 225.455C348 225.231 348.108 225.025 348.267 224.862C348.426 224.699 348.63 224.587 348.853 224.54C349.15 224.478 349.459 224.535 349.714 224.7C349.969 224.865 350.148 225.124 350.213 225.42Z" fill="#EBEBEB"/>
<path id="Vector_289" d="M370.393 260.15L368.333 268.91L352.823 257.14L349.543 261.75C349.543 261.75 364.313 281.59 364.303 280.63L368.953 270.94L374.593 276.86L373.033 263.54L370.393 260.15Z" fill="#C7C7C7"/>
<path id="Vector_290" d="M374.033 269C373.613 266.41 373.723 266.2 373.183 263.64C373.183 263.55 373.013 263.52 373.003 263.64C372.723 266.2 373.923 273.64 374.143 276.07C373.853 275.83 369.033 270.87 368.983 270.95C368.183 272.48 364.453 279.6 364.293 280.22C361.953 277.07 353.053 265.65 350.363 262.71C350.348 262.69 350.326 262.677 350.302 262.673C350.278 262.669 350.253 262.675 350.233 262.69C350.213 262.705 350.2 262.726 350.196 262.751C350.192 262.775 350.198 262.8 350.213 262.82C352.333 266.18 364.143 281.58 364.293 281.52C364.443 281.46 368.763 272.87 369.093 271.29C370.093 272.35 375.093 277.98 375.093 277.59C374.886 274.71 374.532 271.843 374.033 269Z" fill="#263238"/>
<path id="Vector_291" d="M437.023 192.88C436.532 197.593 434.741 202.076 431.85 205.83C428.958 209.584 425.08 212.46 420.649 214.137C416.217 215.814 411.407 216.227 406.755 215.329C402.102 214.43 397.791 212.257 394.303 209.05L381.513 210.93L387.913 199.87C386.248 195.782 385.67 191.332 386.234 186.954C386.799 182.576 388.488 178.419 391.136 174.887C393.783 171.355 397.301 168.569 401.345 166.8C405.389 165.03 409.822 164.338 414.213 164.79C417.556 165.133 420.799 166.133 423.756 167.731C426.713 169.329 429.325 171.495 431.444 174.104C433.563 176.713 435.146 179.714 436.103 182.936C437.061 186.158 437.373 189.537 437.023 192.88Z" fill="white"/>
<path id="Vector_292" d="M437.023 192.88C436.538 197.607 434.752 202.107 431.863 205.88C430.46 207.777 428.774 209.446 426.863 210.83C424.979 212.256 422.906 213.414 420.703 214.27C418.492 215.13 416.174 215.682 413.813 215.91C412.632 216.015 411.446 216.035 410.263 215.97C409.075 215.945 407.891 215.825 406.723 215.61C402.008 214.742 397.627 212.578 394.073 209.36L394.383 209.45L381.603 211.45L380.673 211.59L381.143 210.77L387.503 199.69V200.13C386.002 196.464 385.364 192.503 385.638 188.551C385.912 184.599 387.09 180.763 389.083 177.34C391.07 173.928 393.806 171.012 397.083 168.81C400.36 166.644 404.085 165.249 407.979 164.73C411.872 164.21 415.833 164.579 419.563 165.81C423.256 167.049 426.625 169.099 429.423 171.81C432.195 174.523 434.318 177.827 435.634 181.475C436.95 185.124 437.425 189.022 437.023 192.88ZM437.023 192.88C437.435 189.028 436.956 185.134 435.623 181.496C434.291 177.859 432.14 174.577 429.337 171.903C426.535 169.229 423.155 167.235 419.46 166.074C415.764 164.914 411.851 164.618 408.023 165.21C404.23 165.772 400.616 167.199 397.463 169.38C394.338 171.572 391.727 174.418 389.813 177.72C387.924 181.034 386.813 184.734 386.563 188.54C386.325 192.341 386.94 196.147 388.363 199.68L388.453 199.91L388.333 200.12L381.893 211.12L381.433 210.45L394.213 208.69H394.393L394.513 208.81C397.93 212.006 402.167 214.19 406.753 215.12C407.897 215.349 409.057 215.489 410.223 215.54C413.75 215.776 417.287 215.251 420.593 214C422.8 213.199 424.878 212.08 426.763 210.68C427.705 209.979 428.607 209.224 429.463 208.42C430.291 207.59 431.066 206.708 431.783 205.78C434.688 202.047 436.502 197.582 437.023 192.88Z" fill="#263238"/>
<path id="Vector_293" d="M408.603 204.8L397.683 193.75L401.353 190.12L407.723 196.58L420.983 175.8L425.333 178.57L408.603 204.8Z" fill="#FFC727"/>
</g>
<path id="Vector_294" d="M290.35 309.6C290.959 309.656 291.548 309.844 292.077 310.152C292.605 310.459 293.06 310.878 293.41 311.38C292.316 310.925 291.287 310.326 290.35 309.6Z" fill="#263238"/>
<g id="Group 2">
<path id="Vector_295" d="M121.385 600.09C123.955 600.89 196.855 599.33 199.595 597.51C200.595 596.83 201.025 586.19 201.135 573.34C201.135 570.56 201.135 567.7 201.135 564.78C201.135 561.33 198.735 527.78 198.735 527.78L151.985 528.66L153.715 565.66L154.115 574.21C154.115 574.21 126.475 587.29 123.685 589.61C120.895 591.93 118.825 599.3 121.385 600.09Z" fill="#EB9481"/>
<path id="Vector_296" d="M121.385 600.09C123.955 600.89 196.855 599.32 199.605 597.52C200.605 596.84 201.025 586.19 201.135 573.34C201.135 570.56 201.135 567.7 201.135 564.78C201.135 564.16 201.045 562.54 200.925 560.3H153.475L153.725 565.66L154.135 574.21C154.135 574.21 126.495 587.29 123.705 589.61C120.915 591.93 118.825 599.29 121.385 600.09Z" fill="#EBEBEB"/>
<path id="Vector_297" d="M121.165 600.2C122.845 600.72 153.895 600.2 176.495 599.37C181.725 599.16 186.495 598.92 190.365 598.69C195.675 598.34 199.245 597.99 199.815 597.61C201.085 596.76 201.405 581.15 201.395 564.7L153.695 565.58L154.105 574.17C154.105 574.17 126.305 587.33 123.495 589.66C120.685 591.99 118.595 599.39 121.165 600.2Z" fill="#263238"/>
<path id="Vector_298" d="M121.165 600.2C122.845 600.72 153.895 600.2 176.495 599.37C181.725 599.16 186.495 598.92 190.365 598.69C195.675 598.34 199.245 597.99 199.815 597.61C201.085 596.76 201.405 581.15 201.395 564.7L153.695 565.58L154.105 574.17C154.105 574.17 126.305 587.33 123.495 589.66C120.685 591.99 118.595 599.39 121.165 600.2Z" fill="#455A64"/>
<path id="Vector_299" opacity="0.3" d="M121.165 600.2C122.845 600.72 153.895 600.2 176.495 599.37C181.725 599.16 186.495 598.92 190.365 598.69C195.675 598.34 199.245 597.99 199.815 597.61C201.085 596.76 201.405 581.15 201.395 564.7L153.695 565.58L154.105 574.17C154.105 574.17 126.305 587.33 123.495 589.66C120.685 591.99 118.595 599.39 121.165 600.2Z" fill="black"/>
<path id="Vector_300" d="M122.155 597.25C134.435 596.68 184.025 595.56 196.215 595.94C196.315 595.94 196.315 596.01 196.215 596.01C184.055 596.84 134.455 597.56 122.165 597.45C121.905 597.45 121.895 597.26 122.155 597.25Z" fill="#263238"/>
<path id="Vector_301" d="M152.305 571.48C157.125 570.48 163.055 571.09 166.825 574.48C166.975 574.61 166.825 574.81 166.625 574.77C161.973 573.38 157.186 572.488 152.345 572.11C152.303 572.113 152.262 572.107 152.223 572.094C152.184 572.08 152.147 572.059 152.116 572.032C152.085 572.004 152.06 571.971 152.041 571.934C152.023 571.897 152.012 571.856 152.01 571.815C152.007 571.774 152.013 571.732 152.026 571.693C152.04 571.654 152.061 571.618 152.088 571.586C152.115 571.555 152.149 571.53 152.186 571.512C152.223 571.493 152.263 571.483 152.305 571.48Z" fill="#263238"/>
<path id="Vector_302" d="M148.865 573.66C153.685 572.66 159.615 573.27 163.375 576.66C163.525 576.79 163.375 576.99 163.175 576.95C158.525 575.549 153.737 574.657 148.895 574.29C148.811 574.294 148.73 574.265 148.668 574.208C148.606 574.152 148.569 574.074 148.565 573.99C148.561 573.907 148.59 573.825 148.646 573.763C148.703 573.701 148.781 573.664 148.865 573.66Z" fill="#263238"/>
<path id="Vector_303" d="M145.415 575.84C150.235 574.84 156.165 575.45 159.935 578.84C160.075 578.98 159.935 579.18 159.735 579.13C155.083 577.738 150.296 576.85 145.455 576.48C145.37 576.485 145.286 576.457 145.223 576.4C145.159 576.344 145.12 576.265 145.115 576.18C145.109 576.095 145.138 576.012 145.194 575.948C145.251 575.884 145.33 575.845 145.415 575.84Z" fill="#263238"/>
<path id="Vector_304" d="M141.975 578C146.785 577 152.715 577.61 156.485 581C156.635 581.13 156.485 581.34 156.285 581.29C151.634 579.897 146.846 579.009 142.005 578.64C141.963 578.642 141.921 578.636 141.881 578.621C141.842 578.607 141.805 578.585 141.774 578.557C141.711 578.5 141.674 578.42 141.67 578.335C141.666 578.25 141.696 578.167 141.753 578.104C141.81 578.041 141.89 578.004 141.975 578Z" fill="#263238"/>
<path id="Vector_305" d="M145.455 567.33C148.935 569.92 153.405 570.91 157.455 572.33C157.875 572.48 158.195 572.08 158.205 571.71C158.224 571.708 158.243 571.702 158.259 571.692C158.276 571.681 158.29 571.668 158.3 571.651C158.311 571.635 158.318 571.617 158.32 571.597C158.323 571.578 158.321 571.558 158.315 571.54C156.767 567.281 154.125 563.504 150.655 560.59C148.595 558.94 145.035 557.83 143.185 560.49C141.335 563.15 143.425 565.82 145.455 567.33ZM144.135 563.47C143.135 558.18 148.925 560.84 150.395 562.12C151.328 562.967 152.203 563.876 153.015 564.84C154.664 566.85 156.209 568.942 157.645 571.11C155.705 570.31 153.725 569.68 151.765 568.94C149.425 568.07 144.655 566.38 144.135 563.47Z" fill="#263238"/>
<path id="Vector_306" d="M174.275 563.79C173.035 560.79 169.275 561.12 166.955 562.29C162.946 564.377 159.557 567.481 157.125 571.29C157.113 571.306 157.105 571.325 157.102 571.345C157.099 571.365 157.101 571.385 157.108 571.404C157.115 571.423 157.126 571.44 157.141 571.453C157.157 571.467 157.175 571.476 157.195 571.48C157.168 571.571 157.163 571.667 157.18 571.76C157.197 571.853 157.236 571.94 157.294 572.015C157.351 572.09 157.426 572.151 157.511 572.191C157.596 572.232 157.69 572.252 157.785 572.25C162.015 571.75 166.595 571.73 170.545 569.95C172.855 568.94 175.435 566.62 174.275 563.79ZM164.045 570.21C161.965 570.5 159.895 570.7 157.835 571.07C159.701 569.259 161.656 567.544 163.695 565.93C164.69 565.159 165.739 564.461 166.835 563.84C168.535 562.9 174.735 561.53 172.655 566.49C171.515 569.22 166.515 569.85 164.045 570.21Z" fill="#263238"/>
<path id="Vector_307" opacity="0.1" d="M201.375 570.94C201.305 584.94 200.915 596.87 199.815 597.6C199.235 597.98 195.675 598.34 190.365 598.68C186.505 598.92 181.715 599.16 176.495 599.36C172.295 599.53 167.795 599.68 163.245 599.81C175.925 590.13 190.175 579.38 201.375 570.94Z" fill="black"/>
<path id="Vector_308" d="M151.165 569.19H202.865C202.865 569.19 192.455 458.14 192.865 456C193.375 453.3 196.435 441.07 200.495 425.11C201.765 420.11 203.145 414.75 204.565 409.19C208.425 394.19 212.675 377.75 216.375 363.46C221.935 342.06 226.275 325.46 226.275 325.46H182.455C182.455 325.46 177.345 341.65 170.905 362.71C160.425 396.94 146.405 444.06 145.025 455.51C142.785 474 151.165 569.19 151.165 569.19Z" fill="#37474F"/>
<path id="Vector_309" d="M153.455 560.37C161.345 560.2 159.085 560.14 166.975 560.06C170.845 560.06 196.245 559.8 199.855 560.4C199.876 560.4 199.896 560.408 199.911 560.423C199.926 560.438 199.935 560.459 199.935 560.48C199.935 560.501 199.926 560.521 199.911 560.537C199.896 560.552 199.876 560.56 199.855 560.56C196.245 561.16 170.855 560.94 166.975 560.9C159.085 560.83 161.345 560.76 153.455 560.6C153.43 560.593 153.408 560.577 153.393 560.557C153.377 560.536 153.369 560.511 153.369 560.485C153.369 560.459 153.377 560.434 153.393 560.413C153.408 560.392 153.43 560.377 153.455 560.37Z" fill="#263238"/>
<path id="Vector_310" d="M183.135 448.65C184.825 441.17 187.365 433.85 189.565 426.51C194.045 411.61 198.555 396.713 203.095 381.82C205.355 374.367 207.628 366.923 209.915 359.49C211.068 355.73 212.228 351.973 213.395 348.22C214.555 344.55 215.855 340.91 216.895 337.22C217.325 335.72 217.555 336.54 217.015 338.46C215.925 342.31 214.845 346.17 213.715 350.02C211.495 357.64 209.255 365.253 206.995 372.86C202.515 388.007 197.995 403.143 193.435 418.27C191.155 425.863 188.871 433.45 186.585 441.03C185.431 444.636 184.499 448.31 183.795 452.03C183.182 455.925 183.027 459.879 183.335 463.81C183.835 471.72 190.585 533 192.005 548.75C192.185 550.75 192.365 552.75 192.515 554.75C192.515 555.42 192.095 555.5 192.025 554.86C190.325 539.3 184.105 486.65 182.655 471.14C182.295 467.25 181.875 463.35 181.875 459.43C181.891 455.801 182.314 452.185 183.135 448.65Z" fill="#263238"/>
<path id="Vector_311" d="M187.425 325.46C190.425 348.99 196.265 393.12 200.495 425.14C210.375 386.35 226.275 325.46 226.275 325.46H187.425Z" fill="#263238"/>
<path id="Vector_312" d="M176.275 600.09C178.845 600.89 251.745 599.33 254.495 597.51C255.495 596.83 255.925 586.19 256.025 573.34C256.025 570.56 256.025 567.7 256.025 564.78C256.025 561.33 253.625 527.78 253.625 527.78L206.875 528.66L208.605 565.66L209.005 574.21C209.005 574.21 181.365 587.29 178.575 589.61C175.785 591.93 173.725 599.3 176.275 600.09Z" fill="#EB9481"/>
<path id="Vector_313" d="M176.275 600.09C178.845 600.89 251.745 599.32 254.495 597.52C255.495 596.84 255.925 586.19 256.025 573.34C256.025 570.56 256.025 567.7 256.025 564.78C256.025 564.16 255.945 562.54 255.815 560.3H208.365L208.625 565.66L209.025 574.21C209.025 574.21 181.385 587.29 178.595 589.61C175.805 591.93 173.725 599.29 176.275 600.09Z" fill="#EBEBEB"/>
<path id="Vector_314" d="M176.065 600.2C177.735 600.72 208.785 600.2 231.385 599.37C236.615 599.16 241.385 598.92 245.255 598.69C250.575 598.34 254.135 597.99 254.705 597.61C255.975 596.76 256.305 581.15 256.285 564.7L208.595 565.58L208.995 574.17C208.995 574.17 181.205 587.33 178.385 589.66C175.565 591.99 173.495 599.39 176.065 600.2Z" fill="#263238"/>
<path id="Vector_315" d="M176.065 600.2C177.735 600.72 208.785 600.2 231.385 599.37C236.615 599.16 241.385 598.92 245.255 598.69C250.575 598.34 254.135 597.99 254.705 597.61C255.975 596.76 256.305 581.15 256.285 564.7L208.595 565.58L208.995 574.17C208.995 574.17 181.205 587.33 178.385 589.66C175.565 591.99 173.495 599.39 176.065 600.2Z" fill="#455A64"/>
<path id="Vector_316" opacity="0.3" d="M176.065 600.2C177.735 600.72 208.785 600.2 231.385 599.37C236.615 599.16 241.385 598.92 245.255 598.69C250.575 598.34 254.135 597.99 254.705 597.61C255.975 596.76 256.305 581.15 256.285 564.7L208.595 565.58L208.995 574.17C208.995 574.17 181.205 587.33 178.385 589.66C175.565 591.99 173.495 599.39 176.065 600.2Z" fill="black"/>
<path id="Vector_317" d="M177.055 597.25C189.335 596.68 238.925 595.56 251.055 595.94C251.155 595.94 251.155 596.01 251.055 596.01C238.895 596.84 189.295 597.56 177.055 597.45C176.795 597.45 176.795 597.26 177.055 597.25Z" fill="#263238"/>
<path id="Vector_318" d="M207.205 571.48C212.015 570.48 217.945 571.09 221.715 574.48C221.865 574.61 221.715 574.81 221.515 574.77C216.862 573.38 212.076 572.488 207.235 572.11C207.151 572.114 207.07 572.085 207.008 572.028C206.946 571.972 206.909 571.894 206.905 571.81C206.901 571.726 206.93 571.645 206.986 571.583C207.043 571.521 207.121 571.484 207.205 571.48Z" fill="#263238"/>
<path id="Vector_319" d="M203.755 573.66C208.575 572.66 214.505 573.27 218.275 576.66C218.415 576.79 218.275 576.99 218.075 576.95C213.421 575.55 208.63 574.658 203.785 574.29C203.701 574.294 203.62 574.265 203.558 574.208C203.496 574.152 203.459 574.074 203.455 573.99C203.451 573.907 203.48 573.825 203.536 573.763C203.593 573.701 203.671 573.664 203.755 573.66Z" fill="#263238"/>
<path id="Vector_320" d="M200.315 575.84C205.125 574.84 211.055 575.45 214.825 578.84C214.975 578.98 214.825 579.18 214.625 579.13C209.973 577.738 205.186 576.85 200.345 576.48C200.303 576.482 200.261 576.476 200.221 576.461C200.182 576.447 200.145 576.425 200.114 576.397C200.051 576.34 200.014 576.26 200.01 576.175C200.006 576.09 200.036 576.007 200.093 575.944C200.15 575.881 200.23 575.844 200.315 575.84Z" fill="#263238"/>
<path id="Vector_321" d="M196.865 578C201.685 577 207.615 577.61 211.385 581C211.525 581.13 211.385 581.34 211.185 581.29C206.53 579.898 201.739 579.01 196.895 578.64C196.81 578.644 196.727 578.614 196.664 578.557C196.601 578.5 196.564 578.42 196.56 578.335C196.556 578.25 196.586 578.167 196.643 578.104C196.7 578.041 196.78 578.004 196.865 578Z" fill="#263238"/>
<path id="Vector_322" d="M200.345 567.33C203.825 569.92 208.295 570.91 212.345 572.33C212.765 572.48 213.085 572.08 213.085 571.71C213.105 571.71 213.125 571.705 213.143 571.696C213.16 571.686 213.176 571.672 213.186 571.655C213.197 571.638 213.204 571.619 213.205 571.599C213.207 571.579 213.203 571.558 213.195 571.54C211.64 567.288 208.991 563.521 205.515 560.62C203.455 558.97 199.895 557.86 198.055 560.52C196.215 563.18 198.315 565.82 200.345 567.33ZM199.035 563.47C198.035 558.18 203.825 560.84 205.285 562.12C206.224 562.964 207.103 563.873 207.915 564.84C209.625 566.84 211.035 568.99 212.535 571.11C210.605 570.31 208.615 569.68 206.655 568.94C204.315 568.07 199.565 566.38 199.035 563.47Z" fill="#263238"/>
<path id="Vector_323" d="M229.165 563.79C227.935 560.79 224.215 561.12 221.855 562.29C217.845 564.38 214.453 567.483 212.015 571.29C212.003 571.306 211.995 571.325 211.992 571.345C211.989 571.365 211.991 571.385 211.998 571.404C212.005 571.423 212.016 571.44 212.031 571.453C212.047 571.467 212.065 571.476 212.085 571.48C212.06 571.571 212.057 571.667 212.075 571.76C212.094 571.853 212.134 571.94 212.192 572.015C212.25 572.09 212.325 572.15 212.411 572.191C212.496 572.232 212.59 572.252 212.685 572.25C216.905 571.75 221.495 571.73 225.445 569.95C227.745 568.94 230.335 566.62 229.165 563.79ZM218.935 570.21C216.865 570.5 214.785 570.7 212.725 571.07C214.591 569.259 216.546 567.544 218.585 565.93C219.582 565.161 220.631 564.463 221.725 563.84C223.435 562.9 229.625 561.53 227.555 566.49C226.405 569.22 221.405 569.85 218.935 570.21Z" fill="#263238"/>
<path id="Vector_324" d="M183.865 325.46C183.865 325.46 184.865 346.46 189.675 363.03C190.065 364.4 190.475 365.75 190.925 367.03C195.324 368.803 199.552 370.975 203.555 373.52C203.555 373.52 204.065 390.39 204.555 409.2C205.115 430.2 205.705 453.69 205.555 458.67C205.155 477.3 206.945 570 206.945 570L258.645 570.2C258.645 570.2 250.265 465.61 250.335 458.79C250.435 447.79 247.825 399.39 245.815 364.06C245.102 351.114 243.491 338.233 240.995 325.51L183.865 325.46Z" fill="#37474F"/>
<path id="Vector_325" d="M208.715 560.75C216.615 560.62 214.345 560.55 222.245 560.5C226.115 560.5 251.505 560.37 255.115 560.98C255.195 560.98 255.195 561.13 255.115 561.14C251.505 561.73 226.115 561.4 222.245 561.34C214.345 561.23 216.615 561.18 208.715 560.98C208.69 560.973 208.668 560.957 208.653 560.937C208.637 560.916 208.629 560.891 208.629 560.865C208.629 560.839 208.637 560.814 208.653 560.793C208.668 560.773 208.69 560.757 208.715 560.75Z" fill="#263238"/>
<path id="Vector_326" d="M239.235 333C240.185 361.84 241.235 390.68 242.485 419.51C243.735 448.34 249.595 542.27 251.335 558.35C251.335 558.46 251.185 558.5 251.175 558.35C247.405 529.74 246.285 497.11 244.425 468.35C242.565 439.59 241.325 410.73 240.345 381.9C239.785 365.59 239.345 349.28 238.875 332.97C238.865 332.7 239.225 332.72 239.235 333Z" fill="#263238"/>
<path id="Vector_327" d="M190.315 367.05C195.161 368.81 199.846 370.989 204.315 373.56C204.333 373.569 204.35 373.581 204.363 373.596C204.377 373.61 204.388 373.628 204.395 373.647C204.402 373.666 204.405 373.686 204.404 373.706C204.403 373.727 204.398 373.747 204.39 373.765C204.381 373.783 204.369 373.8 204.354 373.814C204.339 373.827 204.322 373.838 204.303 373.845C204.284 373.852 204.264 373.855 204.243 373.854C204.223 373.853 204.203 373.849 204.185 373.84C199.485 371.84 194.685 369.89 190.095 367.62C190.032 367.582 189.985 367.524 189.961 367.455C189.937 367.386 189.938 367.311 189.965 367.242C189.991 367.174 190.041 367.117 190.105 367.082C190.169 367.047 190.243 367.036 190.315 367.05Z" fill="#263238"/>
<path id="Vector_328" d="M188.655 337.22C188.655 337.07 188.955 337.04 188.955 337.22C188.982 342.059 189.269 346.892 189.815 351.7C190.045 353.94 192.055 366.28 196.245 365.4C196.955 365.25 197.305 364.61 197.415 363.64C197.389 362.357 197.194 361.082 196.835 359.85C196.355 357.27 195.975 354.68 195.715 352.07C195.203 347.218 195.237 342.324 195.815 337.48C195.823 337.45 195.84 337.424 195.865 337.406C195.889 337.387 195.919 337.377 195.95 337.377C195.98 337.377 196.01 337.387 196.035 337.406C196.059 337.424 196.077 337.45 196.085 337.48C195.995 344.223 196.456 350.962 197.465 357.63C198.005 360.84 199.785 365.68 196.145 366.16C192.505 366.64 189.995 358.54 189.535 356.33C188.352 350.032 188.056 343.6 188.655 337.22Z" fill="#263238"/>
<path id="Vector_329" d="M196.165 365.67C196.538 366.572 196.852 367.497 197.105 368.44C197.377 369.169 197.509 369.942 197.495 370.72C197.495 370.87 197.285 370.89 197.205 370.79C196.76 370.105 196.423 369.357 196.205 368.57C195.885 367.71 195.545 366.86 195.205 365.99C195.162 365.863 195.172 365.724 195.232 365.604C195.292 365.484 195.397 365.392 195.525 365.35C195.652 365.308 195.791 365.317 195.911 365.377C196.031 365.437 196.122 365.543 196.165 365.67Z" fill="#263238"/>
<path id="Vector_330" d="M190.305 260.71C163.585 280.76 132.665 318.42 138.105 333.36C141.775 343.43 171.695 316.22 171.845 314.58C171.965 313.34 188.665 284.52 198.755 266.98C208.845 249.44 195.895 256.51 190.305 260.71Z" fill="#EB9481"/>
<path id="Vector_331" d="M190.305 260.71C163.585 280.76 132.665 318.42 138.105 333.36C141.775 343.43 171.695 316.22 171.845 314.58C171.965 313.34 188.665 284.52 198.755 266.98C208.845 249.44 195.895 256.51 190.305 260.71Z" fill="#C7C7C7"/>
<path id="Vector_332" opacity="0.1" d="M198.755 267C188.665 284.54 171.975 313.36 171.845 314.6C171.765 315.49 163.105 323.73 154.525 329.6L201.905 256.11C203.105 257.16 202.655 260.26 198.755 267Z" fill="#000102"/>
<path id="Vector_333" d="M177.205 346.13H244.375C244.565 345.9 246.925 340.65 246.585 338.31C245.365 330.01 225.505 268.12 216.285 257.65C211.045 251.7 199.045 253.75 196.145 257.65C183.745 274.47 174.405 326.65 174.245 338.73C174.205 341.28 177.035 345.94 177.205 346.13Z" fill="#C7C7C7"/>
<path id="Vector_334" d="M202.445 274.28L198.675 267.89L194.585 272.91L195.925 277.6L200.275 277.9L202.445 274.28Z" fill="#263238"/>
<path id="Vector_335" d="M200.275 277.9L203.845 325.87L195.435 340.13L189.815 325.33L195.925 277.6L200.275 277.9Z" fill="#263238"/>
<path id="Vector_336" d="M200.015 267.89C198.255 280.98 196.735 294.12 195.835 307.3C195.355 313.89 195.075 320.49 195.125 327.09C195.175 333.69 195.445 340.36 197.425 346.68C190.965 327.9 196.565 288.12 200.015 267.89Z" fill="#263238"/>
<path id="Vector_337" opacity="0.1" d="M206.915 287.92L219.705 287.35L220.815 298.3L215.715 301.77L208.015 299.07L206.915 287.92Z" stroke="#000102" stroke-width="0.5" stroke-miterlimit="10"/>
<path id="Vector_338" opacity="0.1" d="M193.265 287.92L184.505 287.35L183.745 298.3L187.235 301.77L192.515 299.07L193.265 287.92Z" stroke="#000102" stroke-width="0.5" stroke-miterlimit="10"/>
<path id="Vector_339" d="M217.865 284.63L206.985 285.32L207.205 283.46L217.625 282.89L217.865 284.63Z" fill="white"/>
<path id="Vector_340" d="M245.075 346.13H175.665V351.47H245.075V346.13Z" fill="#263238"/>
<path id="Vector_341" d="M203.205 345.64H190.125V351.97H203.205V345.64Z" stroke="#EBEBEB" stroke-width="2" stroke-miterlimit="10"/>
<path id="Vector_342" d="M223.995 261C251.095 280.53 282.755 317.58 277.595 332.62C274.125 342.76 243.685 316.14 243.495 314.5C243.355 313.26 226.095 284.78 215.665 267.44C205.235 250.1 218.325 256.92 223.995 261Z" fill="#EB9481"/>
<path id="Vector_343" d="M223.995 261C251.095 280.53 282.755 317.58 277.595 332.62C274.125 342.76 243.685 316.14 243.495 314.5C243.355 313.26 226.095 284.78 215.665 267.44C205.235 250.1 218.325 256.92 223.995 261Z" fill="#C7C7C7"/>
<path id="Vector_344" d="M220.035 274.7C228.415 287.6 236.275 300.93 243.495 314.51C235.115 301.62 227.255 288.28 220.035 274.7Z" fill="#263238"/>
<path id="Vector_345" d="M220.475 278.29C221.995 279.74 223.405 281.36 224.825 282.9C222.96 281.815 221.45 280.214 220.475 278.29Z" fill="#263238"/>
<path id="Vector_346" d="M265.08 266.107L148.025 345.084L152.421 351.599L269.476 272.622L265.08 266.107Z" fill="#263238"/>
<path id="Vector_347" d="M189.573 359.605L174.671 337.269L168.141 341.626L183.043 363.961L189.573 359.605Z" fill="#263238"/>
<path id="Vector_348" d="M140.175 336.91C147.045 339.79 151.535 338.01 179.045 327.31C182.855 325.82 182.465 297.94 178.115 297.63C171.245 297.15 150.375 307.05 148.995 307.81C137.335 314.2 135.515 335 140.175 336.91Z" fill="#EB9481"/>
<path id="Vector_349" d="M210.945 316.38C210.155 319.77 206.675 318.9 206.675 318.9C207.401 320.238 207.638 321.787 207.345 323.28C206.695 325.88 202.345 326.02 202.345 326.02C202.821 327.561 202.821 329.209 202.345 330.75C201.475 333.18 197.095 333.94 197.095 333.94C196.743 335.594 195.806 337.064 194.455 338.08C190.745 340.66 184.395 337.97 180.365 336.23C174.365 333.65 166.435 325.94 164.365 324.49L172.755 298.49C175.204 297.741 177.782 297.513 180.325 297.82C187.016 298.905 193.543 300.827 199.755 303.54C204.475 305.94 211.725 313 210.945 316.38Z" fill="#EB9481"/>
<path id="Vector_350" d="M206.655 318.41C203.215 315.06 198.985 312.91 194.875 310.52C194.856 310.509 194.834 310.507 194.814 310.512C194.793 310.518 194.775 310.531 194.765 310.55C194.754 310.569 194.751 310.591 194.757 310.611C194.763 310.632 194.776 310.649 194.795 310.66C198.905 312.99 202.505 316.1 206.515 318.59C206.655 318.66 206.755 318.5 206.655 318.41Z" fill="#263238"/>
<path id="Vector_351" d="M202.395 325.64C201.538 324.956 200.597 324.385 199.595 323.94C198.595 323.41 197.535 322.94 196.485 322.4C194.385 321.4 192.275 320.45 190.125 319.57C190.035 319.57 189.945 319.66 190.045 319.71C192.135 320.71 194.205 321.71 196.245 322.82L199.305 324.47C200.225 325.06 201.207 325.546 202.235 325.92C202.27 325.927 202.306 325.923 202.338 325.908C202.371 325.893 202.398 325.869 202.416 325.838C202.433 325.807 202.441 325.771 202.437 325.736C202.433 325.7 202.419 325.667 202.395 325.64Z" fill="#263238"/>
<path id="Vector_352" d="M196.975 333.89C196.197 333.282 195.321 332.812 194.385 332.5C193.385 332.07 192.455 331.63 191.495 331.18C189.575 330.29 187.665 329.4 185.775 328.44C185.685 328.44 185.595 328.54 185.695 328.59C187.605 329.59 189.505 330.59 191.425 331.59L194.255 333C195.084 333.486 195.99 333.824 196.935 334C196.995 334 197.015 333.93 196.975 333.89Z" fill="#263238"/>
<path id="Vector_353" d="M168.315 298.74L160.125 336.4C160.125 336.4 141.595 340.94 138.855 336.4C136.115 331.86 137.725 318.13 145.175 310.34C151.235 304 168.315 298.74 168.315 298.74Z" fill="#C7C7C7"/>
<path id="Vector_354" d="M168.025 299.86C168.025 299.47 168.115 299.08 168.175 298.7L168.365 298.87C162.105 301.93 155.265 304.42 148.925 307.29C150.353 306.226 151.876 305.295 153.475 304.51C158.307 302.059 163.351 300.051 168.545 298.51C168.385 298.96 168.215 299.41 168.025 299.85V299.86Z" fill="#263238"/>
<path id="Vector_355" d="M151.085 304.52C152.44 303.655 154.072 303.333 155.655 303.62C155.265 303.75 154.885 303.82 154.505 303.91C153.445 304.12 152.165 304.39 151.085 304.52Z" fill="#263238"/>
<path id="Vector_356" d="M276.315 334.8C270.225 338.67 258.475 339.1 234.715 321.58C231.425 319.16 239.085 292.34 243.365 293.18C250.125 294.51 267.685 309.52 268.815 310.61C278.405 319.82 280.575 332.09 276.315 334.8Z" fill="#EB9481"/>
<path id="Vector_357" d="M218.475 277.4C215.955 279.8 218.475 282.4 218.475 282.4C216.958 282.44 215.501 283.005 214.355 284C212.435 285.87 214.535 289.7 214.535 289.7C212.969 290.079 211.554 290.923 210.475 292.12C208.815 294.12 210.385 298.26 210.385 298.26C209.139 299.4 208.347 300.952 208.155 302.63C207.815 307.14 213.355 311.25 216.885 313.84C222.145 317.69 232.825 320.63 235.115 321.66L253.305 301.22C252.705 298.729 251.595 296.39 250.045 294.35C245.711 289.138 240.743 284.488 235.255 280.51C230.755 277.69 220.955 275 218.475 277.4Z" fill="#EB9481"/>
<path id="Vector_358" d="M218.905 282.12C223.535 283.38 227.535 285.94 231.675 288.27C231.765 288.32 231.675 288.47 231.595 288.41C227.505 286.05 222.995 284.53 218.815 282.33C218.655 282.27 218.775 282.09 218.905 282.12Z" fill="#263238"/>
<path id="Vector_359" d="M214.835 289.47C215.861 289.853 216.83 290.374 217.715 291.02C218.715 291.63 219.665 292.27 220.625 292.92C222.545 294.22 224.435 295.56 226.285 296.92C226.365 296.98 226.285 297.12 226.205 297.06C224.285 295.77 222.355 294.51 220.385 293.3C219.385 292.69 218.385 292.09 217.385 291.5C216.41 291.004 215.495 290.4 214.655 289.7C214.64 289.673 214.634 289.642 214.637 289.611C214.64 289.58 214.651 289.551 214.67 289.527C214.689 289.502 214.715 289.484 214.744 289.474C214.773 289.464 214.805 289.463 214.835 289.47Z" fill="#263238"/>
<path id="Vector_360" d="M210.465 298.32C211.385 298.684 212.238 299.201 212.985 299.85L215.585 301.67C217.325 302.87 219.065 304.07 220.845 305.21C220.935 305.27 220.845 305.41 220.765 305.36C218.945 304.21 217.115 303.08 215.315 301.91C214.425 301.34 213.545 300.77 212.665 300.18C211.81 299.728 211.044 299.125 210.405 298.4C210.394 298.392 210.387 298.38 210.385 298.367C210.383 298.354 210.387 298.341 210.395 298.33C210.403 298.319 210.415 298.312 210.428 298.311C210.441 298.309 210.454 298.312 210.465 298.32Z" fill="#263238"/>
<path id="Vector_361" d="M239.145 325.49L260.985 303.92C260.985 303.92 270.365 310.39 273.855 316.24C277.345 322.09 280.595 329.47 277.645 333.78C274.695 338.09 261.585 341.16 239.145 325.49Z" fill="#C7C7C7"/>
<path id="Vector_362" d="M272.505 314.29C268.795 310.93 264.925 307.02 260.985 303.92C265.576 306.438 269.52 309.988 272.505 314.29Z" fill="#263238"/>
<path id="Vector_363" d="M239.445 325C239.395 325.21 239.335 325.4 239.275 325.59L239.225 325.4C240.625 325.62 243.425 328.48 240.285 326.74C239.767 326.422 239.318 326.004 238.965 325.51C239.125 325.34 239.265 325.16 239.445 325Z" fill="#263238"/>
<path id="Vector_364" d="M199.465 265.55C203.465 267.48 210.765 261.84 213.525 256.64C213.715 256.28 213.005 242.27 212.965 239.44C212.965 238.86 195.255 243.99 195.255 243.99C196.318 247.52 196.946 251.167 197.125 254.85C197.12 255.239 197.083 255.627 197.015 256.01C197.009 256.073 197.009 256.137 197.015 256.2C196.655 258.42 197.435 264.56 199.465 265.55Z" fill="#EB9481"/>
<path id="Vector_365" d="M196.995 256.21C197.599 256.277 198.207 256.297 198.815 256.27C208.135 255.95 211.325 244.49 212.285 239.46C209.035 240 195.285 243.99 195.285 243.99C196.349 247.52 196.974 251.167 197.145 254.85C197.153 255.239 197.12 255.628 197.045 256.01C197.021 256.075 197.005 256.142 196.995 256.21Z" fill="#263238"/>
<path id="Vector_366" d="M214.275 217.38C216.725 223.5 214.935 241.91 210.805 246.38C204.805 252.79 194.275 254.24 188.635 246.88C183.175 239.74 185.935 215.78 190.635 211.69C197.505 205.61 210.655 208.35 214.275 217.38Z" fill="#EB9481"/>
<path id="Vector_367" d="M200.025 230C200.025 229.95 200.115 230.07 200.115 230.12C199.955 231.36 199.985 232.8 201.115 233.31C201.115 233.31 201.115 233.39 201.115 233.38C199.705 233.08 199.655 231.17 200.025 230Z" fill="#263238"/>
<path id="Vector_368" d="M201.255 228.83C203.255 228.83 203.055 232.83 201.185 232.83C199.315 232.83 199.565 228.8 201.255 228.83Z" fill="#263238"/>
<path id="Vector_369" d="M192.245 229.36C192.245 229.31 192.145 229.36 192.145 229.46C192.145 230.71 191.875 232.13 190.725 232.46V232.53C192.115 232.44 192.415 230.54 192.245 229.36Z" fill="#263238"/>
<path id="Vector_370" d="M191.205 228C189.205 227.74 188.835 231.75 190.685 232C192.535 232.25 192.875 228.22 191.205 228Z" fill="#263238"/>
<path id="Vector_371" d="M202.525 226.48C201.977 226.412 201.433 226.316 200.895 226.19C200.31 226.174 199.746 225.963 199.295 225.59C199.191 225.444 199.135 225.269 199.135 225.09C199.135 224.911 199.191 224.736 199.295 224.59C199.555 224.318 199.884 224.122 200.246 224.022C200.609 223.921 200.992 223.921 201.355 224.02C202.123 224.093 202.836 224.449 203.355 225.02C203.465 225.162 203.53 225.333 203.543 225.512C203.555 225.692 203.515 225.87 203.426 226.026C203.337 226.182 203.204 226.309 203.044 226.39C202.884 226.47 202.703 226.502 202.525 226.48Z" fill="#263238"/>
<path id="Vector_372" d="M189.755 227C190.306 227.01 190.856 226.99 191.405 226.94C191.988 226.999 192.574 226.865 193.075 226.56C193.21 226.436 193.301 226.271 193.333 226.09C193.366 225.91 193.338 225.724 193.255 225.56C193.03 225.25 192.725 225.008 192.373 224.858C192.02 224.708 191.634 224.657 191.255 224.71C190.483 224.69 189.731 224.958 189.145 225.46C189.024 225.586 188.941 225.744 188.908 225.915C188.874 226.087 188.89 226.264 188.954 226.426C189.019 226.589 189.128 226.729 189.27 226.831C189.412 226.933 189.58 226.991 189.755 227Z" fill="#263238"/>
<path id="Vector_373" d="M198.865 237.62C198.521 238.093 198.083 238.491 197.579 238.789C197.075 239.086 196.515 239.277 195.935 239.35C195.427 239.42 194.912 239.42 194.405 239.35C194.307 239.344 194.209 239.327 194.115 239.3L193.845 239.24C193.778 239.225 193.719 239.188 193.676 239.136C193.632 239.083 193.607 239.018 193.605 238.95C193.6 238.91 193.6 238.87 193.605 238.83V238.72C193.605 237.72 193.805 236.31 193.805 236.31C193.445 236.46 191.615 237.17 191.675 236.67C192.01 232.358 192.787 228.093 193.995 223.94C194.002 223.915 194.017 223.893 194.038 223.878C194.059 223.863 194.084 223.854 194.11 223.854C194.136 223.854 194.161 223.863 194.181 223.878C194.202 223.893 194.217 223.915 194.225 223.94C193.925 227.94 192.935 231.84 192.575 235.84C193.214 235.58 193.888 235.411 194.575 235.34C194.705 235.34 194.195 238.14 194.215 238.57C194.994 238.691 195.791 238.654 196.555 238.46C197.32 238.266 198.038 237.919 198.665 237.44C198.845 237.43 198.945 237.52 198.865 237.62Z" fill="#263238"/>
<path id="Vector_374" opacity="0.3" d="M214.655 235C213.895 240 212.555 244.44 210.785 246.34C204.785 252.75 194.255 254.2 188.625 246.84C186.735 244.37 185.825 239.92 185.625 234.96C187.715 239.14 191.815 235.76 191.815 235.76L194.005 235.69C196.505 239.14 202.905 237.94 206.075 235.53C208.385 233.78 209.725 227.97 209.725 227.97L214.655 235Z" fill="#263238"/>
<path id="Vector_375" d="M215.245 232.58C212.585 233.42 210.345 230.3 209.595 228.65C208.845 227 209.735 217.65 208.335 215.16C206.935 212.67 204.095 211.4 201.905 212.16C199.715 212.92 196.955 215.9 195.315 215.81C193.675 215.72 193.165 212.19 192.025 212.23C189.525 212.32 187.095 218.59 186.745 221.34C186.745 221.34 186.265 209.6 198.205 208.11C209.865 206.65 213.905 214.55 215.055 218.03C217.235 224.69 215.245 232.58 215.245 232.58Z" fill="#263238"/>
<path id="Vector_376" d="M210.235 231.89C210.235 231.89 213.845 225.68 216.635 226.89C219.425 228.1 217.045 236.89 214.015 238.31C213.644 238.516 213.235 238.645 212.813 238.69C212.392 238.735 211.965 238.696 211.559 238.574C211.152 238.452 210.775 238.25 210.448 237.979C210.121 237.709 209.851 237.376 209.655 237L210.235 231.89Z" fill="#EB9481"/>
<path id="Vector_377" d="M215.895 229.42C215.895 229.42 215.955 229.48 215.895 229.5C213.775 230.57 212.795 232.7 212.165 234.87C212.272 234.639 212.429 234.435 212.624 234.271C212.819 234.107 213.047 233.988 213.292 233.921C213.538 233.855 213.795 233.842 214.046 233.885C214.297 233.928 214.535 234.025 214.745 234.17C214.805 234.17 214.745 234.3 214.695 234.29C214.3 234.206 213.89 234.243 213.517 234.397C213.144 234.55 212.826 234.813 212.605 235.15C212.245 235.727 211.946 236.34 211.715 236.98C211.635 237.18 211.265 237.11 211.325 236.88C211.075 234 212.915 230 215.895 229.42Z" fill="#263238"/>
<path id="Vector_378" d="M222.035 224.18C221.515 224.74 218.925 223.76 218.525 223.81L216.275 224.99C216.275 224.99 207.275 213.84 204.835 212.48C202.395 211.12 190.395 209.48 190.395 209.48L190.155 203.56C190.155 203.56 185.785 199.02 186.015 196.37C186.145 194.78 199.755 193.24 209.105 198.8C220.975 205.85 224.935 221.08 222.035 224.18Z" fill="#37474F"/>
<path id="Vector_379" d="M218.525 223.81L216.275 224.98C216.275 224.98 207.275 213.84 204.835 212.48C202.395 211.12 190.395 209.48 190.395 209.48C190.395 209.48 190.115 204.03 190.155 203.56C190.155 203.56 204.255 204.56 208.015 208.56C211.775 212.56 216.955 218.44 218.525 223.81Z" fill="#263238"/>
<path id="Vector_380" d="M194.475 203.51C194.395 204.772 194.395 206.038 194.475 207.3C194.645 208.14 196.475 208.97 196.475 208.97C196.475 208.97 198.535 208.74 198.835 208.17C199.098 206.828 199.248 205.467 199.285 204.1C198.772 204.051 198.277 203.884 197.84 203.611C197.403 203.339 197.035 202.969 196.765 202.53C196.518 202.897 196.171 203.185 195.765 203.359C195.358 203.533 194.91 203.585 194.475 203.51Z" fill="#FFC727"/>
<path id="Vector_381" d="M216.595 225.3C216.595 225.3 210.705 221.74 206.775 219.61C202.395 217.24 191.535 214.36 188.605 214.07C186.725 213.89 181.195 207.41 182.185 206.88C185.455 205.13 201.855 210.16 205.135 211.97C210.185 214.76 216.595 225.3 216.595 225.3Z" fill="#37474F"/>
<path id="Vector_382" d="M214.845 221.85C214.816 222.077 214.856 222.307 214.959 222.511C215.061 222.715 215.222 222.884 215.422 222.996C215.621 223.108 215.849 223.158 216.077 223.14C216.304 223.122 216.522 223.037 216.701 222.895C216.88 222.753 217.012 222.56 217.082 222.343C217.151 222.125 217.154 221.891 217.09 221.672C217.026 221.453 216.898 221.257 216.723 221.111C216.547 220.965 216.332 220.874 216.105 220.85C215.806 220.819 215.506 220.906 215.271 221.093C215.035 221.28 214.882 221.552 214.845 221.85Z" fill="#EBEBEB"/>
<path id="Vector_383" d="M197.015 256L199.215 265.48L213.855 252.65L217.455 257.02C217.455 257.02 204.105 277.85 204.055 276.9L198.735 267.56L193.525 273.86L194.145 260.45L197.015 256Z" fill="#C7C7C7"/>
<path id="Vector_384" d="M193.535 266C193.775 263.4 193.645 263.19 194.005 260.6C194.005 260.51 194.165 260.47 194.185 260.6C194.645 263.14 193.975 270.68 193.915 273.07C194.185 272.8 198.655 267.51 198.705 267.6C199.605 269.06 203.835 275.9 204.035 276.51C206.145 273.2 214.225 261.18 216.705 258.07C216.775 257.98 216.915 258.07 216.855 258.16C214.975 261.67 204.285 277.85 204.125 277.8C203.965 277.75 199.055 269.49 198.625 267.94C197.625 269.07 193.125 275.03 193.115 274.64C193.104 271.755 193.244 268.871 193.535 266Z" fill="#263238"/>
</g>
</g>
</g>
</g>
<defs>
<linearGradient id="paint0_linear_1592_1518" x1="476" y1="600" x2="497.369" y2="-47.4209" gradientUnits="userSpaceOnUse">
<stop offset="0.153137" stop-color="#00A695"/>
<stop offset="1" stop-color="#B9FCD2"/>
</linearGradient>
<clipPath id="clip0_1592_1518">
<rect width="570" height="600" rx="20" fill="white"/>
</clipPath>
</defs>
</svg>
