<svg width="256" height="64" viewBox="0 0 256 64" fill="none" xmlns="http://www.w3.org/2000/svg">
<path d="M96.9527 20.07L91.0442 42.7355H84.374L80.7568 27.8185L77.0111 42.7355H70.3158L64.5703 20.07H70.4788L73.7387 36.5699L77.7916 20.07H83.8599L87.7342 36.5699L91.0285 20.07H96.9527Z" fill="#005FA5"/>
<path d="M113.838 38.7327H105.375L104.018 42.7355H98.2441L106.447 20.07H112.838L121.048 42.7355H115.195L113.838 38.7327ZM112.418 34.4698L109.597 26.1729L106.82 34.4698H112.418Z" fill="#005FA5"/>
<path d="M139.832 20.07V24.4928H133.827V42.7355H128.307V24.4928H122.301V20.07H139.832Z" fill="#005FA5"/>
<path d="M143.127 25.3798C144.063 23.6589 145.467 22.2377 147.177 21.2799C148.979 20.2846 151.011 19.7788 153.069 19.813C155.761 19.813 158.06 20.5224 159.965 21.9413C161.885 23.3714 163.244 25.4286 163.805 27.7558H157.752C157.344 26.8573 156.674 26.1026 155.831 25.5898C154.977 25.088 154.001 24.8309 153.01 24.8469C152.232 24.82 151.458 24.9653 150.744 25.2726C150.029 25.5799 149.391 26.0414 148.875 26.6242C147.831 27.809 147.308 29.3909 147.308 31.3698C147.308 33.3487 147.831 34.9316 148.875 36.1186C149.392 36.7017 150.032 37.1632 150.749 37.4699C151.465 37.7766 152.24 37.921 153.019 37.8927C154.01 37.9087 154.986 37.6517 155.84 37.1498C156.684 36.6383 157.353 35.8846 157.762 34.987H163.83C163.272 37.3104 161.912 39.3625 159.99 40.7827C158.072 42.1932 155.773 42.8984 153.094 42.8984C151.035 42.9331 149.003 42.4262 147.202 41.4284C145.496 40.4774 144.092 39.0652 143.152 37.3535C142.196 35.5043 141.698 33.453 141.698 31.3714C141.698 29.2898 142.196 27.2385 143.152 25.3892L143.127 25.3798Z" fill="#005FA5"/>
<path d="M186.843 20.07V42.7355H181.324V33.4041H172.735V42.7355H167.212V20.07H172.735V28.9657H181.324V20.07H186.843Z" fill="#005FA5"/>
<path d="M195.673 41.4754C193.914 40.5017 192.453 39.0683 191.445 37.3285C190.417 35.5021 189.878 33.4419 189.878 31.3463C189.878 29.2507 190.417 27.1905 191.445 25.3641C192.457 23.6316 193.918 22.2043 195.673 21.2329C197.473 20.2579 199.488 19.7473 201.535 19.7473C203.582 19.7473 205.596 20.2579 207.396 21.2329C209.147 22.2002 210.599 23.6291 211.593 25.3641C212.602 27.1973 213.129 29.2564 213.126 31.3487C213.123 33.4411 212.589 35.4984 211.575 37.3285C210.58 39.0673 209.128 40.5012 207.378 41.4754C205.581 42.4504 203.569 42.9611 201.525 42.9611C199.481 42.9611 197.47 42.4504 195.673 41.4754ZM205.876 36.1185C206.965 34.9128 207.509 33.3195 207.509 31.3385C207.509 29.3575 206.965 27.7589 205.876 26.5427C204.787 25.3495 203.34 24.7529 201.535 24.7529C199.729 24.7529 198.267 25.3443 197.147 26.527C196.058 27.7118 195.515 29.3157 195.517 31.3385C195.519 33.3612 196.062 34.9598 197.147 36.1342C198.233 37.3274 199.696 37.924 201.535 37.924C203.374 37.924 204.821 37.3222 205.876 36.1185Z" fill="#005FA5"/>
<path d="M221.617 20.07V33.6298C221.617 34.9881 221.951 36.0329 222.617 36.7643C223.284 37.4957 224.264 37.8613 225.557 37.8613C226.849 37.8613 227.838 37.4957 228.526 36.7643C229.213 36.0329 229.558 34.9881 229.56 33.6298V20.07H235.083V33.5985C235.083 35.6233 234.653 37.3347 233.792 38.7327C232.964 40.1008 231.758 41.1994 230.319 41.8954C228.803 42.6207 227.14 42.9855 225.46 42.9612C223.802 42.9901 222.16 42.6316 220.665 41.9142C219.259 41.2172 218.095 40.1144 217.323 38.7484C216.504 37.3379 216.094 35.6212 216.094 33.5985V20.07H221.617Z" fill="#005FA5"/>
<path d="M255.26 20.07V24.4928H249.248V42.7355H243.734V24.4928H237.729V20.07H255.26Z" fill="#005FA5"/>
<path d="M27.9964 2.50666C27.3706 1.72051 26.5748 1.0865 25.6686 0.652336C24.7625 0.218172 23.7697 -0.00484164 22.765 7.97137e-05C21.2142 0.00307848 19.7112 0.536869 18.5059 1.51267C17.4267 2.39164 16.6458 3.58303 16.2704 4.92339C15.8951 6.26375 15.9437 7.68741 16.4096 8.99906C16.8754 10.3107 17.7357 11.4461 18.8724 12.2494C20.0091 13.0527 21.3666 13.4847 22.7585 13.4859C24.0297 13.4823 25.274 13.1197 26.3481 12.4398C27.4222 11.76 28.2825 10.7906 28.8298 9.64333C29.3772 8.49602 29.5893 7.21745 29.4419 5.95485C29.2944 4.69225 28.7934 3.49697 27.9964 2.50666ZM22.7239 12.5697C21.8632 12.5713 21.013 12.3806 20.2354 12.0116C19.4578 11.6426 18.7725 11.1047 18.2293 10.437C17.6989 9.85141 17.2928 9.1642 17.0359 8.41701C16.779 7.66983 16.6765 6.87823 16.7347 6.09025C16.7928 5.30227 17.0105 4.53431 17.3743 3.83296C17.7382 3.13161 18.2408 2.51148 18.8515 2.01018C19.4622 1.50888 20.1684 1.13685 20.9272 0.916665C21.6861 0.696479 22.4817 0.632717 23.2659 0.729253C24.0501 0.82579 24.8066 1.08061 25.4893 1.47826C26.1721 1.8759 26.767 2.4081 27.2379 3.04255C27.7289 3.63111 28.0979 4.31146 28.3234 5.04399C28.5488 5.77653 28.6264 6.54661 28.5513 7.30939C28.4763 8.07216 28.2503 8.8124 27.8864 9.48698C27.5226 10.1616 27.0281 10.757 26.4319 11.2386C25.3847 12.0923 24.075 12.5586 22.7239 12.5589V12.5697Z" fill="url(#paint0_linear_1639_1640)"/>
<path d="M27.6809 8.28043C27.3116 9.44331 26.5441 10.4387 25.5133 11.0917C24.4826 11.7446 23.2546 12.0131 22.0454 11.8501C19.7441 11.5519 17.7778 9.59422 17.6719 7.43554C18.6572 8.06218 19.6339 8.13565 20.5372 7.36639C20.8554 7.08143 21.0768 6.70428 21.1706 6.28751C21.2643 5.87074 21.2257 5.4351 21.0601 5.04132C20.6149 3.94577 19.7225 3.61732 18.5168 3.71888C20.2454 1.51266 22.9076 0.909784 25.2024 2.14363C26.2658 2.71757 27.0954 3.64481 27.5479 4.76526C28.0004 5.8857 28.0474 7.12899 27.6809 8.28043Z" fill="url(#paint1_linear_1639_1640)"/>
<path d="M44.3453 43.5411C44.3453 44.3276 43.4809 45.2028 42.8327 45.864C37.0459 51.8171 31.2181 57.7292 25.4573 63.6002C23.6012 62.4182 24.2624 61.0072 24.2559 59.8576C24.1997 48.8222 24.2451 37.7868 24.1889 26.7513C24.1889 25.3489 24.9409 23.281 22.2442 23.2788C19.5474 23.2767 20.2994 25.3446 20.2994 26.747C20.2994 26.9091 20.2994 27.069 20.2994 27.231L20.3556 27.1489C20.2994 38.1844 20.3556 49.2198 20.2886 60.2552C20.2886 60.9813 20.5479 61.8154 20.2713 62.6322L19.5777 63.6348C19.4239 63.7691 19.2599 63.8912 19.0872 64C13.3263 58.129 7.5007 52.2169 1.71395 46.2638C1.0657 45.6025 0.201358 44.7274 0.201358 43.9408C0.201358 43.8782 0.201358 43.8177 0.201358 43.755C0.0886273 43.3387 0.0312361 42.9093 0.0306563 42.478C-0.0125607 33.867 0.00256421 25.256 0.00256421 16.3793C9.54918 20.5605 8.18352 28.4476 8.0193 35.8787C7.97451 36.7996 7.98172 37.7224 8.04091 38.6425C8.04091 38.7332 8.0582 38.8218 8.069 38.9104C8.01066 41.3975 9.26395 42.8561 11.4615 43.8652C11.7572 43.4357 11.9643 42.9516 12.0709 42.4412C12.086 34.7961 12.2524 27.4039 11.9866 20.0268C11.8462 16.1372 12.851 14.5015 16.9955 14.9012C20.661 15.2425 24.3503 15.2425 28.0158 14.9012C31.7886 14.5577 32.6335 16.1156 32.5103 19.5535C32.2813 25.941 32.4066 32.3458 32.465 38.7419C32.4801 40.2544 32.0198 41.8837 33.1002 43.4633C35.3454 42.4304 36.6073 40.9286 36.4863 38.3378C36.3869 36.2245 36.3242 30.6992 36.2961 30.4766C35.4512 24.0762 38.686 19.8733 44.4252 16.1351C44.4144 25.5477 44.4598 34.5455 44.3453 43.5411Z" fill="url(#paint2_linear_1639_1640)"/>
<path d="M8.06252 38.7376V38.9083C8.06252 38.8197 8.04307 38.7311 8.03442 38.6403L8.06252 38.7376Z" fill="url(#paint3_linear_1639_1640)"/>
<defs>
<linearGradient id="paint0_linear_1639_1640" x1="16.9156" y1="10.0999" x2="28.5841" y2="3.36235" gradientUnits="userSpaceOnUse">
<stop stop-color="#00A695"/>
<stop offset="1" stop-color="#1D4F9A"/>
</linearGradient>
<linearGradient id="paint1_linear_1639_1640" x1="18.251" y1="9.32195" x2="27.2423" y2="4.1316" gradientUnits="userSpaceOnUse">
<stop stop-color="#00A695"/>
<stop offset="1" stop-color="#1D4F9A"/>
</linearGradient>
<linearGradient id="paint2_linear_1639_1640" x1="1.45465" y1="46.4928" x2="46.8173" y2="20.3012" gradientUnits="userSpaceOnUse">
<stop stop-color="#00A695"/>
<stop offset="1" stop-color="#1D4F9A"/>
</linearGradient>
<linearGradient id="paint3_linear_1639_1640" x1="7.99337" y1="38.8002" x2="8.08844" y2="38.7462" gradientUnits="userSpaceOnUse">
<stop stop-color="#00A695"/>
<stop offset="1" stop-color="#1D4F9A"/>
</linearGradient>
</defs>
</svg>
