<svg width="163" height="133" viewBox="0 0 163 133" fill="none" xmlns="http://www.w3.org/2000/svg">
<g clip-path="url(#clip0_1676_2238)">
<path d="M163 116.88H-13V116.968H163V116.88Z" fill="#EBEBEB"/>
<path d="M17.1242 120.279H5.46594V120.366H17.1242V120.279Z" fill="#EBEBEB"/>
<path d="M66.7492 119.311H47.2413V119.399H66.7492V119.311Z" fill="#EBEBEB"/>
<path d="M25.7869 122.399H19.032V122.487H25.7869V122.399Z" fill="#EBEBEB"/>
<path d="M137.885 120.232H122.682V120.32H137.885V120.232Z" fill="#EBEBEB"/>
<path d="M143.249 120.232H141.021V120.32H143.249V120.232Z" fill="#EBEBEB"/>
<path d="M101.066 121.485H84.5779V121.573H101.066V121.485Z" fill="#EBEBEB"/>
<path d="M70.424 100.961H2.45635C1.9239 100.96 1.41357 100.745 1.0374 100.363C0.661226 99.9806 0.44995 99.4627 0.449951 98.9228V2.03811C0.454586 1.50128 0.667907 0.987982 1.04358 0.609709C1.41925 0.231437 1.92693 0.0187419 2.45635 0.0178223H70.424C70.9571 0.0178223 71.4683 0.232554 71.8453 0.614779C72.2222 0.997003 72.434 1.51541 72.434 2.05596V98.9228C72.434 99.4633 72.2222 99.9817 71.8453 100.364C71.4683 100.746 70.9571 100.961 70.424 100.961ZM2.45635 0.0892109C1.94724 0.0901564 1.45929 0.295903 1.09962 0.66129C0.739955 1.02668 0.53795 1.52185 0.537951 2.03811V98.9228C0.53795 99.439 0.739955 99.9342 1.09962 100.3C1.45929 100.665 1.94724 100.871 2.45635 100.872H70.424C70.9335 100.871 71.4218 100.665 71.782 100.3C72.1422 99.9345 72.345 99.4394 72.346 98.9228V2.03811C72.345 1.52152 72.1422 1.02636 71.782 0.661073C71.4218 0.295787 70.9335 0.0901544 70.424 0.0892109H2.45635Z" fill="#EBEBEB"/>
<path d="M146.565 100.961H78.5939C78.0611 100.96 77.5504 100.745 77.1737 100.363C76.797 99.9809 76.5849 99.463 76.584 98.9228V2.03811C76.5895 1.50095 76.8036 0.98766 77.1799 0.609486C77.5561 0.231312 78.0642 0.0187319 78.5939 0.0178223H146.565C147.094 0.01968 147.601 0.23279 147.976 0.610962C148.351 0.989134 148.563 1.5019 148.568 2.03811V98.9228C148.568 99.4621 148.357 99.9794 147.982 100.361C147.606 100.743 147.097 100.959 146.565 100.961ZM78.5939 0.0892109C78.0845 0.0901544 77.5962 0.295787 77.2359 0.661073C76.8757 1.02636 76.6729 1.52152 76.672 2.03811V98.9228C76.6729 99.4394 76.8757 99.9345 77.2359 100.3C77.5962 100.665 78.0845 100.871 78.5939 100.872H146.565C147.075 100.871 147.563 100.665 147.923 100.3C148.283 99.9345 148.486 99.4394 148.487 98.9228V2.03811C148.486 1.52152 148.283 1.02636 147.923 0.661073C147.563 0.295787 147.075 0.0901544 146.565 0.0892109H78.5939Z" fill="#EBEBEB"/>
<path d="M91.8397 6.93896H23.8826V56.4075H91.8397V6.93896Z" fill="#FAFAFA"/>
<path d="M87.9712 56.4075L70.688 6.93896H57.7168L75 56.4075H87.9712Z" fill="white"/>
<path d="M53.0915 56.4075L35.8083 6.93896H31.0774L48.3606 56.4075H53.0915Z" fill="white"/>
<path d="M20.6442 5.23987H95.0816C95.1212 5.23987 95.1604 5.24783 95.1969 5.2633C95.2334 5.27877 95.2666 5.30144 95.2944 5.32999C95.3222 5.35854 95.3442 5.39241 95.359 5.42963C95.3739 5.46686 95.3812 5.5067 95.3808 5.54684C95.3808 5.6273 95.3493 5.70448 95.2931 5.76138C95.237 5.81827 95.1609 5.85024 95.0816 5.85024H20.6442C20.5645 5.85024 20.488 5.81839 20.4313 5.7616C20.3747 5.7048 20.3424 5.62763 20.3414 5.54684C20.3414 5.46542 20.3733 5.38735 20.4301 5.32978C20.4869 5.27221 20.5639 5.23987 20.6442 5.23987Z" fill="#E0E0E0"/>
<path d="M58.2659 6.83191H57.4598V56.5146H58.2659V6.83191Z" fill="#F0F0F0"/>
<path d="M57.4563 6.83191H57.0551V56.5146H57.4563V6.83191Z" fill="#E0E0E0"/>
<path d="M23.4144 31.2645V32.0819L92.3114 32.0819V31.2645L23.4144 31.2645Z" fill="#F0F0F0"/>
<path d="M23.4144 56.0576V6.44275H92.3079V56.0576V56.875H23.4144V56.0576ZM91.5053 56.0576V7.28156H24.2205V56.0576H91.5053Z" fill="#F0F0F0"/>
<path d="M23.4109 6.46423H23.0096V56.8858H23.4109V6.46423Z" fill="#E0E0E0"/>
<path opacity="0.5" d="M33.4041 4.49036V62.5862H18.8595L21.5277 4.49036H33.4041Z" fill="#EBEBEB"/>
<path opacity="0.5" d="M81.9167 4.49036V62.5862H96.4614L93.7932 4.49036H81.9167Z" fill="#EBEBEB"/>
<path d="M14.3434 69.5465H8.7959V115.174H14.3434V69.5465Z" fill="#F0F0F0"/>
<path d="M70.9802 115.174H9.86243V116.88H70.9802V115.174Z" fill="#F0F0F0"/>
<path d="M14.3469 115.174L72.0468 115.174V69.5465H14.3469L14.3469 115.174Z" fill="#F5F5F5"/>
<path d="M13.7696 68.058H8.09888V69.5464H13.7696V68.058Z" fill="#F0F0F0"/>
<path d="M13.766 69.543L72.7401 69.543V68.0545L13.766 68.0545V69.543Z" fill="#FAFAFA"/>
<path d="M70.0509 95.2248H16.3392V72.6697H70.0509V95.2248ZM16.7124 94.8465H69.6778V73.048H16.7124V94.8465Z" fill="#E0E0E0"/>
<path d="M70.0509 112.047H16.3392V97.4807H70.0509V112.047ZM16.7124 111.669H69.6778V97.8591H16.7124V111.669Z" fill="#E0E0E0"/>
<path d="M62.3209 72.8589H24.0691C23.7969 72.8589 23.5763 73.0826 23.5763 73.3586V73.5692C23.5763 73.8452 23.7969 74.0689 24.0691 74.0689H62.3209C62.5931 74.0689 62.8137 73.8452 62.8137 73.5692V73.3586C62.8137 73.0826 62.5931 72.8589 62.3209 72.8589Z" fill="#E0E0E0"/>
<path d="M62.3209 97.6699H24.0691C23.7969 97.6699 23.5763 97.8937 23.5763 98.1696V98.3802C23.5763 98.6562 23.7969 98.8799 24.0691 98.8799H62.3209C62.5931 98.8799 62.8137 98.6562 62.8137 98.3802V98.1696C62.8137 97.8937 62.5931 97.6699 62.3209 97.6699Z" fill="#E0E0E0"/>
<path d="M109.447 114.689H141.718V14.8451H109.447L109.447 114.689Z" fill="#F0F0F0"/>
<path d="M109.447 14.8488H108.422V114.692H109.447V14.8488Z" fill="#E0E0E0"/>
<path d="M114.685 110.88H136.484V18.6538H114.685L114.685 110.88Z" fill="#FAFAFA"/>
<path d="M75 133C112.693 133 143.249 131.191 143.249 128.959C143.249 126.728 112.693 124.919 75 124.919C37.307 124.919 6.75073 126.728 6.75073 128.959C6.75073 131.191 37.307 133 75 133Z" fill="#F5F5F5"/>
<path d="M144.825 56.786L144.702 58.5055L145.053 58.5313L145.176 56.8117L144.825 56.786Z" fill="#407BFF"/>
<path d="M145.288 50.275L144.932 55.2627L145.283 55.2885L145.639 50.3008L145.288 50.275Z" fill="#407BFF"/>
<path d="M135.657 106.386H49.4414C48.8256 106.394 48.2152 106.27 47.6494 106.024C47.0835 105.778 46.5747 105.414 46.1557 104.957C45.7366 104.499 45.4166 103.958 45.2162 103.367C45.0159 102.777 44.9395 102.151 44.9921 101.528L49.5681 36.9934C49.6816 35.6867 50.2673 34.4686 51.2126 33.5732C52.158 32.6778 53.3963 32.1683 54.6897 32.1426H140.905C141.521 32.1348 142.131 32.2578 142.697 32.5036C143.263 32.7494 143.771 33.1127 144.191 33.5699C144.61 34.0272 144.93 34.5683 145.13 35.1585C145.331 35.7488 145.407 36.375 145.354 36.997L140.778 101.532C140.666 102.839 140.08 104.058 139.135 104.954C138.189 105.851 136.951 106.361 135.657 106.386Z" fill="#407BFF"/>
<path d="M115.603 128.959H87.6158L82.6279 93.8899H110.615L115.603 128.959Z" fill="#407BFF"/>
<path d="M111.157 126.868H80.8855L80.2836 128.959H110.559L111.157 126.868Z" fill="#407BFF"/>
<path d="M112.09 110.773L84.8138 109.26L82.6279 93.8899H109.69L112.09 110.773Z" fill="#263238"/>
<path d="M134.685 106.386H48.4663C47.8497 106.393 47.2385 106.269 46.6722 106.022C46.1059 105.775 45.597 105.41 45.1784 104.95C44.7598 104.491 44.4408 103.948 44.2419 103.356C44.0431 102.765 43.9689 102.137 44.024 101.514L48.6 36.9792C48.7166 35.6763 49.3028 34.4626 50.2463 33.5703C51.1899 32.6781 52.4247 32.1698 53.7146 32.1426H139.933C140.549 32.1354 141.159 32.2587 141.724 32.5048C142.29 32.7508 142.798 33.1141 143.217 33.5713C143.635 34.0285 143.955 34.5695 144.155 35.1595C144.356 35.7495 144.432 36.3754 144.379 36.997L139.803 101.532C139.691 102.839 139.107 104.058 138.162 104.954C137.217 105.85 135.979 106.361 134.685 106.386Z" fill="#263238"/>
<path d="M144.156 37.6022L141.539 74.6219L141.876 74.6464L144.493 37.6267L144.156 37.6022Z" fill="white"/>
<path d="M141.324 77.8452L140.418 90.6658L140.755 90.6903L141.661 77.8697L141.324 77.8452Z" fill="white"/>
<path d="M134.488 105.166H48.8183C48.339 105.171 47.864 105.074 47.4238 104.883C46.9835 104.691 46.5877 104.407 46.2618 104.051C45.9359 103.695 45.6872 103.273 45.5315 102.813C45.3759 102.354 45.3168 101.866 45.3581 101.382L49.9024 37.1111C49.9901 36.0919 50.4469 35.1416 51.1846 34.4436C51.9223 33.7456 52.8888 33.3493 53.8976 33.3311H139.581C140.06 33.3259 140.535 33.4222 140.975 33.614C141.415 33.8058 141.811 34.0887 142.137 34.4446C142.462 34.8006 142.711 35.2217 142.867 35.6809C143.023 36.1401 143.082 36.6273 143.042 37.1111L138.497 101.389C138.409 102.41 137.949 103.362 137.209 104.059C136.468 104.757 135.499 105.151 134.488 105.166Z" fill="white"/>
<path opacity="0.2" d="M134.488 105.166H48.8183C48.339 105.171 47.864 105.074 47.4238 104.883C46.9835 104.691 46.5877 104.407 46.2618 104.051C45.9359 103.695 45.6872 103.273 45.5315 102.813C45.3759 102.354 45.3168 101.866 45.3581 101.382L49.9024 37.1111C49.9901 36.0919 50.4469 35.1416 51.1846 34.4436C51.9223 33.7456 52.8888 33.3493 53.8976 33.3311H139.581C140.06 33.3259 140.535 33.4222 140.975 33.614C141.415 33.8058 141.811 34.0887 142.137 34.4446C142.462 34.8006 142.711 35.2217 142.867 35.6809C143.023 36.1401 143.082 36.6273 143.042 37.1111L138.497 101.389C138.409 102.41 137.949 103.362 137.209 104.059C136.468 104.757 135.499 105.151 134.488 105.166Z" fill="#407BFF"/>
<path opacity="0.5" d="M70.7972 102.317H50.7895C50.5579 102.32 50.3283 102.274 50.1154 102.181C49.9026 102.089 49.7112 101.952 49.5537 101.78C49.3962 101.607 49.276 101.404 49.2008 101.182C49.1257 100.959 49.0973 100.724 49.1175 100.49L53.5316 38.025C53.5734 37.5318 53.7941 37.0719 54.1511 36.7342C54.5081 36.3966 54.976 36.2054 55.4641 36.1974H75.4718C75.7035 36.194 75.9334 36.24 76.1465 36.3324C76.3596 36.4248 76.5512 36.5616 76.7088 36.7339C76.8665 36.9062 76.9866 37.1102 77.0616 37.3326C77.1365 37.555 77.1645 37.7909 77.1437 38.025L72.7297 100.49C72.6871 100.983 72.4661 101.442 72.1093 101.78C71.7525 102.117 71.285 102.309 70.7972 102.317Z" fill="white"/>
<path opacity="0.4" d="M70.0227 44.9924H59.6669C59.4584 44.9947 59.2517 44.9527 59.0602 44.8693C58.8686 44.7858 58.6964 44.6626 58.5546 44.5077C58.4127 44.3527 58.3044 44.1695 58.2365 43.9696C58.1686 43.7697 58.1426 43.5576 58.1603 43.3469L58.2729 41.7371C58.3111 41.2935 58.5099 40.8799 58.831 40.576C59.1521 40.2722 59.5727 40.0997 60.0118 40.0916H70.3712C70.5796 40.0894 70.7863 40.1313 70.9778 40.2148C71.1694 40.2983 71.3416 40.4215 71.4835 40.5764C71.6253 40.7313 71.7337 40.9146 71.8016 41.1145C71.8695 41.3144 71.8954 41.5265 71.8777 41.7371L71.7616 43.3469C71.7272 43.7921 71.5296 44.208 71.2077 44.5126C70.8858 44.8172 70.463 44.9884 70.0227 44.9924Z" fill="#407BFF"/>
<path d="M63.4368 70.264H47.6285C47.2659 70.2687 46.9062 70.1965 46.5727 70.0521C46.2391 69.9077 45.9389 69.6943 45.6914 69.4255C45.4439 69.1567 45.2545 68.8384 45.1352 68.4911C45.016 68.1438 44.9696 67.775 44.9991 67.4084L46.136 51.3603C46.2062 50.589 46.5546 49.871 47.1145 49.344C47.6744 48.8171 48.4065 48.5182 49.1703 48.5048H64.9821C65.3445 48.5006 65.7037 48.5731 66.0369 48.7178C66.37 48.8624 66.6697 49.0759 66.9169 49.3446C67.164 49.6134 67.3531 49.9315 67.4721 50.2785C67.5912 50.6256 67.6374 50.9941 67.608 51.3603L66.4746 67.3942C66.4084 68.169 66.0612 68.8914 65.5 69.4215C64.9389 69.9517 64.2037 70.2518 63.4368 70.264Z" fill="#407BFF"/>
<path d="M65.7037 57.1285C65.4118 57.1344 65.1324 57.2496 64.9193 57.4519C64.7061 57.6542 64.5743 57.9293 64.5492 58.2243L64.3837 60.5515C64.3719 60.6916 64.3892 60.8327 64.4344 60.9656C64.4797 61.0986 64.5519 61.2204 64.6464 61.3233C64.7409 61.4262 64.8556 61.5079 64.9832 61.5631C65.1107 61.6183 65.2483 61.6458 65.3869 61.6438H66.9921C67.0645 61.6431 67.134 61.6148 67.1868 61.5645C67.2396 61.5143 67.2719 61.4457 67.2772 61.3725L67.5588 57.3997C67.5617 57.3649 67.5575 57.3298 67.5462 57.2967C67.5349 57.2636 67.5169 57.2333 67.4933 57.2077C67.4698 57.1821 67.4412 57.1619 67.4094 57.1482C67.3776 57.1346 67.3434 57.1278 67.3089 57.1285H65.7037Z" fill="white"/>
<path d="M59.6035 52.5704H49.656C49.6004 52.5711 49.5452 52.56 49.4941 52.5377C49.443 52.5155 49.397 52.4826 49.3592 52.4412C49.3214 52.3999 49.2926 52.3509 49.2746 52.2975C49.2566 52.2441 49.2498 52.1875 49.2547 52.1313C49.2644 52.0126 49.3173 51.9018 49.4033 51.8206C49.4892 51.7394 49.6019 51.6937 49.7194 51.6923H59.6845C59.7401 51.6916 59.7953 51.7027 59.8464 51.7249C59.8975 51.7472 59.9435 51.78 59.9813 51.8214C60.0191 51.8628 60.048 51.9118 60.066 51.9651C60.084 52.0185 60.0907 52.0751 60.0858 52.1313C60.0751 52.2528 60.0194 52.3657 59.9299 52.4471C59.8404 52.5286 59.7238 52.5727 59.6035 52.5704Z" fill="white"/>
<path d="M59.4486 54.8012H49.48C49.4244 54.802 49.3692 54.7908 49.3181 54.7686C49.267 54.7464 49.221 54.7135 49.1832 54.6721C49.1454 54.6307 49.1165 54.5818 49.0985 54.5284C49.0805 54.475 49.0738 54.4184 49.0787 54.3622C49.0892 54.2441 49.1425 54.1342 49.2284 54.0537C49.3142 53.9733 49.4265 53.928 49.5433 53.9267H59.512C59.5675 53.9255 59.6225 53.9362 59.6737 53.958C59.7248 53.9798 59.7708 54.0124 59.8087 54.0535C59.8465 54.0946 59.8754 54.1433 59.8935 54.1965C59.9115 54.2497 59.9182 54.3062 59.9133 54.3622C59.9036 54.4809 59.8507 54.5917 59.7647 54.6729C59.6788 54.7541 59.5661 54.7999 59.4486 54.8012Z" fill="white"/>
<path d="M55.8442 57.0357H49.3216C49.2661 57.0359 49.2112 57.0244 49.1603 57.002C49.1095 56.9795 49.0637 56.9467 49.026 56.9054C48.9883 56.8641 48.9595 56.8154 48.9413 56.7623C48.9231 56.7091 48.9159 56.6527 48.9203 56.5967C48.93 56.478 48.9829 56.3672 49.0689 56.286C49.1548 56.2048 49.2675 56.159 49.385 56.1576H55.9075C55.9631 56.1569 56.0183 56.168 56.0694 56.1903C56.1206 56.2125 56.1665 56.2454 56.2043 56.2868C56.2421 56.3281 56.271 56.3771 56.289 56.4305C56.307 56.4839 56.3137 56.5405 56.3088 56.5967C56.2984 56.7151 56.2452 56.8254 56.1594 56.9065C56.0737 56.9875 55.9614 57.0335 55.8442 57.0357Z" fill="white"/>
<path opacity="0.5" d="M59.6317 67.6725H50.008C49.7701 67.6754 49.5342 67.6278 49.3156 67.5326C49.0969 67.4374 48.9004 67.2969 48.7385 67.12C48.5767 66.9432 48.4532 66.7339 48.376 66.5057C48.2988 66.2774 48.2696 66.0354 48.2903 65.795L48.6423 60.6586C48.6849 60.1528 48.9113 59.6811 49.2774 59.3348C49.6436 58.9886 50.1234 58.7925 50.624 58.7847H60.2653C60.5029 58.7818 60.7384 58.8294 60.9568 58.9243C61.1752 59.0193 61.3716 59.1595 61.5334 59.336C61.6951 59.5124 61.8187 59.7213 61.8961 59.9491C61.9736 60.1768 62.0032 60.4185 61.9831 60.6586L61.6311 65.795C61.5874 66.3039 61.3584 66.7781 60.9888 67.1251C60.6192 67.4722 60.1354 67.6673 59.6317 67.6725Z" fill="white"/>
<path opacity="0.4" d="M68.6323 76.2677H56.6362C56.5329 76.2691 56.4306 76.2485 56.3356 76.2073C56.2407 76.1662 56.1554 76.1053 56.0851 76.0286C56.0148 75.9519 55.9611 75.8612 55.9275 75.7622C55.8939 75.6632 55.8811 75.5582 55.8899 75.4539C55.9091 75.2341 56.0078 75.0293 56.167 74.879C56.3263 74.7287 56.5348 74.6436 56.7523 74.64H68.7485C68.8514 74.6392 68.9534 74.6601 69.0479 74.7015C69.1424 74.7429 69.2273 74.8039 69.2973 74.8805C69.3672 74.9571 69.4206 75.0477 69.4539 75.1464C69.4873 75.2451 69.5 75.3499 69.4912 75.4539C69.4729 75.6733 69.3749 75.8781 69.2163 76.0284C69.0576 76.1788 68.8495 76.2641 68.6323 76.2677Z" fill="#407BFF"/>
<path opacity="0.8" d="M66.2 79.4623H58.6038C58.5006 79.4637 58.3982 79.4431 58.3033 79.402C58.2084 79.3608 58.123 79.2999 58.0527 79.2232C57.9824 79.1466 57.9287 79.0558 57.8951 78.9568C57.8615 78.8578 57.8487 78.7528 57.8576 78.6485C57.8759 78.429 57.9739 78.2243 58.1325 78.0739C58.2912 77.9236 58.4993 77.8383 58.7165 77.8347H66.3302C66.4333 77.8332 66.5356 77.8538 66.6303 77.895C66.7251 77.9362 66.8102 77.9972 66.8803 78.0739C66.9503 78.1506 67.0036 78.2414 67.0368 78.3404C67.07 78.4394 67.0823 78.5444 67.0729 78.6485C67.0544 78.8704 66.9544 79.0771 66.7928 79.2278C66.6311 79.3785 66.4196 79.4622 66.2 79.4623Z" fill="white"/>
<path opacity="0.4" d="M68.0093 85.0806H56.0132C55.9101 85.0814 55.808 85.0605 55.7133 85.0191C55.6187 84.9777 55.5335 84.9168 55.4633 84.8403C55.3931 84.7637 55.3394 84.6732 55.3056 84.5745C55.2718 84.4757 55.2586 84.3709 55.2669 84.2667C55.2861 84.047 55.3848 83.8422 55.544 83.6919C55.7033 83.5416 55.9118 83.4565 56.1293 83.4529H68.1255C68.2284 83.452 68.3304 83.473 68.4249 83.5144C68.5194 83.5558 68.6044 83.6167 68.6743 83.6933C68.7442 83.77 68.7976 83.8605 68.831 83.9593C68.8644 84.058 68.877 84.1627 68.8682 84.2667C68.8499 84.4862 68.752 84.6909 68.5933 84.8413C68.4346 84.9917 68.2265 85.0769 68.0093 85.0806Z" fill="#407BFF"/>
<path opacity="0.8" d="M65.591 88.2716H57.9808C57.8777 88.2735 57.7754 88.2534 57.6805 88.2126C57.5856 88.1718 57.5002 88.1113 57.4298 88.0349C57.3595 87.9585 57.3057 87.868 57.2721 87.7692C57.2384 87.6704 57.2257 87.5655 57.2346 87.4614C57.253 87.2401 57.3525 87.0338 57.5134 86.8832C57.6743 86.7326 57.885 86.6485 58.104 86.6475H65.7072C65.8104 86.6461 65.9128 86.6667 66.0077 86.7079C66.1026 86.7491 66.188 86.8099 66.2583 86.8866C66.3286 86.9633 66.3823 87.054 66.4159 87.153C66.4495 87.252 66.4623 87.357 66.4534 87.4614C66.4343 87.6808 66.3354 87.8851 66.1761 88.0348C66.0167 88.1846 65.8082 88.2689 65.591 88.2716Z" fill="white"/>
<path opacity="0.4" d="M67.3863 93.8935H55.3901C55.2871 93.8943 55.1849 93.8734 55.0903 93.832C54.9956 93.7906 54.9105 93.7298 54.8403 93.6532C54.7701 93.5767 54.7164 93.4861 54.6826 93.3874C54.6488 93.2886 54.6356 93.1838 54.6439 93.0796C54.6622 92.8596 54.7607 92.6543 54.9202 92.5039C55.0796 92.3534 55.2885 92.2686 55.5063 92.2658H67.5025C67.6056 92.2644 67.7078 92.2849 67.8025 92.3262C67.8973 92.3674 67.9825 92.4283 68.0525 92.505C68.1225 92.5818 68.1759 92.6726 68.2091 92.7716C68.2423 92.8706 68.2546 92.9755 68.2452 93.0796C68.2269 93.2991 68.1289 93.5038 67.9702 93.6542C67.8115 93.8046 67.6034 93.8898 67.3863 93.8935Z" fill="#407BFF"/>
<path opacity="0.8" d="M64.968 97.0845H57.3577C57.2545 97.0858 57.1521 97.0653 57.0572 97.0241C56.9623 96.9829 56.8769 96.922 56.8066 96.8454C56.7363 96.7687 56.6826 96.678 56.649 96.579C56.6154 96.48 56.6026 96.3749 56.6115 96.2706C56.6305 96.0515 56.7288 95.8472 56.8873 95.697C57.0458 95.5468 57.2535 95.4612 57.4704 95.4568H65.0841C65.1872 95.456 65.2893 95.4769 65.384 95.5183C65.4787 95.5596 65.5638 95.6205 65.634 95.6971C65.7042 95.7736 65.7579 95.8642 65.7917 95.9629C65.8255 96.0616 65.8387 96.1665 65.8304 96.2706C65.812 96.4907 65.7135 96.6959 65.5541 96.8464C65.3947 96.9968 65.1857 97.0817 64.968 97.0845Z" fill="white"/>
<path opacity="0.5" d="M135.431 83.9955C135.952 83.1888 137.146 83.5279 137.079 84.4595L135.924 100.793C135.864 101.632 135.238 102.317 134.516 102.317H76.5031C75.7991 102.317 75.2641 101.632 75.3239 100.793L76.0279 91.0879C76.0514 90.7793 76.1418 90.4797 76.2926 90.2106C76.4435 89.9415 76.6511 89.7096 76.9006 89.5312C77.1501 89.3529 77.4353 89.2326 77.736 89.179C78.0366 89.1254 78.3452 89.1398 78.6397 89.2211C81.9098 90.2527 84.7117 89.6459 87.3165 88.3359C92.8852 85.5339 97.5457 79.5159 103.949 79.5159C104.195 79.5159 104.438 79.5159 104.674 79.5373C114.199 80.1191 117.099 92.1195 124.477 92.1195C126.66 92.1195 128.648 91.1629 130.384 89.8029C132.489 88.136 134.224 85.8623 135.431 83.9955Z" fill="#407BFF"/>
<path opacity="0.5" d="M136.635 90.7238L135.931 100.793C135.871 101.632 135.245 102.317 134.523 102.317H76.5031C75.7991 102.317 75.2641 101.632 75.3239 100.793L76.7319 80.783C76.8269 79.4123 78.5975 78.8341 79.3156 79.9442C81.1671 82.7997 84.0148 86.5083 87.2919 88.3358C88.483 89.0408 89.831 89.4276 91.2097 89.4602C95.8983 89.4602 99.8865 83.8241 104.649 79.5372C107.567 76.9101 110.777 74.7899 114.618 74.7899C122.633 74.7899 123.815 87.9968 130.359 89.8029C131.619 90.1598 133.08 90.0777 134.826 89.3995C135.032 89.309 135.259 89.2744 135.482 89.2992C135.706 89.3239 135.919 89.4071 136.102 89.5405C136.284 89.674 136.429 89.8533 136.523 90.0607C136.616 90.2681 136.655 90.4966 136.635 90.7238Z" fill="#407BFF"/>
<g opacity="0.8">
<path d="M136.92 86.8188C136.889 86.8177 136.859 86.805 136.836 86.7831C136.824 86.7724 136.816 86.7589 136.811 86.7439C136.808 86.7286 136.808 86.7128 136.811 86.6975C136.811 86.6815 136.814 86.6657 136.82 86.651C136.826 86.6363 136.835 86.6229 136.846 86.6118C136.869 86.5891 136.899 86.5764 136.931 86.5764C136.962 86.5764 136.993 86.5891 137.015 86.6118C137.027 86.6227 137.036 86.6359 137.042 86.6507C137.048 86.6655 137.051 86.6815 137.05 86.6975C137.052 86.7129 137.052 86.7285 137.05 86.7439C137.043 86.7584 137.034 86.7716 137.022 86.7831C137.009 86.7966 136.993 86.8068 136.975 86.8129C136.958 86.8191 136.939 86.8211 136.92 86.8188Z" fill="white"/>
<path d="M80.5052 95.182C80.4735 95.182 80.4431 95.1692 80.4206 95.1464C80.3982 95.1237 80.3856 95.0928 80.3856 95.0606C80.3865 95.029 80.3995 94.9991 80.4218 94.9771C80.4442 94.9551 80.4741 94.9428 80.5052 94.9428C80.537 94.9428 80.5674 94.9556 80.5899 94.9784C80.6123 95.0011 80.6249 95.032 80.6249 95.0642C80.6249 95.0967 80.6124 95.1279 80.5901 95.1513C80.5677 95.1746 80.5373 95.1882 80.5052 95.1891V95.182ZM79.2979 95.1142C79.282 95.1133 79.2664 95.1091 79.2521 95.1019C79.2379 95.0947 79.2252 95.0846 79.215 95.0722C79.2048 95.0598 79.1972 95.0454 79.1926 95.0299C79.1881 95.0144 79.1868 94.9981 79.1888 94.9821C79.1905 94.9661 79.1954 94.9506 79.2031 94.9366C79.2107 94.9225 79.2211 94.9101 79.2335 94.9002C79.246 94.8902 79.2603 94.8828 79.2755 94.8785C79.2908 94.8742 79.3068 94.873 79.3225 94.875C79.3537 94.8786 79.3822 94.8945 79.4019 94.9191C79.4217 94.9438 79.4311 94.9754 79.4281 95.0071C79.4247 95.0371 79.4107 95.0648 79.3887 95.0851C79.3667 95.1055 79.3382 95.1171 79.3084 95.1177L79.2979 95.1142ZM81.5753 95.0071C81.5734 94.9911 81.5745 94.9749 81.5788 94.9594C81.5831 94.9439 81.5903 94.9295 81.6001 94.9168C81.61 94.9042 81.6222 94.8937 81.636 94.8859C81.6499 94.8781 81.6652 94.8732 81.6809 94.8714C81.6967 94.8694 81.7126 94.8706 81.7279 94.875C81.7432 94.8793 81.7574 94.8866 81.7699 94.8966C81.7823 94.9066 81.7927 94.9189 81.8004 94.933C81.8081 94.9471 81.8129 94.9625 81.8147 94.9785C81.8166 94.9945 81.8155 95.0107 81.8112 95.0261C81.8069 95.0416 81.7997 95.0561 81.7898 95.0687C81.78 95.0814 81.7678 95.0919 81.754 95.0997C81.7401 95.1075 81.7248 95.1124 81.7091 95.1142C81.6933 95.1161 81.6774 95.1149 81.6621 95.1106C81.6468 95.1063 81.6326 95.0989 81.6201 95.089C81.6077 95.079 81.5973 95.0666 81.5896 95.0526C81.5819 95.0385 81.5771 95.023 81.5753 95.0071ZM78.1081 94.9285C78.0769 94.9209 78.0498 94.9015 78.0322 94.8743C78.0145 94.8472 78.0077 94.8143 78.0131 94.7822C78.0206 94.7506 78.0397 94.7231 78.0665 94.7052C78.0933 94.6873 78.1258 94.6804 78.1574 94.6858C78.1886 94.6935 78.2157 94.7129 78.2333 94.74C78.251 94.7672 78.2578 94.8001 78.2524 94.8322C78.2461 94.8595 78.2308 94.884 78.2091 94.9014C78.1874 94.9189 78.1605 94.9285 78.1328 94.9285H78.1081ZM82.751 94.8072C82.7468 94.7915 82.7457 94.7751 82.7479 94.7589C82.7501 94.7428 82.7554 94.7273 82.7637 94.7133C82.7719 94.6993 82.7828 94.6871 82.7957 94.6775C82.8087 94.6679 82.8234 94.661 82.839 94.6573C82.8697 94.6507 82.9018 94.6562 82.9286 94.6728C82.9555 94.6894 82.975 94.7158 82.9833 94.7465C82.9908 94.7782 82.9858 94.8116 82.9694 94.8396C82.953 94.8676 82.9264 94.888 82.8953 94.8964H82.8672C82.8395 94.8989 82.8118 94.8913 82.7892 94.8749C82.7666 94.8586 82.7506 94.8345 82.744 94.8072H82.751ZM121.249 94.8572C121.218 94.8572 121.187 94.8444 121.165 94.8216C121.142 94.7988 121.13 94.768 121.13 94.7358C121.13 94.7036 121.142 94.6727 121.165 94.65C121.187 94.6272 121.218 94.6144 121.249 94.6144C121.281 94.6144 121.311 94.6272 121.334 94.65C121.356 94.6727 121.369 94.7036 121.369 94.7358C121.369 94.768 121.356 94.7988 121.334 94.8216C121.311 94.8444 121.281 94.8572 121.249 94.8572ZM122.323 94.6858C122.321 94.6701 122.322 94.6541 122.326 94.6388C122.331 94.6235 122.338 94.6093 122.348 94.597C122.358 94.5846 122.37 94.5744 122.384 94.567C122.398 94.5596 122.413 94.5551 122.428 94.5538C122.444 94.5512 122.46 94.5521 122.476 94.5562C122.491 94.5603 122.506 94.5676 122.518 94.5777C122.531 94.5877 122.541 94.6003 122.549 94.6146C122.556 94.6289 122.561 94.6447 122.562 94.6608C122.565 94.6934 122.555 94.7259 122.535 94.7513C122.515 94.7766 122.485 94.7929 122.453 94.7965C122.422 94.7985 122.39 94.7881 122.366 94.7676C122.342 94.747 122.326 94.7177 122.323 94.6858ZM120.045 94.7822C120.03 94.7805 120.015 94.7755 120.001 94.7677C119.987 94.7598 119.975 94.7492 119.966 94.7366C119.956 94.7239 119.949 94.7094 119.945 94.6939C119.942 94.6784 119.941 94.6623 119.943 94.6466C119.945 94.6306 119.95 94.6151 119.958 94.601C119.965 94.587 119.976 94.5746 119.988 94.5646C120.001 94.5547 120.015 94.5473 120.03 94.543C120.045 94.5387 120.061 94.5375 120.077 94.5395C120.109 94.5439 120.137 94.5605 120.157 94.5858C120.176 94.6111 120.186 94.6431 120.183 94.6751C120.179 94.7051 120.165 94.7328 120.143 94.7532C120.121 94.7735 120.093 94.7851 120.063 94.7858L120.045 94.7822ZM76.9395 94.6358C76.9242 94.6317 76.9098 94.6245 76.8973 94.6148C76.8847 94.605 76.8742 94.5927 76.8664 94.5788C76.8585 94.5648 76.8534 94.5495 76.8515 94.5335C76.8495 94.5176 76.8507 94.5014 76.855 94.4859C76.8648 94.4548 76.8859 94.4287 76.914 94.4128C76.9421 94.3968 76.9751 94.3924 77.0064 94.4003C77.0369 94.4102 77.0624 94.4317 77.0775 94.4604C77.0926 94.489 77.0962 94.5225 77.0873 94.5538C77.0802 94.5792 77.0649 94.6014 77.0439 94.617C77.0228 94.6325 76.9972 94.6404 76.9712 94.6394H76.9395V94.6358ZM123.506 94.5181C123.502 94.5023 123.502 94.486 123.505 94.4701C123.507 94.4542 123.514 94.4391 123.522 94.4257C123.531 94.4123 123.543 94.4009 123.556 94.3923C123.57 94.3836 123.585 94.3778 123.601 94.3753C123.616 94.3722 123.632 94.3722 123.648 94.3754C123.663 94.3785 123.678 94.3848 123.691 94.3937C123.704 94.4027 123.715 94.4142 123.724 94.4276C123.732 94.4409 123.738 94.4559 123.741 94.4717C123.744 94.4874 123.744 94.5035 123.741 94.5192C123.738 94.5349 123.732 94.5498 123.723 94.5631C123.714 94.5764 123.703 94.5877 123.69 94.5966C123.677 94.6054 123.662 94.6114 123.646 94.6144H123.625C123.598 94.6144 123.571 94.6048 123.549 94.5873C123.527 94.5698 123.512 94.5454 123.506 94.5181ZM118.863 94.5609C118.847 94.5581 118.832 94.5519 118.819 94.5427C118.806 94.5336 118.794 94.5217 118.786 94.5079C118.778 94.494 118.772 94.4785 118.77 94.4624C118.769 94.4464 118.77 94.43 118.775 94.4145C118.782 94.3833 118.802 94.3564 118.829 94.3397C118.856 94.3229 118.888 94.3178 118.919 94.3253C118.95 94.3329 118.976 94.3526 118.993 94.38C119.009 94.4075 119.014 94.4404 119.007 94.4717C119.001 94.4981 118.986 94.5216 118.965 94.5384C118.944 94.5553 118.918 94.5644 118.891 94.5645H118.863V94.5609ZM83.8915 94.4609C83.8853 94.446 83.8823 94.4299 83.8825 94.4138C83.8828 94.3976 83.8863 94.3816 83.8929 94.3669C83.8995 94.3521 83.9091 94.3389 83.9209 94.3281C83.9328 94.3173 83.9467 94.309 83.9619 94.3039C83.9913 94.2922 84.0241 94.2927 84.0531 94.3054C84.0821 94.3181 84.105 94.342 84.1168 94.3717C84.1224 94.3867 84.125 94.4027 84.1245 94.4187C84.124 94.4347 84.1204 94.4505 84.1139 94.4651C84.1073 94.4797 84.098 94.4929 84.0864 94.5038C84.0748 94.5147 84.0612 94.5232 84.0464 94.5288C84.0325 94.532 84.018 94.532 84.0041 94.5288C83.9809 94.5293 83.9581 94.5233 83.9382 94.5113C83.9182 94.4993 83.9021 94.4818 83.8915 94.4609ZM124.671 94.2504C124.666 94.2347 124.664 94.2181 124.666 94.2018C124.668 94.1854 124.673 94.1696 124.68 94.1553C124.688 94.1409 124.699 94.1283 124.712 94.1183C124.725 94.1082 124.739 94.101 124.755 94.0969C124.77 94.0925 124.786 94.0913 124.802 94.0933C124.818 94.0953 124.833 94.1004 124.847 94.1084C124.86 94.1164 124.873 94.127 124.882 94.1397C124.892 94.1525 124.899 94.167 124.903 94.1825C124.907 94.198 124.908 94.2142 124.906 94.2301C124.905 94.2461 124.899 94.2614 124.892 94.2754C124.884 94.2893 124.873 94.3016 124.861 94.3114C124.848 94.3211 124.834 94.3283 124.819 94.3325H124.787C124.761 94.3331 124.736 94.3255 124.715 94.3107C124.695 94.2959 124.679 94.2748 124.671 94.2504ZM117.708 94.2075C117.678 94.197 117.654 94.1749 117.64 94.1462C117.626 94.1174 117.624 94.0843 117.634 94.054C117.645 94.0236 117.668 93.9987 117.697 93.9847C117.726 93.9707 117.759 93.9687 117.789 93.9791C117.819 93.9904 117.844 94.0131 117.857 94.0424C117.871 94.0717 117.873 94.1053 117.863 94.1361C117.854 94.1596 117.838 94.1797 117.817 94.1937C117.796 94.2077 117.772 94.215 117.747 94.2147C117.734 94.2161 117.72 94.2136 117.708 94.2075ZM84.9721 93.9791C84.9648 93.9648 84.9605 93.9492 84.9592 93.9332C84.9579 93.9172 84.9598 93.9011 84.9647 93.8858C84.9696 93.8705 84.9774 93.8564 84.9878 93.8442C84.9981 93.832 85.0108 93.8221 85.0249 93.8149C85.0539 93.8012 85.0871 93.7995 85.1173 93.8102C85.1475 93.8209 85.1724 93.843 85.1868 93.872C85.194 93.886 85.1984 93.9013 85.1996 93.9171C85.2008 93.9328 85.1989 93.9487 85.194 93.9637C85.1891 93.9786 85.1812 93.9925 85.1709 94.0043C85.1606 94.0162 85.1481 94.0258 85.134 94.0326C85.1156 94.038 85.0961 94.038 85.0777 94.0326C85.0594 94.0314 85.0417 94.0259 85.0258 94.0166C85.0099 94.0074 84.9964 93.9945 84.9862 93.9791H84.9721ZM125.804 93.8934C125.799 93.8787 125.796 93.8629 125.796 93.8472C125.797 93.8314 125.801 93.8159 125.807 93.8015C125.814 93.7872 125.823 93.7744 125.835 93.7638C125.846 93.7532 125.86 93.7451 125.875 93.7399C125.904 93.7306 125.937 93.7332 125.965 93.7471C125.993 93.761 126.015 93.7852 126.026 93.8149C126.036 93.8457 126.034 93.8793 126.02 93.9086C126.007 93.9379 125.982 93.9606 125.952 93.9719H125.913C125.891 93.9694 125.87 93.9607 125.853 93.9468C125.836 93.9329 125.822 93.9145 125.815 93.8934H125.804ZM116.585 93.7435C116.571 93.7369 116.558 93.7276 116.547 93.716C116.536 93.7043 116.528 93.6907 116.522 93.6758C116.517 93.6608 116.514 93.645 116.515 93.629C116.515 93.6131 116.519 93.5974 116.525 93.5829C116.539 93.5541 116.563 93.5318 116.593 93.5206C116.622 93.5093 116.655 93.5099 116.684 93.5222C116.699 93.5287 116.712 93.5382 116.723 93.5501C116.734 93.562 116.743 93.576 116.748 93.5914C116.754 93.6067 116.756 93.623 116.755 93.6393C116.755 93.6557 116.751 93.6717 116.744 93.6864C116.734 93.7074 116.718 93.7252 116.699 93.7378C116.68 93.7504 116.657 93.7574 116.635 93.7578C116.621 93.7565 116.607 93.7516 116.596 93.7435H116.585ZM126.92 93.4651C126.914 93.4504 126.911 93.4345 126.911 93.4185C126.911 93.4025 126.914 93.3867 126.92 93.372C126.926 93.3573 126.935 93.344 126.947 93.333C126.958 93.322 126.972 93.3135 126.987 93.308C127.001 93.3011 127.017 93.2972 127.032 93.2968C127.048 93.2963 127.064 93.2992 127.078 93.3052C127.093 93.3113 127.106 93.3204 127.117 93.3319C127.128 93.3435 127.136 93.3572 127.142 93.3723C127.148 93.387 127.152 93.4029 127.152 93.419C127.152 93.4351 127.149 93.4511 127.143 93.466C127.137 93.481 127.129 93.4946 127.117 93.5061C127.106 93.5176 127.093 93.5267 127.078 93.5329C127.063 93.5363 127.048 93.5363 127.033 93.5329C127.011 93.5316 126.991 93.5246 126.973 93.5127C126.955 93.5008 126.94 93.4844 126.931 93.4651H126.92ZM86.0176 93.3937C86.0004 93.3657 85.9949 93.332 86.0022 93.2999C86.0094 93.2679 86.0289 93.24 86.0563 93.2224C86.0697 93.2139 86.0846 93.2081 86.1002 93.2055C86.1157 93.2029 86.1317 93.2034 86.1471 93.2071C86.1624 93.2107 86.177 93.2174 86.1898 93.2268C86.2026 93.2361 86.2134 93.248 86.2217 93.2616C86.2301 93.2752 86.2357 93.2903 86.2383 93.3061C86.2409 93.3219 86.2404 93.3381 86.2368 93.3537C86.2332 93.3693 86.2266 93.384 86.2174 93.397C86.2081 93.41 86.1964 93.421 86.183 93.4294C86.1647 93.4433 86.1425 93.4508 86.1196 93.4508C86.1012 93.4487 86.0834 93.4424 86.0676 93.4326C86.0518 93.4227 86.0383 93.4094 86.0281 93.3937H86.0176ZM115.512 93.1974C115.483 93.1815 115.462 93.1551 115.453 93.1237C115.444 93.0923 115.447 93.0585 115.462 93.0296C115.479 93.0016 115.505 92.981 115.536 92.9724C115.567 92.9637 115.6 92.9676 115.628 92.9832C115.655 92.999 115.675 93.025 115.684 93.0558C115.693 93.0865 115.689 93.1194 115.674 93.1474C115.663 93.1666 115.648 93.1826 115.629 93.1939C115.611 93.2051 115.59 93.2113 115.568 93.2116C115.552 93.2092 115.537 93.2044 115.522 93.1974H115.512ZM128.015 92.9761C128.001 92.9472 128 92.9141 128.01 92.884C128.021 92.854 128.043 92.8293 128.071 92.8154C128.1 92.8018 128.133 92.8001 128.163 92.8108C128.194 92.8214 128.219 92.8436 128.233 92.8726C128.239 92.8871 128.243 92.9028 128.243 92.9187C128.244 92.9346 128.241 92.9505 128.236 92.9654C128.23 92.9804 128.222 92.994 128.211 93.0056C128.2 93.0173 128.187 93.0266 128.173 93.0332H128.12C128.101 93.0321 128.082 93.0264 128.066 93.0164C128.049 93.0065 128.035 92.9926 128.025 92.9761H128.015ZM87.0102 92.7226C86.9921 92.696 86.9849 92.6632 86.9901 92.6312C86.9954 92.5992 87.0127 92.5706 87.0384 92.5513C87.0643 92.5325 87.0963 92.5247 87.1278 92.5293C87.1593 92.534 87.1878 92.5508 87.2073 92.5763C87.2255 92.603 87.2327 92.6358 87.2274 92.6677C87.2221 92.6997 87.2049 92.7284 87.1792 92.7476C87.1586 92.7627 87.1341 92.7714 87.1088 92.7726C87.0914 92.771 87.0746 92.7658 87.0595 92.7572C87.0443 92.7486 87.0311 92.7368 87.0208 92.7226H87.0102ZM114.466 92.587C114.453 92.5789 114.441 92.5683 114.432 92.5556C114.423 92.5429 114.416 92.5285 114.413 92.5132C114.409 92.4979 114.409 92.482 114.411 92.4665C114.414 92.451 114.419 92.4361 114.427 92.4228C114.435 92.4086 114.445 92.3961 114.457 92.3861C114.47 92.3762 114.484 92.3689 114.499 92.3649C114.514 92.3608 114.53 92.3601 114.546 92.3627C114.561 92.3653 114.576 92.3712 114.589 92.38C114.603 92.3881 114.615 92.3989 114.625 92.4117C114.634 92.4246 114.641 92.4393 114.645 92.4549C114.649 92.4705 114.65 92.4867 114.648 92.5027C114.645 92.5186 114.64 92.534 114.632 92.5477C114.621 92.5657 114.606 92.5807 114.588 92.5913C114.57 92.6019 114.55 92.6078 114.53 92.6084C114.513 92.6044 114.498 92.5971 114.484 92.587H114.466ZM129.078 92.4335C129.063 92.4051 129.06 92.3719 129.069 92.3411C129.078 92.3103 129.099 92.2845 129.127 92.2693C129.155 92.2551 129.188 92.2524 129.218 92.2616C129.248 92.2709 129.273 92.2916 129.289 92.3193C129.304 92.3482 129.307 92.382 129.298 92.4134C129.289 92.4448 129.268 92.4712 129.24 92.4871C129.221 92.4903 129.202 92.4903 129.183 92.4871C129.166 92.4853 129.149 92.4796 129.133 92.4703C129.118 92.4611 129.105 92.4485 129.095 92.4335H129.078ZM87.9606 91.9909C87.9506 91.9785 87.9431 91.9642 87.9386 91.9489C87.9341 91.9335 87.9326 91.9175 87.9342 91.9015C87.9359 91.8856 87.9406 91.8702 87.9481 91.8561C87.9557 91.842 87.9659 91.8296 87.9782 91.8196C88.0032 91.8 88.0347 91.7909 88.0662 91.7943C88.0976 91.7976 88.1266 91.813 88.1472 91.8374C88.1689 91.8612 88.181 91.8924 88.181 91.9249C88.181 91.9573 88.1689 91.9886 88.1472 92.0123C88.1248 92.0291 88.0975 92.0378 88.0697 92.0373C88.0518 92.0381 88.0341 92.0342 88.018 92.0261C88.002 92.018 87.9883 92.0059 87.9782 91.9909H87.9606ZM113.452 91.9374C113.426 91.9198 113.407 91.8923 113.401 91.8609C113.394 91.8294 113.4 91.7966 113.417 91.7696C113.435 91.7424 113.463 91.7234 113.495 91.7167C113.526 91.7101 113.559 91.7162 113.586 91.7339C113.612 91.752 113.63 91.7795 113.637 91.8107C113.643 91.8419 113.638 91.8744 113.621 91.9017C113.611 91.9192 113.596 91.9337 113.578 91.9437C113.56 91.9537 113.54 91.9589 113.519 91.9588C113.502 91.9548 113.485 91.9476 113.47 91.9374H113.452ZM130.123 91.8481C130.115 91.8343 130.109 91.819 130.107 91.8031C130.105 91.7871 130.106 91.7709 130.11 91.7553C130.114 91.7396 130.12 91.725 130.13 91.7121C130.14 91.6993 130.152 91.6885 130.165 91.6804C130.193 91.6645 130.226 91.66 130.257 91.668C130.287 91.676 130.314 91.6958 130.331 91.7232C130.347 91.7513 130.351 91.7844 130.343 91.8157C130.335 91.847 130.316 91.874 130.289 91.891C130.269 91.9018 130.247 91.9079 130.225 91.9088C130.208 91.9058 130.191 91.8987 130.176 91.8882C130.162 91.8777 130.149 91.864 130.141 91.8481H130.123ZM112.456 91.2628C112.43 91.244 112.412 91.2156 112.406 91.1836C112.4 91.1516 112.407 91.1185 112.425 91.0914C112.444 91.0655 112.472 91.0478 112.503 91.0419C112.534 91.0359 112.567 91.0421 112.594 91.0593C112.619 91.0786 112.637 91.1069 112.642 91.1387C112.648 91.1704 112.642 91.2033 112.625 91.2306C112.614 91.2473 112.599 91.2609 112.581 91.2702C112.563 91.2795 112.543 91.2843 112.523 91.2842C112.505 91.2808 112.489 91.2735 112.474 91.2628H112.456ZM131.144 91.2199C131.128 91.1917 131.123 91.1583 131.13 91.1265C131.137 91.0947 131.156 91.0668 131.183 91.0486C131.196 91.0401 131.211 91.0344 131.227 91.0317C131.242 91.0291 131.258 91.0296 131.273 91.0333C131.289 91.0369 131.303 91.0436 131.316 91.053C131.329 91.0624 131.34 91.0742 131.348 91.0879C131.356 91.1014 131.362 91.1166 131.365 91.1324C131.367 91.1482 131.367 91.1643 131.363 91.1799C131.36 91.1955 131.353 91.2102 131.344 91.2232C131.335 91.2362 131.323 91.2472 131.309 91.2556C131.291 91.27 131.269 91.2776 131.246 91.277C131.229 91.2739 131.212 91.2673 131.198 91.2574C131.183 91.2476 131.171 91.2348 131.162 91.2199H131.144ZM88.904 91.2199C88.8824 91.1967 88.8704 91.1661 88.8704 91.1342C88.8704 91.1024 88.8824 91.0718 88.904 91.0486C88.9274 91.0265 88.9582 91.0142 88.9902 91.0142C89.0222 91.0142 89.053 91.0265 89.0764 91.0486C89.0988 91.0713 89.1113 91.1021 89.1113 91.1342C89.1113 91.1664 89.0988 91.1972 89.0764 91.2199C89.0661 91.2297 89.0539 91.2373 89.0406 91.2422C89.0273 91.2471 89.0131 91.2492 88.999 91.2485C88.9825 91.2516 88.9656 91.2514 88.9493 91.2477C88.933 91.244 88.9175 91.237 88.904 91.2271V91.2199ZM132.165 90.5489C132.147 90.5222 132.139 90.4894 132.145 90.4574C132.15 90.4255 132.167 90.3968 132.193 90.3775C132.206 90.3681 132.221 90.3615 132.236 90.358C132.252 90.3546 132.268 90.3543 132.284 90.3573C132.3 90.3603 132.315 90.3665 132.328 90.3755C132.342 90.3845 132.353 90.3961 132.362 90.4097C132.379 90.4362 132.386 90.4687 132.38 90.5001C132.374 90.5316 132.356 90.5593 132.33 90.5774C132.31 90.591 132.287 90.5984 132.263 90.5988C132.245 90.6 132.226 90.5967 132.209 90.5892C132.192 90.5818 132.177 90.5704 132.165 90.556V90.5489ZM111.485 90.5774C111.471 90.5688 111.46 90.5575 111.451 90.5443C111.442 90.531 111.436 90.5161 111.433 90.5004C111.43 90.4847 111.431 90.4686 111.434 90.453C111.437 90.4374 111.444 90.4226 111.453 90.4097C111.47 90.3827 111.498 90.3638 111.529 90.3571C111.56 90.3504 111.592 90.3565 111.619 90.374C111.632 90.3829 111.643 90.3945 111.652 90.4081C111.661 90.4216 111.667 90.4368 111.67 90.4528C111.673 90.4688 111.673 90.4852 111.669 90.5011C111.666 90.517 111.659 90.532 111.65 90.5453C111.64 90.5621 111.625 90.576 111.608 90.5853C111.591 90.5947 111.571 90.5994 111.552 90.5988C111.528 90.6006 111.505 90.5956 111.485 90.5846V90.5774ZM89.8227 90.4418C89.8112 90.4308 89.802 90.4175 89.7957 90.4028C89.7895 90.388 89.7862 90.3722 89.7862 90.3561C89.7862 90.3401 89.7895 90.3242 89.7957 90.3095C89.802 90.2947 89.8112 90.2815 89.8227 90.2705C89.8455 90.2486 89.8758 90.2365 89.9072 90.2365C89.9386 90.2365 89.9688 90.2486 89.9916 90.2705C90.014 90.2932 90.0265 90.324 90.0265 90.3561C90.0265 90.3882 90.014 90.419 89.9916 90.4418C89.9703 90.4609 89.9426 90.4711 89.9142 90.4703C89.8983 90.4737 89.8819 90.4735 89.8661 90.4698C89.8503 90.4661 89.8355 90.459 89.8227 90.4489V90.4418ZM110.492 89.9064C110.479 89.898 110.467 89.887 110.458 89.8739C110.449 89.8608 110.442 89.8459 110.439 89.8302C110.435 89.8145 110.435 89.7983 110.439 89.7825C110.442 89.7668 110.448 89.7518 110.457 89.7386C110.465 89.7249 110.476 89.713 110.489 89.7037C110.502 89.6944 110.517 89.6879 110.532 89.6845C110.548 89.6812 110.564 89.6811 110.579 89.6843C110.595 89.6874 110.609 89.6938 110.622 89.7029C110.649 89.7204 110.668 89.748 110.674 89.7794C110.681 89.8109 110.675 89.8437 110.658 89.8707C110.647 89.8875 110.633 89.9013 110.615 89.9107C110.598 89.9201 110.579 89.9248 110.559 89.9242C110.536 89.9277 110.513 89.924 110.492 89.9135V89.9064ZM133.143 89.8493C133.134 89.8367 133.127 89.8223 133.123 89.807C133.119 89.7917 133.118 89.7757 133.12 89.7601C133.123 89.7444 133.128 89.7294 133.136 89.7159C133.144 89.7024 133.155 89.6907 133.168 89.6815C133.194 89.6627 133.226 89.6548 133.257 89.6595C133.289 89.6642 133.317 89.681 133.337 89.7065C133.355 89.7332 133.362 89.766 133.357 89.7979C133.352 89.8299 133.334 89.8585 133.309 89.8778C133.288 89.8919 133.263 89.8993 133.238 89.8992C133.22 89.9007 133.202 89.8975 133.185 89.89C133.169 89.8826 133.154 89.871 133.143 89.8564V89.8493ZM90.7414 89.6672C90.719 89.6445 90.7065 89.6137 90.7065 89.5816C90.7065 89.5494 90.719 89.5186 90.7414 89.4959C90.7664 89.4763 90.7979 89.4672 90.8294 89.4706C90.8608 89.4739 90.8898 89.4893 90.9104 89.5137C90.9204 89.5261 90.9278 89.5404 90.9324 89.5558C90.9369 89.5711 90.9384 89.5872 90.9367 89.6031C90.9351 89.619 90.9304 89.6345 90.9228 89.6486C90.9153 89.6626 90.9051 89.675 90.8928 89.6851C90.8824 89.6948 90.8702 89.7024 90.8569 89.7073C90.8436 89.7122 90.8295 89.7144 90.8153 89.7136C90.7867 89.7103 90.7604 89.6963 90.7414 89.6744V89.6672ZM109.496 89.2532C109.483 89.2448 109.471 89.2338 109.462 89.2208C109.452 89.2078 109.446 89.1931 109.442 89.1775C109.439 89.1619 109.438 89.1457 109.441 89.1299C109.443 89.1141 109.449 89.099 109.457 89.0854C109.466 89.0718 109.476 89.0599 109.489 89.0506C109.502 89.0412 109.517 89.0345 109.532 89.0308C109.547 89.0272 109.563 89.0267 109.579 89.0293C109.594 89.0319 109.609 89.0376 109.623 89.0461C109.636 89.0545 109.648 89.0655 109.657 89.0785C109.666 89.0915 109.673 89.1062 109.676 89.1218C109.68 89.1374 109.681 89.1536 109.678 89.1694C109.675 89.1852 109.67 89.2003 109.661 89.2139C109.651 89.2319 109.636 89.2469 109.618 89.2575C109.6 89.2681 109.58 89.274 109.559 89.2746C109.536 89.2746 109.514 89.2671 109.496 89.2532ZM134.108 89.1247C134.098 89.1121 134.091 89.0976 134.087 89.0821C134.082 89.0666 134.081 89.0505 134.083 89.0345C134.085 89.0186 134.09 89.0032 134.098 88.9893C134.106 88.9753 134.116 88.9631 134.129 88.9533C134.141 88.9434 134.156 88.9361 134.171 88.9318C134.186 88.9275 134.202 88.9263 134.218 88.9283C134.234 88.9302 134.249 88.9354 134.262 88.9434C134.276 88.9514 134.288 88.962 134.298 88.9748C134.316 89.0009 134.324 89.0329 134.32 89.0646C134.316 89.0962 134.301 89.1253 134.277 89.1461C134.257 89.1625 134.232 89.1714 134.206 89.1711C134.187 89.1738 134.167 89.1717 134.149 89.1648C134.13 89.158 134.114 89.1466 134.101 89.1318L134.108 89.1247ZM91.6848 88.9176C91.6662 88.8914 91.6585 88.8589 91.6631 88.8269C91.6677 88.795 91.6843 88.7661 91.7094 88.7463C91.7353 88.7275 91.7673 88.7197 91.7988 88.7243C91.8303 88.729 91.8588 88.7458 91.8784 88.7713C91.8969 88.7975 91.9046 88.8301 91.9001 88.862C91.8955 88.8939 91.8789 88.9228 91.8537 88.9426C91.8332 88.9577 91.8087 88.9664 91.7833 88.9676C91.7636 88.9696 91.7437 88.9668 91.7254 88.9593C91.707 88.9518 91.6906 88.94 91.6777 88.9248L91.6848 88.9176ZM108.472 88.6357C108.458 88.6276 108.446 88.6168 108.436 88.6039C108.427 88.591 108.42 88.5764 108.416 88.5608C108.412 88.5451 108.411 88.5289 108.413 88.5129C108.416 88.497 108.421 88.4817 108.429 88.4679C108.437 88.4541 108.447 88.442 108.46 88.4323C108.472 88.4226 108.486 88.4156 108.501 88.4116C108.516 88.4076 108.532 88.4067 108.548 88.409C108.563 88.4113 108.578 88.4168 108.591 88.4251C108.605 88.4325 108.618 88.4427 108.627 88.4551C108.637 88.4676 108.645 88.4819 108.649 88.4972C108.653 88.5126 108.654 88.5286 108.652 88.5445C108.65 88.5603 108.645 88.5755 108.637 88.5893C108.627 88.6084 108.611 88.6244 108.593 88.6357C108.574 88.647 108.553 88.6531 108.531 88.6535C108.509 88.6554 108.486 88.6517 108.465 88.6428L108.472 88.6357ZM135.041 88.3679C135.031 88.3556 135.023 88.3413 135.019 88.3259C135.014 88.3106 135.013 88.2945 135.014 88.2786C135.016 88.2626 135.021 88.2472 135.028 88.2331C135.036 88.2191 135.046 88.2067 135.058 88.1966C135.07 88.1865 135.085 88.1789 135.1 88.1743C135.115 88.1697 135.131 88.1682 135.146 88.1699C135.162 88.1715 135.177 88.1763 135.191 88.184C135.205 88.1916 135.217 88.202 135.227 88.2145C135.249 88.2376 135.261 88.2683 135.261 88.3001C135.261 88.332 135.249 88.3626 135.227 88.3858C135.205 88.4029 135.178 88.4129 135.15 88.4144C135.129 88.419 135.107 88.4178 135.086 88.4109C135.066 88.404 135.048 88.3916 135.034 88.3751L135.041 88.3679ZM92.6563 88.2109C92.647 88.1976 92.6405 88.1826 92.6371 88.1667C92.6336 88.1508 92.6334 88.1344 92.6363 88.1184C92.6393 88.1025 92.6454 88.0872 92.6543 88.0737C92.6631 88.0601 92.6746 88.0485 92.688 88.0396C92.7151 88.0219 92.748 88.0157 92.7796 88.0224C92.8112 88.0291 92.839 88.0481 92.8569 88.0753C92.8742 88.1023 92.8802 88.1351 92.8736 88.1665C92.867 88.198 92.8483 88.2255 92.8217 88.243C92.8021 88.257 92.7788 88.2645 92.7548 88.2644C92.7348 88.266 92.7148 88.2626 92.6964 88.2545C92.678 88.2464 92.6618 88.2339 92.6492 88.218L92.6563 88.2109ZM107.44 88.061C107.412 88.0458 107.391 88.02 107.382 87.9892C107.373 87.9584 107.376 87.9252 107.391 87.8968C107.398 87.8824 107.408 87.8696 107.42 87.8591C107.432 87.8487 107.446 87.8407 107.461 87.8357C107.476 87.8307 107.492 87.8288 107.508 87.8301C107.523 87.8314 107.539 87.8359 107.553 87.8432C107.581 87.8597 107.601 87.886 107.611 87.9169C107.621 87.9479 107.619 87.9814 107.606 88.011C107.594 88.0302 107.578 88.0462 107.559 88.0574C107.54 88.0687 107.519 88.0748 107.497 88.0753C107.471 88.0823 107.443 88.0797 107.419 88.0681L107.44 88.061ZM135.952 87.5862C135.93 87.5635 135.917 87.5327 135.917 87.5006C135.917 87.4685 135.93 87.4377 135.952 87.4149C135.975 87.3931 136.005 87.3809 136.037 87.3809C136.068 87.3809 136.098 87.3931 136.121 87.4149C136.143 87.4381 136.155 87.4687 136.155 87.5006C136.155 87.5324 136.143 87.5631 136.121 87.5862C136.111 87.5965 136.099 87.6046 136.086 87.6101C136.072 87.6156 136.058 87.6185 136.044 87.6184C136.027 87.6213 136.01 87.6205 135.994 87.6162C135.977 87.6119 135.962 87.6041 135.949 87.5934L135.952 87.5862ZM93.656 87.572C93.6479 87.558 93.6426 87.5425 93.6406 87.5264C93.6385 87.5103 93.6396 87.4939 93.6439 87.4783C93.6481 87.4626 93.6555 87.448 93.6654 87.4353C93.6753 87.4226 93.6877 87.412 93.7017 87.4042C93.7293 87.3888 93.7618 87.385 93.7921 87.3937C93.8224 87.4024 93.8481 87.4228 93.8636 87.4506C93.8717 87.4646 93.877 87.4801 93.879 87.4962C93.8811 87.5123 93.88 87.5287 93.8757 87.5443C93.8714 87.5599 93.8641 87.5746 93.8542 87.5873C93.8443 87.6 93.8319 87.6106 93.8179 87.6184C93.7982 87.623 93.7777 87.623 93.758 87.6184C93.7386 87.6197 93.7191 87.6161 93.7013 87.608C93.6835 87.5999 93.668 87.5876 93.656 87.572ZM106.346 87.5506C106.331 87.544 106.318 87.5346 106.308 87.523C106.297 87.5114 106.288 87.4977 106.283 87.4828C106.277 87.4679 106.275 87.452 106.275 87.4361C106.276 87.4201 106.279 87.4045 106.286 87.3899C106.292 87.3754 106.301 87.3623 106.313 87.3514C106.324 87.3405 106.338 87.3319 106.353 87.3263C106.367 87.3207 106.383 87.318 106.399 87.3185C106.414 87.319 106.43 87.3227 106.444 87.3292C106.459 87.3354 106.472 87.3446 106.483 87.3561C106.494 87.3677 106.503 87.3814 106.508 87.3964C106.514 87.4115 106.516 87.4275 106.516 87.4436C106.515 87.4597 106.511 87.4754 106.504 87.4899C106.494 87.5112 106.479 87.5292 106.46 87.5419C106.44 87.5545 106.418 87.5613 106.395 87.5613C106.379 87.5607 106.364 87.5571 106.349 87.5506H106.346ZM105.251 87.1115C105.236 87.1064 105.222 87.0982 105.21 87.0873C105.198 87.0765 105.189 87.0633 105.182 87.0485C105.175 87.0338 105.172 87.0178 105.172 87.0017C105.171 86.9855 105.174 86.9694 105.18 86.9545C105.192 86.9247 105.215 86.9006 105.244 86.8873C105.273 86.874 105.305 86.8725 105.335 86.8831C105.365 86.895 105.388 86.9181 105.402 86.9473C105.415 86.9766 105.416 87.0098 105.406 87.0401C105.398 87.0636 105.382 87.0839 105.362 87.098C105.342 87.1121 105.318 87.1193 105.293 87.1187C105.279 87.1198 105.264 87.1174 105.251 87.1115ZM94.712 87.0116C94.6998 86.9821 94.6992 86.9491 94.7104 86.9192C94.7215 86.8893 94.7435 86.8649 94.7718 86.8509C94.7863 86.8438 94.8021 86.8397 94.8182 86.8389C94.8343 86.8381 94.8504 86.8407 94.8655 86.8463C94.8806 86.852 94.8945 86.8607 94.9062 86.8719C94.9179 86.8831 94.9273 86.8966 94.9337 86.9116C94.9401 86.9264 94.9435 86.9423 94.9438 86.9584C94.944 86.9745 94.9411 86.9905 94.9352 87.0054C94.9293 87.0203 94.9205 87.034 94.9094 87.0454C94.8983 87.0569 94.885 87.066 94.8704 87.0723C94.8541 87.0759 94.8373 87.0759 94.8211 87.0723C94.7992 87.0733 94.7774 87.0681 94.7581 87.0574C94.7389 87.0467 94.7229 87.0309 94.712 87.0116ZM104.121 86.7225C104.09 86.7126 104.065 86.691 104.05 86.6624C104.035 86.6337 104.031 86.6002 104.04 86.569C104.05 86.538 104.071 86.5121 104.099 86.4968C104.127 86.4815 104.161 86.4779 104.191 86.4869C104.222 86.4968 104.247 86.5183 104.262 86.547C104.278 86.5756 104.281 86.6091 104.272 86.6404C104.264 86.6652 104.249 86.6868 104.228 86.7021C104.207 86.7175 104.182 86.7259 104.156 86.726H104.121V86.7225ZM95.8172 86.5547C95.8123 86.5395 95.8104 86.5234 95.8116 86.5074C95.8129 86.4914 95.8172 86.4758 95.8244 86.4616C95.8316 86.4473 95.8415 86.4346 95.8536 86.4243C95.8656 86.4139 95.8796 86.4061 95.8947 86.4012C95.9097 86.3962 95.9255 86.3943 95.9413 86.3955C95.9571 86.3968 95.9724 86.4012 95.9865 86.4085C96.0006 86.4158 96.0131 86.4258 96.0233 86.4381C96.0335 86.4503 96.0413 86.4645 96.046 86.4797C96.051 86.495 96.0529 86.511 96.0516 86.527C96.0504 86.543 96.0461 86.5586 96.0389 86.5728C96.0317 86.5871 96.0218 86.5998 96.0097 86.6102C95.9976 86.6205 95.9837 86.6284 95.9686 86.6332H95.9299C95.906 86.6326 95.8829 86.6249 95.8635 86.6109C95.844 86.5969 95.8292 86.5773 95.8208 86.5547H95.8172ZM102.973 86.4262C102.943 86.4193 102.916 86.4005 102.899 86.3738C102.882 86.3471 102.876 86.3146 102.882 86.2834C102.885 86.2674 102.891 86.2521 102.9 86.2386C102.909 86.2251 102.92 86.2136 102.934 86.2049C102.948 86.1962 102.963 86.1904 102.979 86.188C102.994 86.1855 103.011 86.1864 103.026 86.1906C103.042 86.1936 103.056 86.1997 103.069 86.2085C103.082 86.2174 103.093 86.2288 103.102 86.2422C103.111 86.2555 103.116 86.2705 103.119 86.2861C103.122 86.3018 103.121 86.3179 103.118 86.3334C103.112 86.3611 103.097 86.3859 103.075 86.4035C103.053 86.4211 103.026 86.4304 102.998 86.4298H102.973V86.4262ZM96.9612 86.2227C96.9577 86.2068 96.9573 86.1902 96.9602 86.1741C96.963 86.158 96.9691 86.1427 96.978 86.129C96.9868 86.1153 96.9984 86.1036 97.0118 86.0946C97.0253 86.0855 97.0404 86.0794 97.0563 86.0764C97.0871 86.07 97.1191 86.0762 97.1454 86.0935C97.1718 86.1109 97.1903 86.1381 97.1971 86.1692C97.2007 86.1849 97.2012 86.2012 97.1985 86.2171C97.1959 86.233 97.1901 86.2482 97.1816 86.2619C97.1731 86.2755 97.162 86.2872 97.1489 86.2965C97.1359 86.3057 97.1211 86.3122 97.1056 86.3155H97.0809C97.0543 86.3149 97.0285 86.3055 97.0076 86.2888C96.9866 86.272 96.9716 86.2489 96.9648 86.2227H96.9612ZM101.808 86.2227C101.777 86.2175 101.749 86.2 101.73 86.174C101.71 86.1481 101.702 86.1156 101.706 86.0835C101.708 86.0677 101.713 86.0523 101.721 86.0384C101.728 86.0245 101.739 86.0124 101.751 86.0027C101.764 85.993 101.778 85.986 101.793 85.9821C101.809 85.9782 101.824 85.9775 101.84 85.98C101.871 85.9853 101.9 86.0028 101.919 86.0287C101.938 86.0547 101.946 86.0871 101.942 86.1192C101.937 86.1479 101.922 86.174 101.901 86.1929C101.879 86.2118 101.851 86.2223 101.822 86.2227H101.805H101.808ZM98.1369 86.0193C98.134 85.9876 98.1434 85.9561 98.1631 85.9314C98.1828 85.9067 98.2114 85.8908 98.2425 85.8872C98.2583 85.8847 98.2745 85.8855 98.29 85.8897C98.3054 85.8938 98.3199 85.9011 98.3325 85.9111C98.345 85.9212 98.3554 85.9338 98.3629 85.9481C98.3705 85.9624 98.375 85.9781 98.3763 85.9943C98.3792 86.0269 98.3695 86.0594 98.3491 86.0847C98.3287 86.1101 98.2992 86.1263 98.2672 86.1299C98.2356 86.131 98.2049 86.1197 98.1813 86.0984C98.1578 86.0772 98.1431 86.0476 98.1404 86.0157L98.1369 86.0193ZM100.629 86.0978C100.613 86.0974 100.598 86.0937 100.583 86.0869C100.569 86.0801 100.556 86.0704 100.545 86.0583C100.535 86.0463 100.527 86.0321 100.522 86.0168C100.517 86.0015 100.515 85.9853 100.516 85.9693C100.517 85.9534 100.521 85.9377 100.528 85.9234C100.535 85.909 100.545 85.8961 100.556 85.8855C100.568 85.8749 100.582 85.8668 100.597 85.8615C100.612 85.8563 100.627 85.8541 100.643 85.8551C100.675 85.8578 100.705 85.8732 100.726 85.8979C100.747 85.9225 100.758 85.9546 100.756 85.9872C100.754 86.0181 100.741 86.0471 100.718 86.0684C100.696 86.0896 100.667 86.1014 100.636 86.1014L100.629 86.0978ZM99.3267 85.9408C99.3262 85.9247 99.329 85.9087 99.3348 85.8937C99.3406 85.8788 99.3494 85.8652 99.3607 85.8538C99.3719 85.8425 99.3852 85.8335 99.4 85.8276C99.4147 85.8217 99.4305 85.8189 99.4464 85.8194C99.4781 85.8194 99.5085 85.8322 99.531 85.8549C99.5534 85.8777 99.566 85.9086 99.566 85.9408C99.566 85.9729 99.5534 86.0038 99.531 86.0266C99.5085 86.0493 99.4781 86.0621 99.4464 86.0621C99.4306 86.0616 99.4152 86.0581 99.4008 86.0515C99.3865 86.045 99.3735 86.0357 99.3627 86.0241C99.352 86.0125 99.3435 85.9988 99.338 85.9839C99.3324 85.969 99.3297 85.9531 99.3302 85.9372L99.3267 85.9408Z" fill="white"/>
<path d="M75.792 94.2503C75.7769 94.2536 75.7613 94.2536 75.7462 94.2503C75.7312 94.2442 75.7179 94.2344 75.7075 94.2218C75.6954 94.2117 75.6868 94.1979 75.6829 94.1825C75.6793 94.1673 75.6793 94.1514 75.6829 94.1361C75.684 94.1042 75.6965 94.0738 75.7181 94.0505C75.7287 94.0389 75.742 94.0303 75.7568 94.0255C75.7711 94.0185 75.7867 94.0149 75.8025 94.0149C75.8184 94.0149 75.834 94.0185 75.8483 94.0255C75.8635 94.0294 75.8771 94.0382 75.887 94.0505C75.8983 94.0616 75.9072 94.0749 75.9133 94.0896C75.9193 94.1044 75.9224 94.1202 75.9222 94.1361C75.926 94.1514 75.926 94.1673 75.9222 94.1825C75.917 94.1982 75.9071 94.2119 75.8941 94.2218C75.8837 94.2344 75.8704 94.2442 75.8553 94.2503C75.8348 94.2574 75.8125 94.2574 75.792 94.2503Z" fill="white"/>
</g>
<path d="M95.0921 57.7032L94.272 56.8037C92.7908 58.2243 90.8336 59.0228 88.7949 59.0381C87.1771 59.064 85.6021 58.5116 84.3457 57.4778C83.0894 56.444 82.232 54.9948 81.9238 53.3842L80.6918 53.7125L79.5654 54.0124C79.8854 55.6986 80.6645 57.2603 81.8147 58.5205C85.3875 62.4255 91.72 62.4255 95.8454 58.5205L95.0921 57.7032Z" fill="white"/>
<path d="M96.8486 44.2964L95.768 45.3137L95.0253 46.0275C95.6809 46.749 96.182 47.6005 96.497 48.5281C96.8121 49.4557 96.9342 50.4395 96.8557 51.4174C96.6958 53.4812 95.773 55.4076 94.272 56.8108L94.9161 57.5246L95.8454 58.5384C97.8251 56.6846 99.042 54.1415 99.2528 51.4174C99.3578 50.1265 99.1984 48.8275 98.7847 47.6021C98.371 46.3766 97.7118 45.2512 96.8486 44.2964Z" fill="#263238"/>
<path d="M96.8487 44.2964C93.2759 40.395 86.9434 40.395 82.8215 44.2964C81.5169 45.5073 80.5353 47.0329 79.9679 48.7316C79.4005 50.4302 79.2657 52.2467 79.576 54.0123L80.984 53.6554L81.9485 53.3984C81.8254 52.7483 81.7875 52.0846 81.8359 51.4245C82.0068 49.3656 82.9265 47.4446 84.4162 46.0349C85.9059 44.6252 87.8593 43.8275 89.8967 43.7967C90.8626 43.786 91.8201 43.9791 92.7085 44.3637C93.5969 44.7484 94.3966 45.3162 95.057 46.0311L96.0074 45.1281L96.8487 44.2964Z" fill="#407BFF"/>
<path d="M106.962 57.7031L107.909 56.8036C107.255 56.0819 106.756 55.2307 106.443 54.3037C106.129 53.3767 106.009 52.394 106.089 51.4174C106.233 49.7018 106.896 48.0733 107.987 46.7541C109.078 45.4349 110.544 44.4893 112.185 44.0466L111.946 42.8187L111.731 41.6979C109.999 42.166 108.408 43.0612 107.099 44.3036C102.973 48.2049 102.523 54.6263 106.092 58.5312L106.962 57.7031Z" fill="white"/>
<path d="M120.123 58.5242L119.19 57.5033L118.549 56.7894C117.069 58.2117 115.112 59.0115 113.072 59.0275C112.106 59.0382 111.148 58.8452 110.259 58.4605C109.37 58.0758 108.57 57.508 107.908 56.793L107.166 57.5069L106.092 58.5242C106.965 59.4645 108.021 60.2114 109.192 60.7182C110.364 61.225 111.626 61.4806 112.9 61.4689C115.587 61.4456 118.167 60.3939 120.123 58.5242Z" fill="#263238"/>
<path d="M120.123 58.5241C124.245 54.6191 124.699 48.1978 121.13 44.2964C119.944 43.0382 118.442 42.131 116.787 41.6719C115.131 41.2129 113.383 41.2194 111.731 41.6907L111.999 43.0792L112.185 44.0394C112.826 43.8688 113.487 43.7825 114.149 43.7824C115.118 43.7679 116.078 43.96 116.968 44.346C117.859 44.7321 118.659 45.3036 119.317 46.0235C119.976 46.7434 120.478 47.5955 120.79 48.5247C121.103 49.454 121.22 50.4395 121.133 51.4174C120.972 53.4799 120.05 55.4049 118.549 56.8072L119.373 57.7103L120.123 58.5241Z" fill="#407BFF"/>
<path opacity="0.3" d="M136.748 42.2475C136.845 42.2473 136.94 42.2673 137.029 42.3062C137.118 42.3452 137.198 42.4023 137.264 42.474C137.33 42.5457 137.381 42.6304 137.413 42.7228C137.445 42.8153 137.459 42.9135 137.452 43.0114L137.015 49.1686C136.995 49.3863 136.897 49.5888 136.739 49.738C136.581 49.8873 136.376 49.9729 136.16 49.9789H130.084C129.987 49.9792 129.891 49.9591 129.802 49.9199C129.713 49.8807 129.633 49.8233 129.567 49.7512C129.501 49.6792 129.45 49.594 129.418 49.5011C129.386 49.4082 129.373 49.3096 129.38 49.2115L129.813 43.0542C129.834 42.837 129.932 42.6349 130.09 42.4862C130.248 42.3376 130.454 42.2527 130.669 42.2475H136.741M136.741 41.9299H130.676C130.382 41.9357 130.1 42.0516 129.885 42.2552C129.67 42.4587 129.537 42.7357 129.511 43.0328L129.078 49.1901C129.066 49.331 129.083 49.4728 129.129 49.6066C129.174 49.7403 129.246 49.863 129.341 49.9668C129.436 50.0705 129.551 50.1532 129.679 50.2093C129.807 50.2655 129.945 50.294 130.084 50.293H136.156C136.451 50.2879 136.733 50.1723 136.948 49.9686C137.163 49.7649 137.296 49.4875 137.322 49.1901L137.758 43.0328C137.77 42.8916 137.752 42.7494 137.707 42.6155C137.661 42.4815 137.589 42.3586 137.494 42.2548C137.398 42.1509 137.283 42.0684 137.155 42.0125C137.026 41.9565 136.888 41.9284 136.748 41.9299H136.741Z" fill="#407BFF"/>
<path opacity="0.3" d="M135.998 52.8452C136.095 52.845 136.191 52.8649 136.279 52.9039C136.368 52.9429 136.448 53 136.514 53.0716C136.58 53.1433 136.631 53.228 136.663 53.3205C136.696 53.413 136.709 53.5112 136.702 53.6091L136.269 59.7663C136.248 59.9836 136.149 60.1857 135.992 60.3348C135.835 60.4839 135.629 60.5698 135.414 60.5766H129.338C129.241 60.5768 129.145 60.5568 129.056 60.5176C128.967 60.4784 128.887 60.421 128.821 60.3489C128.755 60.2768 128.704 60.1917 128.672 60.0988C128.64 60.0059 128.627 59.9073 128.634 59.8091L129.071 53.6519C129.091 53.4346 129.19 53.2325 129.347 53.0839C129.505 52.9352 129.711 52.8503 129.926 52.8452H135.995M135.995 52.5275H129.93C129.635 52.5326 129.353 52.6482 129.138 52.8519C128.923 53.0556 128.79 53.333 128.765 53.6305L128.328 59.7877C128.316 59.9289 128.334 60.0711 128.379 60.2051C128.425 60.3391 128.497 60.4619 128.593 60.5657C128.688 60.6696 128.803 60.7521 128.932 60.8081C129.06 60.864 129.199 60.8922 129.338 60.8907H135.41C135.704 60.8848 135.986 60.7689 136.201 60.5654C136.416 60.3618 136.549 60.0849 136.575 59.7877L137.008 53.6305C137.02 53.4893 137.003 53.3471 136.957 53.2131C136.912 53.0791 136.839 52.9563 136.744 52.8524C136.649 52.7486 136.533 52.6661 136.405 52.6101C136.276 52.5542 136.138 52.526 135.998 52.5275H135.995Z" fill="#407BFF"/>
<path d="M127.096 86.9081C127.178 86.906 127.259 86.9215 127.334 86.9535C127.409 86.9854 127.477 87.0333 127.532 87.0937C127.588 87.155 127.63 87.2273 127.656 87.3059C127.682 87.3846 127.691 87.468 127.684 87.5506C127.668 87.736 127.585 87.9089 127.452 88.0361C127.318 88.1633 127.142 88.2358 126.959 88.2395C126.877 88.242 126.795 88.2267 126.72 88.1946C126.644 88.1626 126.577 88.1145 126.521 88.0537C126.465 87.9928 126.423 87.9206 126.397 87.8418C126.371 87.763 126.362 87.6796 126.371 87.597C126.386 87.4113 126.468 87.2379 126.602 87.1106C126.736 86.9832 126.912 86.911 127.096 86.9081ZM127.096 86.594C126.835 86.5983 126.584 86.7007 126.393 86.8813C126.202 87.062 126.084 87.308 126.061 87.572C126.05 87.6978 126.065 87.8245 126.105 87.9441C126.145 88.0636 126.209 88.1732 126.294 88.2658C126.379 88.3584 126.482 88.4319 126.596 88.4815C126.711 88.5311 126.834 88.5556 126.959 88.5536C127.22 88.5492 127.471 88.4463 127.663 88.265C127.854 88.0836 127.972 87.8366 127.994 87.572C128.004 87.4465 127.989 87.3202 127.949 87.2011C127.908 87.082 127.844 86.9728 127.759 86.8806C127.675 86.7884 127.572 86.7152 127.458 86.6659C127.343 86.6165 127.22 86.592 127.096 86.594Z" fill="#407BFF"/>
<path d="M127.188 86.5975L127.033 86.5868L127.057 86.2727L127.209 86.2834L127.188 86.5975Z" fill="#407BFF"/>
<path d="M127.254 85.641H127.099L127.145 84.9985H127.3L127.254 85.641ZM127.346 84.3488H127.191L127.237 83.7063H127.392L127.346 84.3488ZM127.437 83.0603H127.283L127.328 82.4142H127.483L127.437 83.0603ZM127.529 81.7717H127.374L127.42 81.1257H127.575L127.529 81.7717ZM127.62 80.4832H127.466L127.511 79.8371H127.666L127.62 80.4832ZM127.712 79.1946H127.557L127.603 78.5485H127.758L127.712 79.1946ZM127.803 77.9025H127.649L127.694 77.26H127.849L127.803 77.9025ZM127.895 76.6139H127.74L127.786 75.9678H127.941L127.895 76.6139ZM127.987 75.3254H127.832L127.877 74.6793H128.032L127.987 75.3254ZM128.075 74.0368H127.92L127.965 73.3907H128.12L128.075 74.0368ZM128.166 72.7482H128.011L128.057 72.1022H128.212L128.166 72.7482Z" fill="#407BFF"/>
<path d="M128.121 71.1329L128.099 71.4462L128.253 71.4573L128.275 71.144L128.121 71.1329Z" fill="#407BFF"/>
<path d="M134.763 71.3098H79.0269C78.8743 71.3112 78.7231 71.2802 78.583 71.2187C78.443 71.1573 78.3172 71.0667 78.2138 70.9528C78.1094 70.8389 78.0296 70.7043 77.9793 70.5574C77.929 70.4106 77.9093 70.2547 77.9217 70.0997L78.1997 66.2091C78.226 65.8908 78.3681 65.5939 78.5985 65.3761C78.8288 65.1583 79.1309 65.0354 79.4458 65.0312H135.192C135.344 65.0302 135.495 65.0613 135.635 65.1225C135.775 65.1838 135.9 65.2738 136.004 65.3869C136.107 65.5 136.187 65.6337 136.237 65.7796C136.287 65.9254 136.306 66.0802 136.294 66.234L136.019 70.1247C135.994 70.4458 135.851 70.7455 135.618 70.9648C135.385 71.1842 135.08 71.3072 134.763 71.3098ZM79.4458 65.3738C79.2153 65.3774 78.9943 65.4678 78.8258 65.6275C78.6573 65.7871 78.5533 66.0046 78.5341 66.2376L78.2596 70.1283C78.2506 70.2363 78.2639 70.345 78.2984 70.4476C78.3329 70.5502 78.388 70.6444 78.4602 70.7244C78.5329 70.8025 78.6209 70.8644 78.7184 70.9061C78.816 70.9479 78.9211 70.9687 79.0269 70.9671H134.763C134.993 70.9643 135.215 70.8741 135.384 70.7143C135.552 70.5545 135.656 70.3366 135.674 70.1033L135.952 66.2126C135.961 66.1061 135.947 65.9989 135.913 65.8979C135.878 65.7968 135.824 65.7041 135.752 65.6254C135.681 65.5467 135.594 65.4837 135.498 65.4404C135.402 65.3971 135.297 65.3745 135.192 65.3738H79.4458Z" fill="#407BFF"/>
<path opacity="0.8" fill-rule="evenodd" clip-rule="evenodd" d="M133.566 67.544H80.7305C80.6632 67.5448 80.5964 67.5312 80.5346 67.5043C80.4727 67.4773 80.4171 67.4374 80.3714 67.3873C80.3256 67.3372 80.2907 67.278 80.2689 67.2134C80.2471 67.1487 80.2389 67.0802 80.2448 67.0122C80.2577 66.8698 80.322 66.7372 80.4252 66.6397C80.5284 66.5423 80.6634 66.4868 80.8045 66.4839H133.643C133.71 66.4832 133.776 66.4966 133.838 66.5234C133.899 66.5502 133.954 66.5898 134 66.6396C134.045 66.6893 134.08 66.7482 134.102 66.8124C134.123 66.8766 134.131 66.9446 134.125 67.0122C134.114 67.1555 134.05 67.2895 133.947 67.3878C133.843 67.4861 133.708 67.5418 133.566 67.544Z" fill="white"/>
<path opacity="0.8" fill-rule="evenodd" clip-rule="evenodd" d="M124.762 69.7749H80.5722C80.5054 69.7757 80.4391 69.7623 80.3776 69.7355C80.3162 69.7086 80.261 69.6691 80.2155 69.6193C80.1701 69.5695 80.1355 69.5107 80.1138 69.4465C80.0922 69.3823 80.0841 69.3142 80.09 69.2467C80.1014 69.1033 80.165 68.9694 80.2685 68.8711C80.372 68.7727 80.5079 68.717 80.6497 68.7148H124.836C124.906 68.7117 124.976 68.7241 125.041 68.7512C125.106 68.7783 125.165 68.8195 125.212 68.8719C125.26 68.9242 125.296 68.9865 125.317 69.0543C125.338 69.1221 125.345 69.1939 125.336 69.2645C125.319 69.4062 125.251 69.5364 125.145 69.6305C125.039 69.7246 124.903 69.776 124.762 69.7749Z" fill="white"/>
</g>
<defs>
<clipPath id="clip0_1676_2238">
<rect width="163" height="133" fill="white"/>
</clipPath>
</defs>
</svg>
