<svg width="155" height="132" viewBox="0 0 155 132" fill="none" xmlns="http://www.w3.org/2000/svg">
<g clip-path="url(#clip0_1681_4100)">
<path d="M36.3613 7.24083C31.8303 13.5808 36.9553 23.9905 30.281 28.7243C23.784 33.3324 15.9443 25.5848 9.82516 29.5458C0.750232 35.4221 2.1061 62.7605 15.1068 79.8746C19.0164 85.021 22.3075 87.0422 23.714 92.8315C26.7331 105.263 15.5868 112.52 17.6284 118.674C22.2261 132.529 95.0459 144.881 124.75 103.698C138.622 84.4633 140.963 56.5028 128.973 35.1214C107.308 -3.51389 46.5292 -6.9852 36.3613 7.24083Z" fill="#DDDDDD"/>
<path opacity="0.75" d="M121.888 46.174C121.888 24.1682 103.143 6.32764 80.0197 6.32764C56.8966 6.32764 38.1514 24.1673 38.1514 46.174C38.1514 59.5284 45.056 71.3485 55.6524 78.578C60.148 81.6447 62.8739 86.7 62.8739 92.1404V95.1897C62.8739 101.815 68.2477 107.186 74.8762 107.186H85.1628C91.7913 107.186 97.1651 101.815 97.1651 95.1897V92.1404C97.1651 86.7 99.8915 81.6447 104.387 78.578C114.983 71.3485 121.888 59.5284 121.888 46.174Z" fill="#F4F7FA"/>
<path d="M80.0197 129.865C85.1491 129.865 89.3074 127.665 89.3074 124.951C89.3074 122.237 85.1491 120.037 80.0197 120.037C74.8902 120.037 70.7319 122.237 70.7319 124.951C70.7319 127.665 74.8902 129.865 80.0197 129.865Z" fill="url(#paint0_linear_1681_4100)"/>
<path d="M67.6797 116.172V121.19C67.6777 122.023 67.9114 122.839 68.3539 123.544C68.7963 124.249 69.4295 124.814 70.18 125.175C72.3082 126.19 75.8485 127.302 80.9925 127.172C85.1656 127.065 87.8868 126.384 89.6167 125.668C91.288 124.977 92.3597 123.325 92.3597 121.517V118.74L67.6797 116.172Z" fill="url(#paint1_linear_1681_4100)"/>
<path style="mix-blend-mode:multiply" opacity="0.3" d="M67.6797 120.567C68.0608 120.939 68.5003 121.246 68.9807 121.476C71.369 122.615 87.0128 125.158 90.7862 123.741C91.259 123.566 91.7031 123.321 92.1038 123.015C92.2724 122.534 92.3589 122.028 92.3597 121.518V118.741L67.6802 116.173L67.6797 120.567Z" fill="url(#paint2_linear_1681_4100)"/>
<path d="M68.7755 112.758C68.4473 112.724 68.1155 112.759 67.8016 112.861C67.4877 112.963 67.1988 113.13 66.9535 113.351C66.7083 113.571 66.5122 113.841 66.378 114.143C66.2438 114.444 66.1744 114.77 66.1745 115.1V115.242C66.1722 116.176 66.4344 117.091 66.9307 117.882C67.4271 118.673 68.1373 119.308 68.9794 119.712C71.3676 120.851 87.0114 123.394 90.7849 121.977C92.6846 121.264 93.8617 119.633 93.8617 117.605V117.491C93.8618 116.909 93.646 116.347 93.256 115.915C92.866 115.482 92.3295 115.209 91.7501 115.149L68.7755 112.758Z" fill="url(#paint3_linear_1681_4100)"/>
<path style="mix-blend-mode:multiply" opacity="0.3" d="M91.7515 115.148L68.7754 112.758C68.3488 112.714 67.9181 112.787 67.53 112.97C67.142 113.152 66.8113 113.438 66.574 113.795C67.041 114.901 67.8971 115.799 68.9807 116.318C71.3689 117.456 87.6791 120.331 90.7862 118.868C91.996 118.3 92.9442 117.336 93.4526 116.167C93.2605 115.884 93.0087 115.646 92.7148 115.47C92.421 115.294 92.0922 115.184 91.7515 115.148Z" fill="url(#paint4_linear_1681_4100)"/>
<path d="M67.8765 104.628C67.425 104.628 66.9919 104.808 66.6726 105.127C66.3533 105.446 66.174 105.879 66.174 106.33V110.261C66.1717 111.195 66.4339 112.11 66.9303 112.901C67.4267 113.692 68.1369 114.326 68.9789 114.731C71.3671 115.869 87.6773 118.744 90.7844 117.283C92.6203 116.419 93.8613 114.655 93.8613 112.627V106.326C93.8613 105.875 93.6819 105.442 93.3626 105.123C93.0433 104.803 92.6103 104.624 92.1587 104.624L67.8765 104.628Z" fill="url(#paint5_linear_1681_4100)"/>
<path d="M80.0197 109.04C87.4761 109.04 93.5207 107.611 93.5207 105.849C93.5207 104.087 87.4761 102.659 80.0197 102.659C72.5633 102.659 66.5187 104.087 66.5187 105.849C66.5187 107.611 72.5633 109.04 80.0197 109.04Z" fill="url(#paint6_linear_1681_4100)"/>
<path d="M121.888 46.174C121.888 24.1682 103.143 6.32764 80.0197 6.32764C56.8966 6.32764 38.1514 24.1673 38.1514 46.174C38.1514 59.5284 45.056 71.3485 55.6524 78.578C60.148 81.6447 62.8739 86.7 62.8739 92.1404V95.1897C62.8739 101.815 68.2477 107.186 74.8762 107.186H85.1628C91.7913 107.186 97.1651 101.815 97.1651 95.1897V92.1404C97.1651 86.7 99.8915 81.6447 104.387 78.578C114.983 71.3485 121.888 59.5284 121.888 46.174Z" fill="url(#paint7_linear_1681_4100)"/>
<g style="mix-blend-mode:soft-light" opacity="0.5">
<path d="M80.0197 105.668C85.476 105.668 89.8991 104.623 89.8991 103.334C89.8991 102.044 85.476 100.999 80.0197 100.999C74.5635 100.999 70.1404 102.044 70.1404 103.334C70.1404 104.623 74.5635 105.668 80.0197 105.668Z" fill="#F4F7FA"/>
</g>
<path d="M77.4432 104.76C77.3042 104.761 77.1698 104.71 77.0654 104.619C76.9609 104.527 76.8934 104.4 76.8757 104.263L69.6116 47.773C69.602 47.6987 69.6072 47.6232 69.6268 47.5509C69.6465 47.4785 69.6801 47.4108 69.726 47.3514C69.8185 47.2316 69.9549 47.1535 70.1051 47.1342C70.2553 47.1149 70.407 47.156 70.5269 47.2485C70.6467 47.341 70.7249 47.4773 70.7442 47.6274L78.0107 104.117C78.0203 104.191 78.0152 104.267 77.9956 104.339C77.9759 104.412 77.9422 104.479 77.8964 104.539C77.8505 104.598 77.7934 104.648 77.7283 104.685C77.6632 104.722 77.5914 104.746 77.517 104.756C77.4925 104.759 77.4679 104.76 77.4432 104.76Z" fill="url(#paint8_linear_1681_4100)"/>
<path d="M81.9592 104.76C81.9347 104.76 81.9102 104.759 81.8859 104.756C81.8115 104.746 81.7397 104.722 81.6746 104.685C81.6095 104.648 81.5524 104.598 81.5065 104.539C81.4606 104.479 81.4269 104.412 81.4073 104.339C81.3877 104.267 81.3825 104.191 81.3922 104.117L88.66 47.6274C88.6794 47.477 88.7577 47.3404 88.8778 47.2477C88.9978 47.1549 89.1499 47.1137 89.3004 47.133C89.4509 47.1523 89.5876 47.2306 89.6803 47.3506C89.7731 47.4706 89.8144 47.6226 89.7951 47.773L82.5248 104.263C82.5071 104.4 82.4399 104.526 82.3359 104.618C82.2318 104.71 82.0979 104.76 81.9592 104.76Z" fill="url(#paint9_linear_1681_4100)"/>
<path d="M87.8783 47.7271C87.7837 47.7273 87.6906 47.7039 87.6073 47.6591C87.524 47.6143 87.4531 47.5494 87.4011 47.4705L85.395 44.4293C85.3871 44.4147 85.3753 44.4026 85.3609 44.3943C85.3466 44.386 85.3302 44.3817 85.3137 44.382C85.2977 44.3823 85.2821 44.3868 85.2685 44.3951C85.2548 44.4035 85.2437 44.4152 85.2361 44.4293L83.9119 46.6461C83.8055 46.8258 83.6551 46.9755 83.4748 47.0811C83.2946 47.1867 83.0905 47.2448 82.8816 47.2499C82.6728 47.255 82.466 47.2069 82.2808 47.1103C82.0957 47.0136 81.9381 46.8714 81.823 46.6972L80.0046 43.9722C79.9966 43.9583 79.9852 43.9467 79.9715 43.9384C79.9577 43.9302 79.9421 43.9255 79.9261 43.925C79.9111 43.9253 79.8963 43.9291 79.8831 43.9363C79.8698 43.9435 79.8585 43.9537 79.85 43.9661L78.2524 46.2741C78.1393 46.438 77.9882 46.5722 77.8119 46.6651C77.6357 46.758 77.4396 46.807 77.2404 46.8078C77.041 46.8075 76.8447 46.759 76.6682 46.6665C76.4917 46.574 76.3401 46.4402 76.2264 46.2765L73.9233 42.9791C73.914 42.9662 73.9018 42.9556 73.8877 42.9481C73.8736 42.9406 73.8579 42.9365 73.842 42.9361C73.8261 42.9365 73.8107 42.9411 73.7973 42.9494C73.7838 42.9577 73.7728 42.9694 73.7653 42.9834L71.6632 46.6102C71.5873 46.7411 71.4624 46.8366 71.316 46.8755C71.1697 46.9144 71.0139 46.8936 70.8829 46.8177C70.7519 46.7418 70.6564 46.617 70.6175 46.4707C70.5785 46.3245 70.5993 46.1687 70.6753 46.0378L72.7774 42.411C72.8812 42.2311 73.0288 42.0803 73.2066 41.9727C73.3843 41.8651 73.5863 41.8041 73.7939 41.7954C74.0015 41.7868 74.2079 41.8307 74.394 41.9231C74.5801 42.0155 74.7398 42.1534 74.8583 42.324L77.1609 45.6214C77.1692 45.6347 77.1806 45.6456 77.1943 45.6533C77.208 45.6609 77.2233 45.6649 77.239 45.6649C77.2541 45.6647 77.269 45.6608 77.2822 45.6535C77.2954 45.6461 77.3066 45.6356 77.3146 45.6228L78.9093 43.3228C79.0238 43.1566 79.1773 43.021 79.3564 42.928C79.5355 42.835 79.7348 42.7873 79.9366 42.7893C80.1384 42.7913 80.3367 42.8427 80.514 42.9392C80.6913 43.0357 80.8421 43.1742 80.9533 43.3426L82.7712 46.0671C82.792 46.0978 82.8223 46.1234 82.8526 46.1144C82.8685 46.1141 82.8842 46.1096 82.8978 46.1013C82.9114 46.093 82.9226 46.0812 82.9301 46.0671L84.2543 43.8503C84.3611 43.6701 84.5121 43.5202 84.693 43.4145C84.8739 43.3089 85.0787 43.2511 85.2882 43.2466C85.4976 43.2421 85.7048 43.2911 85.89 43.3889C86.0753 43.4866 86.2326 43.63 86.347 43.8054L88.3531 46.8465C88.4098 46.9325 88.4421 47.0322 88.4467 47.1351C88.4513 47.2379 88.4279 47.3401 88.3791 47.4308C88.3303 47.5214 88.2578 47.5972 88.1694 47.6501C88.081 47.7029 87.9799 47.7308 87.8769 47.7309L87.8783 47.7271Z" fill="url(#paint10_linear_1681_4100)"/>
<path style="mix-blend-mode:multiply" opacity="0.3" d="M80.7792 77.6024C81.6778 62.2448 107.58 58.6483 107.469 44.9351C107.401 36.4879 97.1074 30.2151 94.9092 28.9587C78.713 19.7005 58.7779 30.3919 54.6606 22.8249C53.6353 20.9408 54.1158 18.8903 54.3897 17.72C54.8035 15.9546 55.7399 14.3106 57.1293 12.8042C45.7025 19.9255 38.1514 32.2084 38.1514 46.174C38.1514 59.5284 45.056 71.3485 55.6524 78.578C60.148 81.6452 62.8739 86.7 62.8739 92.1404V95.1897C62.8739 101.815 68.2477 107.186 74.8762 107.186H85.1628C91.7913 107.186 97.1651 101.815 97.1651 95.1897V92.7516C95.7492 93.8359 94.1232 94.5922 92.3413 94.5775C86.1535 94.527 80.3328 85.2446 80.7792 77.6024Z" fill="url(#paint11_linear_1681_4100)"/>
<g style="mix-blend-mode:soft-light" opacity="0.44">
<path d="M80.6894 82.4544C100.587 82.4544 116.718 66.9065 116.718 47.7272C116.718 28.5478 100.587 12.9999 80.6894 12.9999C60.7912 12.9999 44.6606 28.5478 44.6606 47.7272C44.6606 66.9065 60.7912 82.4544 80.6894 82.4544Z" fill="#F4F7FA"/>
</g>
<mask id="mask0_1681_4100" style="mask-type:luminance" maskUnits="userSpaceOnUse" x="61" y="6" width="61" height="73">
<path d="M121.888 46.1739C121.888 24.1682 103.143 6.32764 80.0192 6.32764C73.4716 6.32764 67.2754 7.75936 61.7559 10.3099C61.4906 13.7046 61.903 16.4901 62.5376 18.7325C65.9659 30.8442 76.8284 30.7558 85.6248 46.7071C92.4392 59.0642 89.0213 64.7372 96.0438 72.6394C98.3923 75.2821 101.129 77.2943 104.031 78.8314C104.149 78.7463 104.268 78.6625 104.388 78.5799C114.983 71.3485 121.888 59.5284 121.888 46.1739Z" fill="white"/>
</mask>
<g mask="url(#mask0_1681_4100)">
<path d="M121.888 46.174C121.888 24.1682 103.143 6.32764 80.0197 6.32764C56.8966 6.32764 38.1514 24.1673 38.1514 46.174C38.1514 59.5284 45.056 71.3485 55.6524 78.578C60.148 81.6447 62.8739 86.7 62.8739 92.1404V95.1897C62.8739 101.815 68.2477 107.186 74.8762 107.186H85.1628C91.7913 107.186 97.1651 101.815 97.1651 95.1897V92.1404C97.1651 86.7 99.8915 81.6447 104.387 78.578C114.983 71.3485 121.888 59.5284 121.888 46.174Z" fill="url(#paint12_linear_1681_4100)"/>
<path opacity="0.3" d="M97.227 103.596C97.9974 107.602 95.5174 110.802 93.3935 112.842C93.0298 112.754 92.7938 112.802 92.4046 112.8C88.8936 112.783 87.4427 111.987 84.0163 111.394C83.2791 111.267 81.2611 110.192 80.4666 109.696L79.0005 108.745C79.0005 108.745 78.329 99.2991 83.3987 97.9964C88.4684 96.6937 88.922 87.5711 89.7269 82.7352C91.9113 69.6128 105.535 74.2403 109.691 57.6022C110.796 53.1771 111.423 44.3674 116.034 41.771C121.287 38.8116 123.412 43.5232 126.983 40.8441C132.564 36.6567 139.97 36.4955 142.761 42.9276C145.515 49.2742 137.916 58.6558 123.465 64.1232C113.543 69.2196 112.885 71.3197 112.235 76.6713C111.78 80.4196 112.894 90.7569 107.014 93.3093C101.134 95.8618 96.3459 99.0164 97.227 103.596Z" fill="url(#paint13_linear_1681_4100)"/>
<path style="mix-blend-mode:multiply" opacity="0.3" d="M61.756 10.3109C65.7441 10.2579 71.2281 10.8715 75.1359 14.5815C80.0207 19.2184 77.781 24.2665 81.1288 31.0527C86.7599 42.472 98.1157 38.3437 105.917 50.1104C113.011 60.8122 110.377 74.4152 107.415 76.5191C107.15 76.7082 104.03 78.8295 104.03 78.8295L57.8387 58.9588L61.756 10.3109Z" fill="url(#paint14_linear_1681_4100)"/>
<path d="M80.0197 84.5342C69.2645 84.5342 59.1529 80.5467 51.5469 73.3058C43.9408 66.0649 39.7512 56.4323 39.7512 46.1881C39.7512 35.9439 43.9408 26.3136 51.5488 19.0709C59.1567 11.8281 69.2664 7.84253 80.0216 7.84253C90.7768 7.84253 100.888 11.83 108.494 19.0709C116.099 26.3117 120.291 35.9453 120.291 46.1881C120.291 56.4309 116.102 66.0631 108.494 73.3058C100.886 80.5486 90.7744 84.5342 80.0197 84.5342ZM80.0197 8.16726C69.3482 8.16726 59.3161 12.1231 51.771 19.3058C44.226 26.4885 40.0742 36.0342 40.0742 46.1881C40.0742 56.3421 44.2284 65.8896 51.771 73.0704C59.3137 80.2513 69.3482 84.209 80.0197 84.209C90.6912 84.209 100.723 80.2532 108.268 73.07C115.813 65.8867 119.965 56.3421 119.965 46.1876C119.965 36.0332 115.811 26.4866 108.268 19.3053C100.725 12.124 90.6907 8.16726 80.0197 8.16726Z" fill="white"/>
<path d="M80.0198 84.5342C72.1267 84.5342 64.7089 80.5401 59.1326 73.2846C53.5663 66.0447 50.5009 56.4206 50.5009 46.1858C50.5009 35.951 53.5663 26.3274 59.1326 19.087C64.7089 11.8343 72.1267 7.84021 80.0198 7.84021C87.9129 7.84021 95.3302 11.8343 100.906 19.087C106.473 26.3274 109.538 35.951 109.538 46.1858C109.538 56.4206 106.473 66.0447 100.906 73.2846C95.3302 80.5401 87.9124 84.5342 80.0198 84.5342ZM80.0198 8.1673C63.9219 8.1673 50.8258 25.2232 50.8258 46.1882C50.8258 67.1531 63.9219 84.209 80.0198 84.209C96.1176 84.209 109.213 67.1526 109.213 46.1877C109.213 25.2228 96.1171 8.1673 80.0198 8.1673Z" fill="white"/>
<path d="M80.0198 84.5342C76.0269 84.5342 72.287 80.5254 69.4887 73.2463C66.7098 66.0144 65.179 56.4068 65.179 46.1881C65.179 35.9694 66.7098 26.3604 69.4887 19.13C72.287 11.8508 76.0269 7.84253 80.0198 7.84253C84.0126 7.84253 87.7521 11.8513 90.5499 19.13C93.3292 26.3618 94.8601 35.9699 94.8601 46.1881C94.8601 56.4063 93.3292 66.0163 90.5499 73.2463C87.753 80.5254 84.0122 84.5342 80.0198 84.5342ZM80.0198 8.16726C72.0155 8.16726 65.5039 25.2232 65.5039 46.1881C65.5039 67.153 72.0155 84.209 80.0198 84.209C88.024 84.209 94.5352 67.1526 94.5352 46.1876C94.5352 25.2227 88.0235 8.16726 80.0198 8.16726Z" fill="white"/>
<path d="M80.182 8.0047H79.8571V84.3721H80.182V8.0047Z" fill="white"/>
<path d="M80.0197 50.6426C69.3019 50.6426 59.2253 50.2895 51.6443 49.65C47.9555 49.338 45.057 48.9746 43.031 48.5695C40.0884 47.9815 39.7484 47.444 39.7484 47.091C39.7484 46.7379 40.0884 46.2 43.031 45.612C45.057 45.2069 47.955 44.8434 51.6443 44.5314C59.2243 43.8905 69.3009 43.5388 80.0197 43.5388C90.7385 43.5388 100.814 43.8914 108.395 44.5314C112.084 44.8434 114.982 45.2069 117.009 45.612C119.951 46.2 120.291 46.7374 120.291 47.091C120.291 47.4445 119.951 47.9815 117.009 48.5695C114.982 48.9746 112.084 49.338 108.395 49.65C100.814 50.2895 90.7371 50.6426 80.0197 50.6426ZM80.0197 43.8617C69.3108 43.8617 59.2437 44.2143 51.6727 44.8543C40.6333 45.7873 40.0743 46.8801 40.0743 47.09C40.0743 47.2999 40.6333 48.3922 51.6727 49.3253C59.2437 49.9653 69.3127 50.3179 80.0197 50.3179C90.7267 50.3179 100.795 49.9653 108.366 49.3253C119.406 48.3922 119.965 47.2994 119.965 47.09C119.965 46.8806 119.406 45.7873 108.366 44.8543C100.795 44.2143 90.7286 43.8617 80.0197 43.8617Z" fill="white"/>
<path d="M80.0197 36.1883C61.7516 36.1883 42.856 34.4611 42.856 31.5703C42.856 29.9259 48.8271 28.8619 53.8363 28.2587C60.8308 27.4164 70.1299 26.9523 80.0197 26.9523C89.9095 26.9523 99.2081 27.4164 106.203 28.2587C111.212 28.8619 117.183 29.9259 117.183 31.5703C117.183 34.4611 98.2873 36.1883 80.0197 36.1883ZM80.0197 27.277C57.9815 27.277 43.179 29.4986 43.179 31.5703C43.179 33.642 57.9815 35.8636 80.0197 35.8636C102.058 35.8636 116.858 33.642 116.858 31.5703C116.858 29.4986 102.056 27.277 80.0197 27.277Z" fill="white"/>
<path d="M79.9081 18.2376C69.0536 18.2376 57.8264 16.8839 57.8264 14.6183C57.8264 12.3528 69.0536 10.9991 79.9081 10.9991C90.7627 10.9991 101.988 12.3528 101.988 14.6183C101.988 16.8839 90.7622 18.2376 79.9081 18.2376ZM79.9081 11.3238C66.8933 11.3238 58.1537 13.0254 58.1537 14.6183C58.1537 16.2112 66.8957 17.9129 79.9105 17.9129C92.9254 17.9129 101.665 16.2112 101.665 14.6183C101.665 13.0254 92.9225 11.3229 79.9081 11.3229V11.3238Z" fill="white"/>
<path d="M80.0197 65.1385C70.1299 65.1385 60.8308 64.6748 53.8363 63.8325C48.8271 63.2294 42.856 62.1649 42.856 60.5205C42.856 58.8761 48.8271 57.8121 53.8363 57.2089C60.8308 56.3666 70.1299 55.903 80.0197 55.903C89.9095 55.903 99.2081 56.3666 106.203 57.2089C111.212 57.8121 117.183 58.8761 117.183 60.5205C117.183 62.1649 111.212 63.2294 106.203 63.8325C99.2081 64.6748 89.909 65.1385 80.0197 65.1385ZM80.0197 56.2277C57.9815 56.2277 43.179 58.4492 43.179 60.5205C43.179 62.5917 57.9815 64.8138 80.0197 64.8138C102.058 64.8138 116.858 62.5922 116.858 60.5205C116.858 58.4488 102.056 56.2267 80.0197 56.2267V56.2277Z" fill="white"/>
<path d="M79.9081 81.0917C69.0536 81.0917 57.8264 79.738 57.8264 77.473C57.8264 75.2079 69.0536 73.8537 79.9081 73.8537C90.7627 73.8537 101.988 75.2074 101.988 77.473C101.988 79.7385 90.7622 81.0917 79.9081 81.0917ZM79.9081 74.1784C66.8933 74.1784 58.1537 75.88 58.1537 77.473C58.1537 79.0659 66.8957 80.767 79.9105 80.767C92.9254 80.767 101.665 79.0654 101.665 77.473C101.665 75.8805 92.9225 74.1784 79.9081 74.1784Z" fill="white"/>
<path d="M107.994 35.8853C108.84 35.8853 109.526 35.1997 109.526 34.3538C109.526 33.508 108.84 32.8224 107.994 32.8224C107.148 32.8224 106.462 33.508 106.462 34.3538C106.462 35.1997 107.148 35.8853 107.994 35.8853Z" fill="white"/>
<path d="M94.1525 37.3213C94.9988 37.3213 95.6848 36.6356 95.6848 35.7898C95.6848 34.944 94.9988 34.2584 94.1525 34.2584C93.3063 34.2584 92.6202 34.944 92.6202 35.7898C92.6202 36.6356 93.3063 37.3213 94.1525 37.3213Z" fill="white"/>
<path d="M109.002 50.7901C109.848 50.7901 110.534 50.1044 110.534 49.2586C110.534 48.4128 109.848 47.7272 109.002 47.7272C108.156 47.7272 107.47 48.4128 107.47 49.2586C107.47 50.1044 108.156 50.7901 109.002 50.7901Z" fill="white"/>
<path d="M94.6122 51.6589C95.4585 51.6589 96.1445 50.9732 96.1445 50.1274C96.1445 49.2816 95.4585 48.5959 94.6122 48.5959C93.766 48.5959 93.08 49.2816 93.08 50.1274C93.08 50.9732 93.766 51.6589 94.6122 51.6589Z" fill="white"/>
<path d="M117.518 32.6039C118.3 32.2802 118.671 31.3843 118.347 30.6029C118.024 29.8215 117.127 29.4504 116.345 29.7741C115.564 30.0978 115.192 30.9936 115.516 31.7751C115.84 32.5565 116.736 32.9275 117.518 32.6039Z" fill="white"/>
<path d="M119.996 48.6607C120.843 48.6607 121.529 47.975 121.529 47.1292C121.529 46.2834 120.843 45.5978 119.996 45.5978C119.15 45.5978 118.464 46.2834 118.464 47.1292C118.464 47.975 119.15 48.6607 119.996 48.6607Z" fill="white"/>
<path d="M80.0197 37.5188C80.8659 37.5188 81.552 36.8332 81.552 35.9874C81.552 35.1416 80.8659 34.4559 80.0197 34.4559C79.1734 34.4559 78.4874 35.1416 78.4874 35.9874C78.4874 36.8332 79.1734 37.5188 80.0197 37.5188Z" fill="white"/>
<path d="M80.0197 19.5502C80.8659 19.5502 81.552 18.8645 81.552 18.0187C81.552 17.1729 80.8659 16.4872 80.0197 16.4872C79.1734 16.4872 78.4874 17.1729 78.4874 18.0187C78.4874 18.8645 79.1734 19.5502 80.0197 19.5502Z" fill="white"/>
<path d="M91.2853 17.9595C91.4796 17.1363 90.9696 16.3115 90.1459 16.1172C89.3223 15.9229 88.4971 16.4327 88.3027 17.2559C88.1083 18.0791 88.6184 18.9039 89.442 19.0982C90.2656 19.2925 91.0909 18.7827 91.2853 17.9595Z" fill="white"/>
<path d="M98.1194 17.9847C98.9657 17.9847 99.6517 17.299 99.6517 16.4532C99.6517 15.6074 98.9657 14.9218 98.1194 14.9218C97.2732 14.9218 96.5872 15.6074 96.5872 16.4532C96.5872 17.299 97.2732 17.9847 98.1194 17.9847Z" fill="white"/>
<path d="M101.797 15.8714C102.643 15.8714 103.329 15.1857 103.329 14.3399C103.329 13.4941 102.643 12.8085 101.797 12.8085C100.951 12.8085 100.265 13.4941 100.265 14.3399C100.265 15.1857 100.951 15.8714 101.797 15.8714Z" fill="white"/>
<path d="M80.0197 9.54467C80.8659 9.54467 81.552 8.85901 81.552 8.01321C81.552 7.16741 80.8659 6.48175 80.0197 6.48175C79.1734 6.48175 78.4874 7.16741 78.4874 8.01321C78.4874 8.85901 79.1734 9.54467 80.0197 9.54467Z" fill="white"/>
<path d="M92.8757 66.3098C93.7219 66.3098 94.4079 65.6242 94.4079 64.7783C94.4079 63.9325 93.7219 63.2469 92.8757 63.2469C92.0294 63.2469 91.3434 63.9325 91.3434 64.7783C91.3434 65.6242 92.0294 66.3098 92.8757 66.3098Z" fill="white"/>
<path d="M107.307 64.4999C107.905 63.9018 107.905 62.9322 107.307 62.3341C106.709 61.736 105.738 61.736 105.14 62.3341C104.542 62.9322 104.542 63.9018 105.14 64.4999C105.738 65.098 106.709 65.098 107.307 64.4999Z" fill="white"/>
<path d="M117.801 61.9134C118.4 61.3153 118.4 60.3457 117.801 59.7476C117.203 59.1495 116.233 59.1495 115.634 59.7476C115.036 60.3457 115.036 61.3153 115.634 61.9134C116.233 62.5115 117.203 62.5115 117.801 61.9134Z" fill="white"/>
</g>
<path d="M65.7763 63.3825C67.1123 64.0603 68.7902 63.4378 69.5242 61.9919C70.2581 60.546 69.7706 58.825 68.4364 58.1472C68.3674 58.1122 68.2946 58.0829 68.226 58.0527C68.4713 57.2638 68.6586 56.4581 68.7864 55.642C68.8625 55.642 68.9396 55.642 69.0177 55.6335C70.5414 55.4974 71.7507 54.0973 71.7185 52.5068C71.6864 50.9163 70.4251 49.7365 68.9009 49.8726C68.8214 49.8797 68.7434 49.892 68.6644 49.9062C68.5064 49.1226 68.2882 48.3524 68.0118 47.6023C68.0817 47.5612 68.1536 47.5187 68.2194 47.4714C69.5232 46.5582 69.9399 44.7559 69.1496 43.4461C68.3594 42.1364 66.663 41.8154 65.3591 42.7286C65.2924 42.7759 65.2295 42.826 65.17 42.877C64.6513 42.305 64.0856 41.7774 63.4788 41.2997C63.5214 41.2293 63.5634 41.1579 63.6017 41.0832C64.3357 39.6373 65.2948 38.0581 63.9489 37.4016C60.8342 35.8829 59.4982 37.1837 58.7637 38.6305C58.7259 38.7052 58.6933 38.7813 58.6616 38.8574C57.9184 38.6499 57.159 38.5051 56.3916 38.4245C56.3963 38.3441 56.4001 38.2637 56.3982 38.182C56.366 36.5914 56.838 35.7302 55.3105 35.7009C51.9745 35.6366 50.8494 37.084 50.8815 38.6745C50.8815 38.7577 50.89 38.839 50.8981 38.9198C50.1293 39.1396 49.3786 39.4182 48.6526 39.7531C48.6176 39.6822 48.5817 39.6113 48.5406 39.5433C47.7508 38.2335 46.0535 37.9126 44.7496 38.8258C43.4458 39.739 43.0296 41.5408 43.8194 42.8506C43.86 42.9177 43.904 42.9805 43.9494 43.0425C43.3651 43.6276 42.8244 44.2546 42.3316 44.9185C42.2672 44.8783 42.2015 44.8386 42.1325 44.8036C40.7917 44.1263 39.1114 44.7479 38.3798 46.1933C37.6482 47.6387 38.1334 49.3602 39.4675 50.038C39.5366 50.073 39.6094 50.1028 39.678 50.1326C39.4329 50.9214 39.2457 51.7271 39.118 52.5432C39.0414 52.5432 38.9643 52.5432 38.8863 52.5517C37.3625 52.6878 36.1533 54.0879 36.1854 55.6789C36.2176 57.2699 37.4789 58.4488 39.0031 58.3126C39.0826 58.3055 39.1611 58.2933 39.2396 58.2791C39.3976 59.0627 39.6161 59.833 39.8932 60.5829C39.8227 60.624 39.7513 60.6665 39.6851 60.7143C38.3812 61.6275 37.9651 63.4293 38.7548 64.7391C39.5446 66.0489 42.1599 66.6567 43.4623 65.7435C43.5295 65.6963 42.6749 65.3597 42.7373 65.3082C43.2557 65.8806 43.8214 66.4082 44.4285 66.8855C44.3855 66.9559 44.3434 67.0273 44.3055 67.102C43.5711 68.5479 44.0591 70.2689 45.3933 70.9467C46.7274 71.6245 48.4072 71.0015 49.1412 69.5556C49.179 69.4809 49.2116 69.4048 49.2433 69.3287C49.9865 69.5365 50.7459 69.6813 51.5134 69.7617C51.5086 69.8421 51.5053 69.9224 51.5067 70.0042C51.5389 71.5952 52.8007 72.7745 54.3244 72.6384C55.8482 72.5023 57.0579 71.1022 57.0253 69.5117C57.0253 69.4285 57.0168 69.3472 57.0087 69.2664C57.7776 69.0468 58.5283 68.7682 59.2542 68.433C59.2892 68.5039 59.3251 68.5748 59.3662 68.6429C60.1565 69.9522 61.8534 70.2741 63.1572 69.3604C64.4611 68.4467 64.8772 66.6454 64.0874 65.3356C64.0468 65.2685 64.0028 65.2056 63.9579 65.1465C64.5418 64.561 65.0824 63.9339 65.5753 63.27C65.6415 63.3078 65.7072 63.3475 65.7763 63.3825ZM49.1251 63.5971C44.2748 61.1392 42.5042 54.8872 45.1686 49.6381C47.8331 44.3891 53.9267 42.1283 58.7765 44.5886C63.6263 47.0488 65.3974 53.298 62.733 58.5471C60.0685 63.7961 53.9754 66.0583 49.1251 63.5971Z" fill="#D8DEE8"/>
<path d="M69.0158 55.6335C70.5395 55.4974 71.7488 54.0974 71.7166 52.5068C71.6845 50.9163 70.4232 49.7365 68.8989 49.8726C68.8195 49.8797 68.7415 49.892 68.6625 49.9062C68.5045 49.1226 68.2864 48.3524 68.0099 47.6024C68.0798 47.5612 68.1517 47.5187 68.2175 47.471C69.5213 46.5577 71.134 44.3513 70.2137 43.1299C68.4676 40.811 66.6611 41.8154 65.3572 42.7286C65.2905 42.7759 65.2276 42.826 65.1681 42.877C64.6495 42.3049 64.0838 41.7773 63.4769 41.2997C63.5194 41.2293 63.5615 41.1579 63.5998 41.0833C63.7893 40.7171 63.9022 40.3161 63.9314 39.9049C63.9607 39.4937 63.9058 39.0808 63.7701 38.6915C62.5112 40.9074 61.271 43.1332 60.0496 45.369C63.9191 48.2022 65.152 53.7859 62.7344 58.5471C60.6857 62.5818 56.6124 64.8478 52.6346 64.5647C52.4573 65.0246 52.2833 65.4873 52.0931 65.9425C51.5777 67.179 50.9922 68.3896 50.4058 69.5987C50.7746 69.668 51.1449 69.7223 51.5167 69.7617C51.5119 69.8421 51.5086 69.9224 51.51 70.0042C51.5422 71.5952 52.5089 72.9466 55.2707 72.7996C56.7987 72.7183 57.0607 71.1022 57.0286 69.5117C57.0286 69.4285 57.0201 69.3472 57.012 69.2664C57.7808 69.0466 58.5315 68.768 59.2575 68.433C59.2925 68.5039 59.3284 68.5748 59.3695 68.6429C60.1598 69.9527 62.899 70.5085 64.2028 69.5953C65.5067 68.6821 64.8805 66.6454 64.0907 65.3356C64.0501 65.2685 64.0061 65.2056 63.9612 65.1437C64.5452 64.5585 65.0858 63.9315 65.5786 63.2677C65.6429 63.3083 65.7086 63.3476 65.7777 63.3825C67.1137 64.0603 68.7916 63.4374 69.5256 61.9919C70.2595 60.5465 69.772 58.825 68.4378 58.1472C68.3688 58.1122 68.296 58.0829 68.2274 58.0527C68.4727 57.2638 68.66 56.4582 68.7878 55.642C68.8606 55.6416 68.9377 55.6402 69.0158 55.6335Z" fill="#D8DEE8"/>
<path d="M67.213 63.5456C68.549 64.2234 70.2269 63.6004 70.9609 62.155C71.6949 60.7096 71.2073 58.9881 69.8732 58.3103C69.8041 58.2753 69.7313 58.2455 69.6627 58.2157C69.908 57.427 70.0952 56.6213 70.2226 55.8051C70.2993 55.8051 70.3763 55.8051 70.4544 55.7966C71.9781 55.6605 73.1874 54.2604 73.1552 52.6694C73.1231 51.0784 71.8618 49.8995 70.3376 50.0357C70.2581 50.0428 70.1801 50.0551 70.1011 50.0692C69.9432 49.2856 69.7249 48.5154 69.448 47.7654C69.5185 47.7243 69.5899 47.6818 69.6561 47.634C70.9599 46.7208 71.3766 44.919 70.5863 43.6092C69.7961 42.2994 68.0997 41.9785 66.7958 42.8917C66.7292 42.939 66.6663 42.9891 66.6038 43.0401C66.0855 42.4677 65.5198 41.9401 64.9127 41.4628C64.9557 41.3924 64.9978 41.321 65.0361 41.2463C65.7701 39.8004 65.282 38.0794 63.9484 37.4016C62.6147 36.7238 60.9344 37.3468 60.2 38.7927C60.1622 38.8674 60.1295 38.9435 60.0978 39.0196C59.3546 38.8119 58.5953 38.667 57.8278 38.5866C57.8325 38.5062 57.8358 38.4259 57.8344 38.3441C57.8023 36.7536 56.5405 35.5742 55.0168 35.7099C53.493 35.8456 52.2837 37.2461 52.3159 38.8366C52.3159 38.9198 52.3244 39.0011 52.3324 39.082C51.5637 39.3017 50.813 39.5803 50.087 39.9153C50.052 39.8444 50.0161 39.7735 49.9749 39.7054C49.1851 38.3956 47.4878 38.0742 46.184 38.9879C44.8801 39.9016 44.4639 41.7029 45.2537 43.0127C45.2944 43.0798 45.3384 43.1427 45.3838 43.2018C44.7996 43.7871 44.2588 44.4143 43.7659 45.0783C43.7016 45.0381 43.6359 44.9984 43.5668 44.9634C42.2308 44.2856 40.5529 44.9086 39.8189 46.354C39.0849 47.7995 39.5725 49.5209 40.9066 50.1987C40.9757 50.2337 41.0485 50.263 41.1171 50.2933C40.8717 51.0821 40.6846 51.8878 40.5571 52.7039C40.4805 52.7039 40.4034 52.7039 40.3254 52.7124C38.8016 52.8486 37.5924 54.2486 37.6245 55.8392C37.6567 57.4297 38.918 58.6095 40.4422 58.4734C40.5217 58.4663 40.6002 58.454 40.6787 58.4398C40.8365 59.2234 41.0549 59.9937 41.3318 60.7436C41.2613 60.7847 41.1899 60.8268 41.1237 60.875C39.8198 61.7877 39.4037 63.59 40.1934 64.8998C40.9832 66.2096 42.6801 66.5305 43.9839 65.6173C44.0506 65.5701 44.1135 65.52 44.1755 65.4689C44.6927 66.0424 45.2572 66.5716 45.8628 67.0509C45.8203 67.1214 45.7782 67.1927 45.7399 67.2674C45.0059 68.7133 45.494 70.4343 46.8276 71.1122C48.1613 71.79 49.8416 71.167 50.576 69.7211C50.6138 69.6464 50.6465 69.5703 50.6782 69.4942C51.4214 69.7017 52.1807 69.8465 52.9482 69.9272C52.9435 70.0075 52.9401 70.0879 52.9416 70.1696C52.9737 71.7602 54.2355 72.9395 55.7592 72.8038C57.283 72.6682 58.4923 71.2677 58.4601 69.6771C58.4601 69.5939 58.4516 69.5126 58.4436 69.4318C59.2123 69.212 59.963 68.9334 60.689 68.5985C60.724 68.6694 60.7599 68.7403 60.8011 68.8083C61.5913 70.1177 63.2882 70.4391 64.592 69.5259C65.8959 68.6127 66.312 66.8108 65.5223 65.5011C65.4816 65.4339 65.4376 65.3711 65.3922 65.3092C65.9765 64.7241 66.5173 64.097 67.0101 63.4331C67.0782 63.4709 67.1439 63.5106 67.213 63.5456ZM50.5618 63.7597C45.7115 61.3018 43.9409 55.0503 46.6053 49.8012C49.2698 44.5522 55.3629 42.2914 60.2132 44.7512C65.0635 47.211 66.8342 53.4611 64.1697 58.7102C61.5053 63.9592 55.4121 66.22 50.5618 63.7597Z" fill="white"/>
<path d="M85.1627 107.348H74.8767C68.1687 107.348 62.7117 101.894 62.7117 95.1897V92.1405C62.7117 86.787 60.0382 81.7672 55.5606 78.7118C50.2402 75.0822 45.8226 70.2548 42.7855 64.7509C39.6468 59.0615 37.9968 52.6719 37.9886 46.1749C37.9886 35.4868 42.3618 25.4392 50.3021 17.8826C58.2425 10.326 68.7934 6.16742 80.0197 6.16742C91.2459 6.16742 101.799 10.3269 109.737 17.8826C117.675 25.4383 122.05 35.4868 122.05 46.1749C122.042 52.6719 120.392 59.0616 117.253 64.7509C114.216 70.2548 109.799 75.0822 104.478 78.7118C100.001 81.7667 97.3273 86.787 97.3273 92.1405V95.1897C97.3273 101.894 91.8702 107.348 85.1627 107.348ZM80.0197 6.4912C68.8781 6.4912 58.4038 10.62 50.5263 18.119C42.6488 25.6179 38.3135 35.5757 38.3135 46.174C38.3217 52.6161 39.9579 58.9518 43.0702 64.5931C46.0827 70.052 50.4653 74.8411 55.7446 78.4424C60.3111 81.5578 63.0375 86.6782 63.0375 92.139V95.1882C63.0375 101.711 68.3489 107.022 74.8776 107.022H85.1637C91.69 107.022 97.0033 101.713 97.0033 95.1882V92.1405C97.0033 86.6797 99.7297 81.5592 104.296 78.4438C109.575 74.8425 113.957 70.0534 116.971 64.5945C120.083 58.9528 121.719 52.6166 121.727 46.174C121.727 35.5757 117.39 25.6127 109.515 18.1166C101.64 10.6205 91.1613 6.4912 80.0197 6.4912Z" fill="white"/>
<path d="M99.1202 85.6506C100.003 85.6506 100.719 84.9351 100.719 84.0525C100.719 83.1699 100.003 82.4544 99.1202 82.4544C98.2371 82.4544 97.5212 83.1699 97.5212 84.0525C97.5212 84.9351 98.2371 85.6506 99.1202 85.6506Z" fill="white"/>
<path d="M86.8496 94.5293C87.5224 94.5293 88.0678 93.9842 88.0678 93.3117C88.0678 92.6393 87.5224 92.0941 86.8496 92.0941C86.1768 92.0941 85.6313 92.6393 85.6313 93.3117C85.6313 93.9842 86.1768 94.5293 86.8496 94.5293Z" fill="white"/>
<path d="M86.6955 93.7561L86.4983 93.498L99.0577 83.8956L99.1036 83.8909L117.363 82.0399L117.396 82.3632L99.1821 84.2095L86.6955 93.7561Z" fill="white"/>
<path d="M117.846 83.5793C118.468 83.322 118.763 82.6097 118.505 81.9885C118.248 81.3672 117.535 81.0722 116.914 81.3295C116.292 81.5869 115.997 82.2991 116.254 82.9204C116.512 83.5417 117.224 83.8367 117.846 83.5793Z" fill="white"/>
</g>
<defs>
<linearGradient id="paint0_linear_1681_4100" x1="79.1476" y1="131.924" x2="79.8903" y2="125.978" gradientUnits="userSpaceOnUse">
<stop stop-color="#26264F"/>
<stop offset="1" stop-color="#444B8C"/>
</linearGradient>
<linearGradient id="paint1_linear_1681_4100" x1="76.0892" y1="126.505" x2="83.519" y2="113.124" gradientUnits="userSpaceOnUse">
<stop stop-color="#26264F"/>
<stop offset="1" stop-color="#444B8C"/>
</linearGradient>
<linearGradient id="paint2_linear_1681_4100" x1="67.6797" y1="120.166" x2="92.3592" y2="120.166" gradientUnits="userSpaceOnUse">
<stop stop-color="#26264F"/>
<stop offset="1" stop-color="#444B8C"/>
</linearGradient>
<linearGradient id="paint3_linear_1681_4100" x1="76.7973" y1="122.85" x2="84.1337" y2="108.726" gradientUnits="userSpaceOnUse">
<stop stop-color="#26264F"/>
<stop offset="1" stop-color="#444B8C"/>
</linearGradient>
<linearGradient id="paint4_linear_1681_4100" x1="66.574" y1="116.008" x2="93.4526" y2="116.008" gradientUnits="userSpaceOnUse">
<stop stop-color="#26264F"/>
<stop offset="1" stop-color="#444B8C"/>
</linearGradient>
<linearGradient id="paint5_linear_1681_4100" x1="66.1759" y1="111.155" x2="93.8632" y2="111.155" gradientUnits="userSpaceOnUse">
<stop stop-color="#26264F"/>
<stop offset="1" stop-color="#444B8C"/>
</linearGradient>
<linearGradient id="paint6_linear_1681_4100" x1="79.3321" y1="109.067" x2="82.0557" y2="96.3083" gradientUnits="userSpaceOnUse">
<stop stop-color="#26264F"/>
<stop offset="1" stop-color="#444B8C"/>
</linearGradient>
<linearGradient id="paint7_linear_1681_4100" x1="74.0959" y1="37.8781" x2="128.148" y2="123.738" gradientUnits="userSpaceOnUse">
<stop stop-color="#FCB148"/>
<stop offset="0.05" stop-color="#FDBA46"/>
<stop offset="0.14" stop-color="#FFC244"/>
<stop offset="0.32" stop-color="#FFC444"/>
<stop offset="0.48" stop-color="#FDB946"/>
<stop offset="0.78" stop-color="#F99C4D"/>
<stop offset="0.87" stop-color="#F8924F"/>
<stop offset="1" stop-color="#F8924F"/>
</linearGradient>
<linearGradient id="paint8_linear_1681_4100" x1="64.2137" y1="103.97" x2="75.2332" y2="71.7609" gradientUnits="userSpaceOnUse">
<stop offset="0.49" stop-color="#EBEFF2"/>
<stop offset="1" stop-color="white"/>
</linearGradient>
<linearGradient id="paint9_linear_1681_4100" x1="74.7589" y1="107.577" x2="85.778" y2="75.3688" gradientUnits="userSpaceOnUse">
<stop offset="0.49" stop-color="#EBEFF2"/>
<stop offset="1" stop-color="white"/>
</linearGradient>
<linearGradient id="paint10_linear_1681_4100" x1="60.3731" y1="102.655" x2="71.3922" y2="70.4468" gradientUnits="userSpaceOnUse">
<stop offset="0.49" stop-color="#EBEFF2"/>
<stop offset="1" stop-color="white"/>
</linearGradient>
<linearGradient id="paint11_linear_1681_4100" x1="75.9942" y1="18.5302" x2="65.2233" y2="107.343" gradientUnits="userSpaceOnUse">
<stop stop-color="#FCB148"/>
<stop offset="0.05" stop-color="#FDBA46"/>
<stop offset="0.14" stop-color="#FFC244"/>
<stop offset="0.32" stop-color="#FFC444"/>
<stop offset="0.48" stop-color="#FDB946"/>
<stop offset="0.78" stop-color="#F99C4D"/>
<stop offset="0.87" stop-color="#F8924F"/>
<stop offset="1" stop-color="#F8924F"/>
</linearGradient>
<linearGradient id="paint12_linear_1681_4100" x1="66.889" y1="74.3694" x2="97.8121" y2="7.8962" gradientUnits="userSpaceOnUse">
<stop offset="0.01" stop-color="#D8DEE8"/>
<stop offset="1" stop-color="#F4F7FA"/>
</linearGradient>
<linearGradient id="paint13_linear_1681_4100" x1="137.101" y1="35.8307" x2="69.9511" y2="120.716" gradientUnits="userSpaceOnUse">
<stop stop-color="#FF9085"/>
<stop offset="1" stop-color="#FB6FBB"/>
</linearGradient>
<linearGradient id="paint14_linear_1681_4100" x1="57.8387" y1="44.5688" x2="110.45" y2="44.5688" gradientUnits="userSpaceOnUse">
<stop stop-color="#FCB148"/>
<stop offset="0.05" stop-color="#FDBA46"/>
<stop offset="0.14" stop-color="#FFC244"/>
<stop offset="0.32" stop-color="#FFC444"/>
<stop offset="0.48" stop-color="#FDB946"/>
<stop offset="0.78" stop-color="#F99C4D"/>
<stop offset="0.87" stop-color="#F8924F"/>
<stop offset="1" stop-color="#F8924F"/>
</linearGradient>
<clipPath id="clip0_1681_4100">
<rect width="155" height="132" fill="white"/>
</clipPath>
</defs>
</svg>
