<svg width="183" height="134" viewBox="0 0 183 134" fill="none" xmlns="http://www.w3.org/2000/svg">
<g clip-path="url(#clip0_1676_2091)">
<mask id="mask0_1676_2091" style="mask-type:luminance" maskUnits="userSpaceOnUse" x="-5" y="-4" width="137" height="138">
<path d="M132 -3.01428H-4.36365V134H132V-3.01428Z" fill="white"/>
</mask>
<g mask="url(#mask0_1676_2091)">
<mask id="mask1_1676_2091" style="mask-type:luminance" maskUnits="userSpaceOnUse" x="-39" y="-4" width="206" height="138">
<path d="M166.091 -3.01428H-38.4546V134H166.091V-3.01428Z" fill="white"/>
</mask>
<g mask="url(#mask1_1676_2091)">
<path d="M113.454 111.256H14.1818L63.4172 20.8262L113.454 111.256Z" fill="#66C2C2"/>
<path d="M17.7272 8.49487L42.2645 23.0184L15.5454 18.6339L17.7272 8.49487Z" fill="#66C2C2"/>
<path d="M80.8336 23.0184L85.8518 3.01428L102.818 10.6871L80.8336 23.0184Z" fill="#CCEBEB"/>
<path d="M7.63635 60.3412L26.7273 57.7269L21.2727 80.0603L7.63635 60.3412Z" fill="#99D7D7"/>
<path d="M17.1818 118.106L44.3836 114.544L25.3636 129.588L17.1818 118.106Z" fill="#99D7D7"/>
<path d="M81.4746 116.736L94.1755 114.544L91.8246 123.861L81.4746 116.736Z" fill="#CCEBEB"/>
<path d="M94.1754 24.6626L95.4545 37.8406L102.818 33.7521L94.1754 24.6626Z" fill="#66C2C2"/>
<path d="M43.6609 0L41.7845 13.0164L71.2418 8.49489L43.6609 0Z" fill="#99D7D7"/>
<path d="M11.7273 81.6989L1.36365 92.8957L11.7273 97.2335V81.6989Z" fill="#99D7D7"/>
<path d="M57.4691 114.544L56.73 122.066L76.2463 119.202L57.4691 114.544Z" fill="#66C2C2"/>
<path d="M110.455 83.6637L119.455 87.5522L114.955 96.1841L110.455 83.6637Z" fill="#66C2C2"/>
<path d="M109.364 39.4601L110.455 57.7268L127.091 40.5562L109.364 39.4601Z" fill="#CCEBEB"/>
<path d="M45.2537 26.0327L51.3409 29.595L58.4018 15.7566L45.2537 26.0327Z" fill="#66C2C2"/>
<path d="M30.7827 28.225L20.1954 40.5563L36.8182 41.9264L30.7827 28.225Z" fill="#66C2C2"/>
<path d="M74.2036 29.5951L85.8518 24.6626L90.2754 41.9264L74.2036 29.5951Z" fill="#99D7D7"/>
<path d="M75.3818 9.86499L67.3636 17.2638L73.7455 20.8261L75.3818 9.86499Z" fill="#66C2C2"/>
<path d="M113.455 13.0164L96.5454 20.8262L105 24.6626L113.455 13.0164Z" fill="#99D7D7"/>
<path d="M8.72727 8.63196L0 18.8395L10.2273 20.8262L8.72727 8.63196Z" fill="#66C2C2"/>
<path d="M123.545 49.6512L114.955 60.089L130.364 66.4054L123.545 49.6512Z" fill="#99D7D7"/>
<path d="M105.818 52.5312L90.3027 62.9087L114.955 78.764L105.818 52.5312Z" fill="#99D7D7"/>
<path d="M124.364 92.6217L113.455 104.953L119.455 109.65L124.364 92.6217Z" fill="#99D7D7"/>
<path d="M7.63635 54.8057L43.1809 52.5312L12.8182 39.4601L7.63635 54.8057Z" fill="#66C2C2"/>
<path d="M5.11361 100.021H14.1818L4.77271 117.284L5.11361 100.021Z" fill="#CCEBEB"/>
<path d="M97.7945 114.544L96.5454 122.066L107.441 114.544H97.7945Z" fill="#99D7D7"/>
<path d="M30.7827 56.1759L38.7273 59.6287L30.7827 75.0839V56.1759Z" fill="#66C2C2"/>
<path d="M15.5454 80.0602L26.7272 84.7817L17.1818 97.2336L15.5454 80.0602Z" fill="#66C2C2"/>
<path d="M38.7273 26.0327L51.5564 33.2945L44.3837 50.9693L38.7273 26.0327Z" fill="#99D7D7"/>
<path d="M61.9091 74.84C61.7918 74.2481 60.8755 74.2727 60.7445 74.84C60.1773 77.2514 59.52 81.5537 56.3427 81.7044C54.6055 81.7893 53.7464 80.5507 53.6591 78.9285C53.5882 77.6022 53.4218 75.8457 53.9127 74.6071C54.1527 74.0042 53.3073 73.6452 52.9036 74.0179C49.9555 76.728 51.4091 83.1321 55.5927 83.6281C57.6191 83.8692 59.4682 82.806 60.6818 81.2194C62.1818 79.271 62.3591 77.1583 61.9091 74.84Z" fill="#1D1D1B"/>
<path d="M77.8418 73.7329C77.5854 72.2093 75.2864 72.6368 75.2427 74.0864C75.18 76.2019 75.6518 80.074 72.7745 80.6631C70.0036 81.2386 69.5454 76.454 69.5918 74.618C69.6164 73.6973 68.3918 73.6562 68.0945 74.4153C67.2409 76.6075 67.2954 78.7066 68.3973 80.833C68.786 81.6344 69.4069 82.2988 70.1784 82.739C70.9499 83.1791 71.8359 83.3745 72.72 83.2993C77.2718 82.9485 78.4636 77.4296 77.8418 73.7329Z" fill="#1D1D1B"/>
<path d="M84.9901 80.0848C84.1719 79.8793 83.6101 81.0741 84.401 81.4851C84.9671 81.7779 85.491 82.1467 85.9582 82.5812C85.5118 82.6677 85.1025 82.8896 84.7855 83.217C82.2301 85.7709 79.9091 88.0536 76.6364 89.7224C73.3437 91.3989 69.7656 92.4356 66.0901 92.7779C59.1219 93.3999 50.8691 90.9556 47.5991 84.2254C47.771 84.1377 47.9428 84.0555 48.1228 83.9761C48.941 83.6171 48.521 82.2524 47.6728 82.3072C46.7667 82.3772 45.9219 82.794 45.3129 83.4717C44.7039 84.1494 44.3771 85.0363 44.4001 85.9491C44.403 86.0587 44.4411 86.1644 44.5086 86.2505C44.5761 86.3367 44.6694 86.3987 44.7748 86.4273C44.8801 86.4559 44.9918 86.4496 45.0933 86.4094C45.1948 86.3692 45.2807 86.2971 45.3382 86.2039C45.6133 85.7604 45.9588 85.3651 46.361 85.0338C47.4124 88.6356 49.6305 91.7815 52.6637 93.9726C56.3264 96.617 61.1919 97.3952 65.6073 97.2062C70.1172 96.9977 74.5438 95.9107 78.641 94.0055C82.2001 92.3613 86.0046 89.8595 88.1864 86.4889C88.211 86.5875 88.2355 86.6862 88.2573 86.7876C88.4973 87.9166 90.3082 87.67 90.2646 86.5136C90.1885 85.0151 89.6345 83.5811 88.6847 82.4234C87.7348 81.2657 86.4395 80.4458 84.9901 80.0848Z" fill="#1D1D1B"/>
</g>
</g>
</g>
<defs>
<clipPath id="clip0_1676_2091">
<rect width="183" height="134" fill="white"/>
</clipPath>
</defs>
</svg>
